%TF.GenerationSoftware,KiCad,Pcbnew,(6.0.7)*%
%TF.CreationDate,2022-12-05T15:03:54-06:00*%
%TF.ProjectId,oxPSB,6f785053-422e-46b6-9963-61645f706362,rev?*%
%TF.SameCoordinates,Original*%
%TF.FileFunction,Drillmap*%
%TF.FilePolarity,Positive*%
%FSLAX45Y45*%
G04 Gerber Fmt 4.5, Leading zero omitted, Abs format (unit mm)*
G04 Created by KiCad (PCBNEW (6.0.7)) date 2022-12-05 15:03:54*
%MOMM*%
%LPD*%
G01*
G04 APERTURE LIST*
%ADD10C,0.100000*%
%ADD11C,0.200000*%
G04 APERTURE END LIST*
D10*
X3040380Y-4381500D02*
X11958320Y-4381500D01*
X11958320Y-4381500D02*
X11958320Y-10850880D01*
X11958320Y-10850880D02*
X3040380Y-10850880D01*
X3040380Y-10850880D02*
X3040380Y-4381500D01*
D11*
D10*
X4050000Y-5050000D02*
X4150000Y-5150000D01*
X4150000Y-5050000D02*
X4050000Y-5150000D01*
X4050000Y-5304000D02*
X4150000Y-5404000D01*
X4150000Y-5304000D02*
X4050000Y-5404000D01*
X4050000Y-5558000D02*
X4150000Y-5658000D01*
X4150000Y-5558000D02*
X4050000Y-5658000D01*
X4050000Y-5812000D02*
X4150000Y-5912000D01*
X4150000Y-5812000D02*
X4050000Y-5912000D01*
X4050000Y-6066000D02*
X4150000Y-6166000D01*
X4150000Y-6066000D02*
X4050000Y-6166000D01*
X4050000Y-6320000D02*
X4150000Y-6420000D01*
X4150000Y-6320000D02*
X4050000Y-6420000D01*
X4050000Y-6574000D02*
X4150000Y-6674000D01*
X4150000Y-6574000D02*
X4050000Y-6674000D01*
X4050000Y-6828000D02*
X4150000Y-6928000D01*
X4150000Y-6828000D02*
X4050000Y-6928000D01*
X4050000Y-7082000D02*
X4150000Y-7182000D01*
X4150000Y-7082000D02*
X4050000Y-7182000D01*
X4050000Y-7336000D02*
X4150000Y-7436000D01*
X4150000Y-7336000D02*
X4050000Y-7436000D01*
X4050000Y-7590000D02*
X4150000Y-7690000D01*
X4150000Y-7590000D02*
X4050000Y-7690000D01*
X4050000Y-7844000D02*
X4150000Y-7944000D01*
X4150000Y-7844000D02*
X4050000Y-7944000D01*
X4050000Y-8098000D02*
X4150000Y-8198000D01*
X4150000Y-8098000D02*
X4050000Y-8198000D01*
X4050000Y-8352000D02*
X4150000Y-8452000D01*
X4150000Y-8352000D02*
X4050000Y-8452000D01*
X4050000Y-8606000D02*
X4150000Y-8706000D01*
X4150000Y-8606000D02*
X4050000Y-8706000D01*
X4050000Y-8860000D02*
X4150000Y-8960000D01*
X4150000Y-8860000D02*
X4050000Y-8960000D01*
X4050000Y-9114000D02*
X4150000Y-9214000D01*
X4150000Y-9114000D02*
X4050000Y-9214000D01*
X4050000Y-9368000D02*
X4150000Y-9468000D01*
X4150000Y-9368000D02*
X4050000Y-9468000D01*
X4050000Y-9622000D02*
X4150000Y-9722000D01*
X4150000Y-9622000D02*
X4050000Y-9722000D01*
X6550000Y-5050000D02*
X6650000Y-5150000D01*
X6650000Y-5050000D02*
X6550000Y-5150000D01*
X6550000Y-5304000D02*
X6650000Y-5404000D01*
X6650000Y-5304000D02*
X6550000Y-5404000D01*
X6550000Y-5558000D02*
X6650000Y-5658000D01*
X6650000Y-5558000D02*
X6550000Y-5658000D01*
X6550000Y-5812000D02*
X6650000Y-5912000D01*
X6650000Y-5812000D02*
X6550000Y-5912000D01*
X6550000Y-6066000D02*
X6650000Y-6166000D01*
X6650000Y-6066000D02*
X6550000Y-6166000D01*
X6550000Y-6320000D02*
X6650000Y-6420000D01*
X6650000Y-6320000D02*
X6550000Y-6420000D01*
X6550000Y-6574000D02*
X6650000Y-6674000D01*
X6650000Y-6574000D02*
X6550000Y-6674000D01*
X6550000Y-6828000D02*
X6650000Y-6928000D01*
X6650000Y-6828000D02*
X6550000Y-6928000D01*
X6550000Y-7082000D02*
X6650000Y-7182000D01*
X6650000Y-7082000D02*
X6550000Y-7182000D01*
X6550000Y-7336000D02*
X6650000Y-7436000D01*
X6650000Y-7336000D02*
X6550000Y-7436000D01*
X6550000Y-7590000D02*
X6650000Y-7690000D01*
X6650000Y-7590000D02*
X6550000Y-7690000D01*
X6550000Y-7844000D02*
X6650000Y-7944000D01*
X6650000Y-7844000D02*
X6550000Y-7944000D01*
X6550000Y-8098000D02*
X6650000Y-8198000D01*
X6650000Y-8098000D02*
X6550000Y-8198000D01*
X6550000Y-8352000D02*
X6650000Y-8452000D01*
X6650000Y-8352000D02*
X6550000Y-8452000D01*
X6550000Y-8606000D02*
X6650000Y-8706000D01*
X6650000Y-8606000D02*
X6550000Y-8706000D01*
X6550000Y-8860000D02*
X6650000Y-8960000D01*
X6650000Y-8860000D02*
X6550000Y-8960000D01*
X6550000Y-9114000D02*
X6650000Y-9214000D01*
X6650000Y-9114000D02*
X6550000Y-9214000D01*
X6550000Y-9368000D02*
X6650000Y-9468000D01*
X6650000Y-9368000D02*
X6550000Y-9468000D01*
X6550000Y-9622000D02*
X6650000Y-9722000D01*
X6650000Y-9622000D02*
X6550000Y-9722000D01*
X7182380Y-7346480D02*
X7282380Y-7446480D01*
X7282380Y-7346480D02*
X7182380Y-7446480D01*
X7942380Y-7346480D02*
X8042380Y-7446480D01*
X8042380Y-7346480D02*
X7942380Y-7446480D01*
X9060980Y-5141760D02*
X9160980Y-5241760D01*
X9160980Y-5141760D02*
X9060980Y-5241760D01*
X9060980Y-5395760D02*
X9160980Y-5495760D01*
X9160980Y-5395760D02*
X9060980Y-5495760D01*
X9060980Y-5649760D02*
X9160980Y-5749760D01*
X9160980Y-5649760D02*
X9060980Y-5749760D01*
X9060980Y-5903760D02*
X9160980Y-6003760D01*
X9160980Y-5903760D02*
X9060980Y-6003760D01*
X9060980Y-6157760D02*
X9160980Y-6257760D01*
X9160980Y-6157760D02*
X9060980Y-6257760D01*
X9060980Y-6411760D02*
X9160980Y-6511760D01*
X9160980Y-6411760D02*
X9060980Y-6511760D01*
X9060980Y-6665760D02*
X9160980Y-6765760D01*
X9160980Y-6665760D02*
X9060980Y-6765760D01*
X9060980Y-6919760D02*
X9160980Y-7019760D01*
X9160980Y-6919760D02*
X9060980Y-7019760D01*
X9060980Y-7941760D02*
X9160980Y-8041760D01*
X9160980Y-7941760D02*
X9060980Y-8041760D01*
X9060980Y-8195760D02*
X9160980Y-8295760D01*
X9160980Y-8195760D02*
X9060980Y-8295760D01*
X9060980Y-8449760D02*
X9160980Y-8549760D01*
X9160980Y-8449760D02*
X9060980Y-8549760D01*
X9060980Y-8703760D02*
X9160980Y-8803760D01*
X9160980Y-8703760D02*
X9060980Y-8803760D01*
X9060980Y-8957760D02*
X9160980Y-9057760D01*
X9160980Y-8957760D02*
X9060980Y-9057760D01*
X9060980Y-9211760D02*
X9160980Y-9311760D01*
X9160980Y-9211760D02*
X9060980Y-9311760D01*
X9060980Y-9465760D02*
X9160980Y-9565760D01*
X9160980Y-9465760D02*
X9060980Y-9565760D01*
X9060980Y-9719760D02*
X9160980Y-9819760D01*
X9160980Y-9719760D02*
X9060980Y-9819760D01*
X10060980Y-7941760D02*
X10160980Y-8041760D01*
X10160980Y-7941760D02*
X10060980Y-8041760D01*
X10060980Y-8195760D02*
X10160980Y-8295760D01*
X10160980Y-8195760D02*
X10060980Y-8295760D01*
X10060980Y-8449760D02*
X10160980Y-8549760D01*
X10160980Y-8449760D02*
X10060980Y-8549760D01*
X10060980Y-8703760D02*
X10160980Y-8803760D01*
X10160980Y-8703760D02*
X10060980Y-8803760D01*
X10060980Y-8957760D02*
X10160980Y-9057760D01*
X10160980Y-8957760D02*
X10060980Y-9057760D01*
X10060980Y-9211760D02*
X10160980Y-9311760D01*
X10160980Y-9211760D02*
X10060980Y-9311760D01*
X10060980Y-9465760D02*
X10160980Y-9565760D01*
X10160980Y-9465760D02*
X10060980Y-9565760D01*
X10060980Y-9719760D02*
X10160980Y-9819760D01*
X10160980Y-9719760D02*
X10060980Y-9819760D01*
D11*
X3292999Y-11166356D02*
X3292999Y-10966356D01*
X3340618Y-10966356D01*
X3369189Y-10975880D01*
X3388237Y-10994928D01*
X3397761Y-11013975D01*
X3407285Y-11052070D01*
X3407285Y-11080642D01*
X3397761Y-11118737D01*
X3388237Y-11137785D01*
X3369189Y-11156832D01*
X3340618Y-11166356D01*
X3292999Y-11166356D01*
X3492999Y-11166356D02*
X3492999Y-11033023D01*
X3492999Y-11071118D02*
X3502523Y-11052070D01*
X3512047Y-11042547D01*
X3531094Y-11033023D01*
X3550142Y-11033023D01*
X3616808Y-11166356D02*
X3616808Y-11033023D01*
X3616808Y-10966356D02*
X3607285Y-10975880D01*
X3616808Y-10985404D01*
X3626332Y-10975880D01*
X3616808Y-10966356D01*
X3616808Y-10985404D01*
X3740618Y-11166356D02*
X3721570Y-11156832D01*
X3712047Y-11137785D01*
X3712047Y-10966356D01*
X3845380Y-11166356D02*
X3826332Y-11156832D01*
X3816808Y-11137785D01*
X3816808Y-10966356D01*
X4073951Y-11166356D02*
X4073951Y-10966356D01*
X4140618Y-11109213D01*
X4207285Y-10966356D01*
X4207285Y-11166356D01*
X4388237Y-11166356D02*
X4388237Y-11061594D01*
X4378713Y-11042547D01*
X4359666Y-11033023D01*
X4321570Y-11033023D01*
X4302523Y-11042547D01*
X4388237Y-11156832D02*
X4369190Y-11166356D01*
X4321570Y-11166356D01*
X4302523Y-11156832D01*
X4292999Y-11137785D01*
X4292999Y-11118737D01*
X4302523Y-11099690D01*
X4321570Y-11090166D01*
X4369190Y-11090166D01*
X4388237Y-11080642D01*
X4483475Y-11033023D02*
X4483475Y-11233023D01*
X4483475Y-11042547D02*
X4502523Y-11033023D01*
X4540618Y-11033023D01*
X4559666Y-11042547D01*
X4569190Y-11052070D01*
X4578713Y-11071118D01*
X4578713Y-11128261D01*
X4569190Y-11147309D01*
X4559666Y-11156832D01*
X4540618Y-11166356D01*
X4502523Y-11166356D01*
X4483475Y-11156832D01*
X4664428Y-11147309D02*
X4673951Y-11156832D01*
X4664428Y-11166356D01*
X4654904Y-11156832D01*
X4664428Y-11147309D01*
X4664428Y-11166356D01*
X4664428Y-11042547D02*
X4673951Y-11052070D01*
X4664428Y-11061594D01*
X4654904Y-11052070D01*
X4664428Y-11042547D01*
X4664428Y-11061594D01*
D10*
X2935380Y-11445880D02*
X3035380Y-11545880D01*
X3035380Y-11445880D02*
X2935380Y-11545880D01*
D11*
X3397761Y-11586356D02*
X3283475Y-11586356D01*
X3340618Y-11586356D02*
X3340618Y-11386356D01*
X3321570Y-11414928D01*
X3302523Y-11433975D01*
X3283475Y-11443499D01*
X3483475Y-11567308D02*
X3492999Y-11576832D01*
X3483475Y-11586356D01*
X3473951Y-11576832D01*
X3483475Y-11567308D01*
X3483475Y-11586356D01*
X3616808Y-11386356D02*
X3635856Y-11386356D01*
X3654904Y-11395880D01*
X3664428Y-11405404D01*
X3673951Y-11424451D01*
X3683475Y-11462547D01*
X3683475Y-11510166D01*
X3673951Y-11548261D01*
X3664428Y-11567308D01*
X3654904Y-11576832D01*
X3635856Y-11586356D01*
X3616808Y-11586356D01*
X3597761Y-11576832D01*
X3588237Y-11567308D01*
X3578713Y-11548261D01*
X3569189Y-11510166D01*
X3569189Y-11462547D01*
X3578713Y-11424451D01*
X3588237Y-11405404D01*
X3597761Y-11395880D01*
X3616808Y-11386356D01*
X3807285Y-11386356D02*
X3826332Y-11386356D01*
X3845380Y-11395880D01*
X3854904Y-11405404D01*
X3864428Y-11424451D01*
X3873951Y-11462547D01*
X3873951Y-11510166D01*
X3864428Y-11548261D01*
X3854904Y-11567308D01*
X3845380Y-11576832D01*
X3826332Y-11586356D01*
X3807285Y-11586356D01*
X3788237Y-11576832D01*
X3778713Y-11567308D01*
X3769189Y-11548261D01*
X3759666Y-11510166D01*
X3759666Y-11462547D01*
X3769189Y-11424451D01*
X3778713Y-11405404D01*
X3788237Y-11395880D01*
X3807285Y-11386356D01*
X3997761Y-11386356D02*
X4016808Y-11386356D01*
X4035856Y-11395880D01*
X4045380Y-11405404D01*
X4054904Y-11424451D01*
X4064428Y-11462547D01*
X4064428Y-11510166D01*
X4054904Y-11548261D01*
X4045380Y-11567308D01*
X4035856Y-11576832D01*
X4016808Y-11586356D01*
X3997761Y-11586356D01*
X3978713Y-11576832D01*
X3969189Y-11567308D01*
X3959666Y-11548261D01*
X3950142Y-11510166D01*
X3950142Y-11462547D01*
X3959666Y-11424451D01*
X3969189Y-11405404D01*
X3978713Y-11395880D01*
X3997761Y-11386356D01*
X4150142Y-11586356D02*
X4150142Y-11453023D01*
X4150142Y-11472070D02*
X4159666Y-11462547D01*
X4178713Y-11453023D01*
X4207285Y-11453023D01*
X4226332Y-11462547D01*
X4235856Y-11481594D01*
X4235856Y-11586356D01*
X4235856Y-11481594D02*
X4245380Y-11462547D01*
X4264428Y-11453023D01*
X4292999Y-11453023D01*
X4312047Y-11462547D01*
X4321570Y-11481594D01*
X4321570Y-11586356D01*
X4416809Y-11586356D02*
X4416809Y-11453023D01*
X4416809Y-11472070D02*
X4426332Y-11462547D01*
X4445380Y-11453023D01*
X4473951Y-11453023D01*
X4492999Y-11462547D01*
X4502523Y-11481594D01*
X4502523Y-11586356D01*
X4502523Y-11481594D02*
X4512047Y-11462547D01*
X4531094Y-11453023D01*
X4559666Y-11453023D01*
X4578713Y-11462547D01*
X4588237Y-11481594D01*
X4588237Y-11586356D01*
X4978713Y-11376832D02*
X4807285Y-11633975D01*
X5235856Y-11386356D02*
X5254904Y-11386356D01*
X5273951Y-11395880D01*
X5283475Y-11405404D01*
X5292999Y-11424451D01*
X5302523Y-11462547D01*
X5302523Y-11510166D01*
X5292999Y-11548261D01*
X5283475Y-11567308D01*
X5273951Y-11576832D01*
X5254904Y-11586356D01*
X5235856Y-11586356D01*
X5216809Y-11576832D01*
X5207285Y-11567308D01*
X5197761Y-11548261D01*
X5188237Y-11510166D01*
X5188237Y-11462547D01*
X5197761Y-11424451D01*
X5207285Y-11405404D01*
X5216809Y-11395880D01*
X5235856Y-11386356D01*
X5388237Y-11567308D02*
X5397761Y-11576832D01*
X5388237Y-11586356D01*
X5378713Y-11576832D01*
X5388237Y-11567308D01*
X5388237Y-11586356D01*
X5521570Y-11386356D02*
X5540618Y-11386356D01*
X5559666Y-11395880D01*
X5569190Y-11405404D01*
X5578713Y-11424451D01*
X5588237Y-11462547D01*
X5588237Y-11510166D01*
X5578713Y-11548261D01*
X5569190Y-11567308D01*
X5559666Y-11576832D01*
X5540618Y-11586356D01*
X5521570Y-11586356D01*
X5502523Y-11576832D01*
X5492999Y-11567308D01*
X5483475Y-11548261D01*
X5473951Y-11510166D01*
X5473951Y-11462547D01*
X5483475Y-11424451D01*
X5492999Y-11405404D01*
X5502523Y-11395880D01*
X5521570Y-11386356D01*
X5654904Y-11386356D02*
X5778713Y-11386356D01*
X5712047Y-11462547D01*
X5740618Y-11462547D01*
X5759666Y-11472070D01*
X5769189Y-11481594D01*
X5778713Y-11500642D01*
X5778713Y-11548261D01*
X5769189Y-11567308D01*
X5759666Y-11576832D01*
X5740618Y-11586356D01*
X5683475Y-11586356D01*
X5664428Y-11576832D01*
X5654904Y-11567308D01*
X5873951Y-11586356D02*
X5912047Y-11586356D01*
X5931094Y-11576832D01*
X5940618Y-11567308D01*
X5959666Y-11538737D01*
X5969189Y-11500642D01*
X5969189Y-11424451D01*
X5959666Y-11405404D01*
X5950142Y-11395880D01*
X5931094Y-11386356D01*
X5892999Y-11386356D01*
X5873951Y-11395880D01*
X5864428Y-11405404D01*
X5854904Y-11424451D01*
X5854904Y-11472070D01*
X5864428Y-11491118D01*
X5873951Y-11500642D01*
X5892999Y-11510166D01*
X5931094Y-11510166D01*
X5950142Y-11500642D01*
X5959666Y-11491118D01*
X5969189Y-11472070D01*
X6140618Y-11453023D02*
X6140618Y-11586356D01*
X6092999Y-11376832D02*
X6045380Y-11519689D01*
X6169189Y-11519689D01*
X6235856Y-11386356D02*
X6235856Y-11424451D01*
X6312047Y-11386356D02*
X6312047Y-11424451D01*
X6607285Y-11662547D02*
X6597761Y-11653023D01*
X6578713Y-11624451D01*
X6569189Y-11605404D01*
X6559666Y-11576832D01*
X6550142Y-11529213D01*
X6550142Y-11491118D01*
X6559666Y-11443499D01*
X6569189Y-11414928D01*
X6578713Y-11395880D01*
X6597761Y-11367308D01*
X6607285Y-11357785D01*
X6769189Y-11386356D02*
X6731094Y-11386356D01*
X6712047Y-11395880D01*
X6702523Y-11405404D01*
X6683475Y-11433975D01*
X6673951Y-11472070D01*
X6673951Y-11548261D01*
X6683475Y-11567308D01*
X6692999Y-11576832D01*
X6712047Y-11586356D01*
X6750142Y-11586356D01*
X6769189Y-11576832D01*
X6778713Y-11567308D01*
X6788237Y-11548261D01*
X6788237Y-11500642D01*
X6778713Y-11481594D01*
X6769189Y-11472070D01*
X6750142Y-11462547D01*
X6712047Y-11462547D01*
X6692999Y-11472070D01*
X6683475Y-11481594D01*
X6673951Y-11500642D01*
X6959666Y-11453023D02*
X6959666Y-11586356D01*
X6912047Y-11376832D02*
X6864428Y-11519689D01*
X6988237Y-11519689D01*
X7216808Y-11586356D02*
X7216808Y-11386356D01*
X7302523Y-11586356D02*
X7302523Y-11481594D01*
X7292999Y-11462547D01*
X7273951Y-11453023D01*
X7245380Y-11453023D01*
X7226332Y-11462547D01*
X7216808Y-11472070D01*
X7426332Y-11586356D02*
X7407285Y-11576832D01*
X7397761Y-11567308D01*
X7388237Y-11548261D01*
X7388237Y-11491118D01*
X7397761Y-11472070D01*
X7407285Y-11462547D01*
X7426332Y-11453023D01*
X7454904Y-11453023D01*
X7473951Y-11462547D01*
X7483475Y-11472070D01*
X7492999Y-11491118D01*
X7492999Y-11548261D01*
X7483475Y-11567308D01*
X7473951Y-11576832D01*
X7454904Y-11586356D01*
X7426332Y-11586356D01*
X7607285Y-11586356D02*
X7588237Y-11576832D01*
X7578713Y-11557785D01*
X7578713Y-11386356D01*
X7759666Y-11576832D02*
X7740618Y-11586356D01*
X7702523Y-11586356D01*
X7683475Y-11576832D01*
X7673951Y-11557785D01*
X7673951Y-11481594D01*
X7683475Y-11462547D01*
X7702523Y-11453023D01*
X7740618Y-11453023D01*
X7759666Y-11462547D01*
X7769189Y-11481594D01*
X7769189Y-11500642D01*
X7673951Y-11519689D01*
X7845380Y-11576832D02*
X7864428Y-11586356D01*
X7902523Y-11586356D01*
X7921570Y-11576832D01*
X7931094Y-11557785D01*
X7931094Y-11548261D01*
X7921570Y-11529213D01*
X7902523Y-11519689D01*
X7873951Y-11519689D01*
X7854904Y-11510166D01*
X7845380Y-11491118D01*
X7845380Y-11481594D01*
X7854904Y-11462547D01*
X7873951Y-11453023D01*
X7902523Y-11453023D01*
X7921570Y-11462547D01*
X7997761Y-11662547D02*
X8007285Y-11653023D01*
X8026332Y-11624451D01*
X8035856Y-11605404D01*
X8045380Y-11576832D01*
X8054904Y-11529213D01*
X8054904Y-11491118D01*
X8045380Y-11443499D01*
X8035856Y-11414928D01*
X8026332Y-11395880D01*
X8007285Y-11367308D01*
X7997761Y-11357785D01*
M02*
