%TF.GenerationSoftware,KiCad,Pcbnew,(6.0.7)*%
%TF.CreationDate,2022-12-05T15:03:58-06:00*%
%TF.ProjectId,oxPSB,6f785053-422e-46b6-9963-61645f706362,rev?*%
%TF.SameCoordinates,Original*%
%TF.FileFunction,Legend,Top*%
%TF.FilePolarity,Positive*%
%FSLAX46Y46*%
G04 Gerber Fmt 4.6, Leading zero omitted, Abs format (unit mm)*
G04 Created by KiCad (PCBNEW (6.0.7)) date 2022-12-05 15:03:58*
%MOMM*%
%LPD*%
G01*
G04 APERTURE LIST*
%ADD10C,0.150000*%
%ADD11C,0.120000*%
G04 APERTURE END LIST*
D10*
%TO.C,J5*%
X90776466Y-49039980D02*
X90776466Y-49754266D01*
X90728847Y-49897123D01*
X90633609Y-49992361D01*
X90490752Y-50039980D01*
X90395514Y-50039980D01*
X91728847Y-49039980D02*
X91252657Y-49039980D01*
X91205038Y-49516171D01*
X91252657Y-49468552D01*
X91347895Y-49420933D01*
X91585990Y-49420933D01*
X91681228Y-49468552D01*
X91728847Y-49516171D01*
X91776466Y-49611409D01*
X91776466Y-49849504D01*
X91728847Y-49944742D01*
X91681228Y-49992361D01*
X91585990Y-50039980D01*
X91347895Y-50039980D01*
X91252657Y-49992361D01*
X91205038Y-49944742D01*
%TO.C,J4*%
X100776466Y-77039980D02*
X100776466Y-77754266D01*
X100728847Y-77897123D01*
X100633609Y-77992361D01*
X100490752Y-78039980D01*
X100395514Y-78039980D01*
X101681228Y-77373314D02*
X101681228Y-78039980D01*
X101443133Y-76992361D02*
X101205038Y-77706647D01*
X101824085Y-77706647D01*
%TO.C,J3*%
X90776466Y-77039980D02*
X90776466Y-77754266D01*
X90728847Y-77897123D01*
X90633609Y-77992361D01*
X90490752Y-78039980D01*
X90395514Y-78039980D01*
X91157419Y-77039980D02*
X91776466Y-77039980D01*
X91443133Y-77420933D01*
X91585990Y-77420933D01*
X91681228Y-77468552D01*
X91728847Y-77516171D01*
X91776466Y-77611409D01*
X91776466Y-77849504D01*
X91728847Y-77944742D01*
X91681228Y-77992361D01*
X91585990Y-78039980D01*
X91300276Y-78039980D01*
X91205038Y-77992361D01*
X91157419Y-77944742D01*
%TO.C,J2*%
X65666666Y-48122380D02*
X65666666Y-48836666D01*
X65619047Y-48979523D01*
X65523809Y-49074761D01*
X65380952Y-49122380D01*
X65285714Y-49122380D01*
X66095238Y-48217619D02*
X66142857Y-48170000D01*
X66238095Y-48122380D01*
X66476190Y-48122380D01*
X66571428Y-48170000D01*
X66619047Y-48217619D01*
X66666666Y-48312857D01*
X66666666Y-48408095D01*
X66619047Y-48550952D01*
X66047619Y-49122380D01*
X66666666Y-49122380D01*
%TO.C,J1*%
X40666666Y-48122380D02*
X40666666Y-48836666D01*
X40619047Y-48979523D01*
X40523809Y-49074761D01*
X40380952Y-49122380D01*
X40285714Y-49122380D01*
X41666666Y-49122380D02*
X41095238Y-49122380D01*
X41380952Y-49122380D02*
X41380952Y-48122380D01*
X41285714Y-48265238D01*
X41190476Y-48360476D01*
X41095238Y-48408095D01*
%TO.C,BZ1*%
X75242847Y-66693371D02*
X75385704Y-66740990D01*
X75433323Y-66788609D01*
X75480942Y-66883847D01*
X75480942Y-67026704D01*
X75433323Y-67121942D01*
X75385704Y-67169561D01*
X75290466Y-67217180D01*
X74909514Y-67217180D01*
X74909514Y-66217180D01*
X75242847Y-66217180D01*
X75338085Y-66264800D01*
X75385704Y-66312419D01*
X75433323Y-66407657D01*
X75433323Y-66502895D01*
X75385704Y-66598133D01*
X75338085Y-66645752D01*
X75242847Y-66693371D01*
X74909514Y-66693371D01*
X75814276Y-66217180D02*
X76480942Y-66217180D01*
X75814276Y-67217180D01*
X76480942Y-67217180D01*
X77385704Y-67217180D02*
X76814276Y-67217180D01*
X77099990Y-67217180D02*
X77099990Y-66217180D01*
X77004752Y-66360038D01*
X76909514Y-66455276D01*
X76814276Y-66502895D01*
X71932847Y-71496228D02*
X72694752Y-71496228D01*
X72313800Y-71877180D02*
X72313800Y-71115276D01*
D11*
%TO.C,J5*%
X89779800Y-53187600D02*
X92439800Y-53187600D01*
X89779800Y-71027600D02*
X92439800Y-71027600D01*
X89779800Y-53187600D02*
X89779800Y-71027600D01*
X89779800Y-51917600D02*
X89779800Y-50587600D01*
X92439800Y-53187600D02*
X92439800Y-71027600D01*
X89779800Y-50587600D02*
X91109800Y-50587600D01*
%TO.C,J4*%
X99779800Y-81187600D02*
X102439800Y-81187600D01*
X99779800Y-99027600D02*
X102439800Y-99027600D01*
X99779800Y-81187600D02*
X99779800Y-99027600D01*
X99779800Y-79917600D02*
X99779800Y-78587600D01*
X102439800Y-81187600D02*
X102439800Y-99027600D01*
X99779800Y-78587600D02*
X101109800Y-78587600D01*
%TO.C,J3*%
X89779800Y-78587600D02*
X91109800Y-78587600D01*
X92439800Y-81187600D02*
X92439800Y-99027600D01*
X89779800Y-79917600D02*
X89779800Y-78587600D01*
X89779800Y-81187600D02*
X89779800Y-99027600D01*
X89779800Y-99027600D02*
X92439800Y-99027600D01*
X89779800Y-81187600D02*
X92439800Y-81187600D01*
%TO.C,J2*%
X64670000Y-52270000D02*
X67330000Y-52270000D01*
X64670000Y-52270000D02*
X64670000Y-98050000D01*
X64670000Y-98050000D02*
X67330000Y-98050000D01*
X64670000Y-51000000D02*
X64670000Y-49670000D01*
X64670000Y-49670000D02*
X66000000Y-49670000D01*
X67330000Y-52270000D02*
X67330000Y-98050000D01*
%TO.C,J1*%
X39670000Y-52270000D02*
X42330000Y-52270000D01*
X39670000Y-52270000D02*
X39670000Y-98050000D01*
X39670000Y-98050000D02*
X42330000Y-98050000D01*
X39670000Y-51000000D02*
X39670000Y-49670000D01*
X39670000Y-49670000D02*
X41000000Y-49670000D01*
X42330000Y-52270000D02*
X42330000Y-98050000D01*
%TO.C,BZ1*%
X82223800Y-73964800D02*
G75*
G03*
X82223800Y-73964800I-6100000J0D01*
G01*
%TD*%
M02*
