%TF.GenerationSoftware,KiCad,Pcbnew,(6.0.7)*%
%TF.CreationDate,2022-12-05T15:03:58-06:00*%
%TF.ProjectId,oxPSB,6f785053-422e-46b6-9963-61645f706362,rev?*%
%TF.SameCoordinates,Original*%
%TF.FileFunction,Copper,L1,Top*%
%TF.FilePolarity,Positive*%
%FSLAX46Y46*%
G04 Gerber Fmt 4.6, Leading zero omitted, Abs format (unit mm)*
G04 Created by KiCad (PCBNEW (6.0.7)) date 2022-12-05 15:03:58*
%MOMM*%
%LPD*%
G01*
G04 APERTURE LIST*
%TA.AperFunction,ComponentPad*%
%ADD10R,1.700000X1.700000*%
%TD*%
%TA.AperFunction,ComponentPad*%
%ADD11O,1.700000X1.700000*%
%TD*%
%TA.AperFunction,ComponentPad*%
%ADD12R,2.000000X2.000000*%
%TD*%
%TA.AperFunction,ComponentPad*%
%ADD13C,2.000000*%
%TD*%
%TA.AperFunction,Conductor*%
%ADD14C,1.500000*%
%TD*%
%TA.AperFunction,Conductor*%
%ADD15C,0.250000*%
%TD*%
G04 APERTURE END LIST*
D10*
%TO.P,J5,1,Pin_1*%
%TO.N,Earth*%
X91109800Y-51917600D03*
D11*
%TO.P,J5,2,Pin_2*%
%TO.N,VCC*%
X91109800Y-54457600D03*
%TO.P,J5,3,Pin_3*%
%TO.N,Net-(J1-Pad17)*%
X91109800Y-56997600D03*
%TO.P,J5,4,Pin_4*%
%TO.N,Net-(J1-Pad14)*%
X91109800Y-59537600D03*
%TO.P,J5,5,Pin_5*%
%TO.N,unconnected-(J5-Pad5)*%
X91109800Y-62077600D03*
%TO.P,J5,6,Pin_6*%
%TO.N,unconnected-(J5-Pad6)*%
X91109800Y-64617600D03*
%TO.P,J5,7,Pin_7*%
%TO.N,unconnected-(J5-Pad7)*%
X91109800Y-67157600D03*
%TO.P,J5,8,Pin_8*%
%TO.N,unconnected-(J5-Pad8)*%
X91109800Y-69697600D03*
%TD*%
D10*
%TO.P,J4,1,Pin_1*%
%TO.N,unconnected-(J4-Pad1)*%
X101109800Y-79917600D03*
D11*
%TO.P,J4,2,Pin_2*%
%TO.N,unconnected-(J4-Pad2)*%
X101109800Y-82457600D03*
%TO.P,J4,3,Pin_3*%
%TO.N,unconnected-(J4-Pad3)*%
X101109800Y-84997600D03*
%TO.P,J4,4,Pin_4*%
%TO.N,unconnected-(J4-Pad4)*%
X101109800Y-87537600D03*
%TO.P,J4,5,Pin_5*%
%TO.N,unconnected-(J4-Pad5)*%
X101109800Y-90077600D03*
%TO.P,J4,6,Pin_6*%
%TO.N,unconnected-(J4-Pad6)*%
X101109800Y-92617600D03*
%TO.P,J4,7,Pin_7*%
%TO.N,unconnected-(J4-Pad7)*%
X101109800Y-95157600D03*
%TO.P,J4,8,Pin_8*%
%TO.N,unconnected-(J4-Pad8)*%
X101109800Y-97697600D03*
%TD*%
%TO.P,J3,8,Pin_8*%
%TO.N,unconnected-(J3-Pad8)*%
X91109800Y-97697600D03*
%TO.P,J3,7,Pin_7*%
%TO.N,unconnected-(J3-Pad7)*%
X91109800Y-95157600D03*
%TO.P,J3,6,Pin_6*%
%TO.N,unconnected-(J3-Pad6)*%
X91109800Y-92617600D03*
%TO.P,J3,5,Pin_5*%
%TO.N,unconnected-(J3-Pad5)*%
X91109800Y-90077600D03*
%TO.P,J3,4,Pin_4*%
%TO.N,VCC*%
X91109800Y-87537600D03*
%TO.P,J3,3,Pin_3*%
%TO.N,Net-(J1-Pad14)*%
X91109800Y-84997600D03*
%TO.P,J3,2,Pin_2*%
%TO.N,Net-(J1-Pad17)*%
X91109800Y-82457600D03*
D10*
%TO.P,J3,1,Pin_1*%
%TO.N,Earth*%
X91109800Y-79917600D03*
%TD*%
%TO.P,J2,1,Pin_1*%
%TO.N,unconnected-(J2-Pad1)*%
X66000000Y-51000000D03*
D11*
%TO.P,J2,2,Pin_2*%
%TO.N,unconnected-(J2-Pad2)*%
X66000000Y-53540000D03*
%TO.P,J2,3,Pin_3*%
%TO.N,unconnected-(J2-Pad3)*%
X66000000Y-56080000D03*
%TO.P,J2,4,Pin_4*%
%TO.N,unconnected-(J2-Pad4)*%
X66000000Y-58620000D03*
%TO.P,J2,5,Pin_5*%
%TO.N,unconnected-(J2-Pad5)*%
X66000000Y-61160000D03*
%TO.P,J2,6,Pin_6*%
%TO.N,Earth*%
X66000000Y-63700000D03*
%TO.P,J2,7,Pin_7*%
%TO.N,unconnected-(J2-Pad7)*%
X66000000Y-66240000D03*
%TO.P,J2,8,Pin_8*%
%TO.N,unconnected-(J2-Pad8)*%
X66000000Y-68780000D03*
%TO.P,J2,9,Pin_9*%
%TO.N,unconnected-(J2-Pad9)*%
X66000000Y-71320000D03*
%TO.P,J2,10,Pin_10*%
%TO.N,Net-(BZ1-Pad1)*%
X66000000Y-73860000D03*
%TO.P,J2,11,Pin_11*%
%TO.N,unconnected-(J2-Pad11)*%
X66000000Y-76400000D03*
%TO.P,J2,12,Pin_12*%
%TO.N,unconnected-(J2-Pad12)*%
X66000000Y-78940000D03*
%TO.P,J2,13,Pin_13*%
%TO.N,unconnected-(J2-Pad13)*%
X66000000Y-81480000D03*
%TO.P,J2,14,Pin_14*%
%TO.N,unconnected-(J2-Pad14)*%
X66000000Y-84020000D03*
%TO.P,J2,15,Pin_15*%
%TO.N,unconnected-(J2-Pad15)*%
X66000000Y-86560000D03*
%TO.P,J2,16,Pin_16*%
%TO.N,unconnected-(J2-Pad16)*%
X66000000Y-89100000D03*
%TO.P,J2,17,Pin_17*%
%TO.N,unconnected-(J2-Pad17)*%
X66000000Y-91640000D03*
%TO.P,J2,18,Pin_18*%
%TO.N,unconnected-(J2-Pad18)*%
X66000000Y-94180000D03*
%TO.P,J2,19,Pin_19*%
%TO.N,VCC*%
X66000000Y-96720000D03*
%TD*%
D10*
%TO.P,J1,1,Pin_1*%
%TO.N,unconnected-(J1-Pad1)*%
X41000000Y-51000000D03*
D11*
%TO.P,J1,2,Pin_2*%
%TO.N,unconnected-(J1-Pad2)*%
X41000000Y-53540000D03*
%TO.P,J1,3,Pin_3*%
%TO.N,unconnected-(J1-Pad3)*%
X41000000Y-56080000D03*
%TO.P,J1,4,Pin_4*%
%TO.N,unconnected-(J1-Pad4)*%
X41000000Y-58620000D03*
%TO.P,J1,5,Pin_5*%
%TO.N,unconnected-(J1-Pad5)*%
X41000000Y-61160000D03*
%TO.P,J1,6,Pin_6*%
%TO.N,unconnected-(J1-Pad6)*%
X41000000Y-63700000D03*
%TO.P,J1,7,Pin_7*%
%TO.N,unconnected-(J1-Pad7)*%
X41000000Y-66240000D03*
%TO.P,J1,8,Pin_8*%
%TO.N,unconnected-(J1-Pad8)*%
X41000000Y-68780000D03*
%TO.P,J1,9,Pin_9*%
%TO.N,unconnected-(J1-Pad9)*%
X41000000Y-71320000D03*
%TO.P,J1,10,Pin_10*%
%TO.N,unconnected-(J1-Pad10)*%
X41000000Y-73860000D03*
%TO.P,J1,11,Pin_11*%
%TO.N,unconnected-(J1-Pad11)*%
X41000000Y-76400000D03*
%TO.P,J1,12,Pin_12*%
%TO.N,unconnected-(J1-Pad12)*%
X41000000Y-78940000D03*
%TO.P,J1,13,Pin_13*%
%TO.N,Earth*%
X41000000Y-81480000D03*
%TO.P,J1,14,Pin_14*%
%TO.N,Net-(J1-Pad14)*%
X41000000Y-84020000D03*
%TO.P,J1,15,Pin_15*%
%TO.N,unconnected-(J1-Pad15)*%
X41000000Y-86560000D03*
%TO.P,J1,16,Pin_16*%
%TO.N,unconnected-(J1-Pad16)*%
X41000000Y-89100000D03*
%TO.P,J1,17,Pin_17*%
%TO.N,Net-(J1-Pad17)*%
X41000000Y-91640000D03*
%TO.P,J1,18,Pin_18*%
%TO.N,unconnected-(J1-Pad18)*%
X41000000Y-94180000D03*
%TO.P,J1,19,Pin_19*%
%TO.N,unconnected-(J1-Pad19)*%
X41000000Y-96720000D03*
%TD*%
D12*
%TO.P,BZ1,1,-*%
%TO.N,Net-(BZ1-Pad1)*%
X72323800Y-73964800D03*
D13*
%TO.P,BZ1,2,+*%
%TO.N,Earth*%
X79923800Y-73964800D03*
%TD*%
D14*
%TO.N,Net-(J1-Pad14)*%
X91906400Y-84997600D02*
X91109800Y-84997600D01*
X94945200Y-88036400D02*
X91906400Y-84997600D01*
X47015400Y-98704400D02*
X50952400Y-102641400D01*
X47015400Y-86664800D02*
X47015400Y-98704400D01*
X50952400Y-102641400D02*
X91948000Y-102641400D01*
X44370600Y-84020000D02*
X47015400Y-86664800D01*
X94945200Y-99644200D02*
X94945200Y-88036400D01*
X41000000Y-84020000D02*
X44370600Y-84020000D01*
X91948000Y-102641400D02*
X94945200Y-99644200D01*
D15*
%TO.N,Net-(BZ1-Pad1)*%
X72219000Y-73860000D02*
X72323800Y-73964800D01*
D14*
X66000000Y-73860000D02*
X72219000Y-73860000D01*
%TO.N,Net-(J1-Pad17)*%
X36245800Y-103047800D02*
X36245800Y-89281000D01*
X97383600Y-103352600D02*
X94361000Y-106375200D01*
X97383600Y-83616800D02*
X97383600Y-103352600D01*
X39573200Y-106375200D02*
X36245800Y-103047800D01*
X96224400Y-82457600D02*
X97383600Y-83616800D01*
X91109800Y-82457600D02*
X96224400Y-82457600D01*
X94361000Y-106375200D02*
X39573200Y-106375200D01*
X38604800Y-91640000D02*
X41000000Y-91640000D01*
X36245800Y-48844200D02*
X36245800Y-89281000D01*
X38760400Y-46329600D02*
X36245800Y-48844200D01*
X96901000Y-54406800D02*
X96901000Y-49072800D01*
X96901000Y-49072800D02*
X94157800Y-46329600D01*
X94157800Y-46329600D02*
X38760400Y-46329600D01*
X94310200Y-56997600D02*
X96901000Y-54406800D01*
X91109800Y-56997600D02*
X94310200Y-56997600D01*
X36245800Y-89281000D02*
X38604800Y-91640000D01*
%TO.N,Net-(J1-Pad14)*%
X87833200Y-83210400D02*
X89620400Y-84997600D01*
X89620400Y-84997600D02*
X91109800Y-84997600D01*
X87833200Y-60502800D02*
X87833200Y-83210400D01*
X88798400Y-59537600D02*
X87833200Y-60502800D01*
X91109800Y-59537600D02*
X88798400Y-59537600D01*
%TO.N,VCC*%
X84750600Y-58073600D02*
X84750600Y-87537600D01*
X91109800Y-54457600D02*
X88366600Y-54457600D01*
X79442000Y-87537600D02*
X84750600Y-87537600D01*
X88366600Y-54457600D02*
X84750600Y-58073600D01*
X84750600Y-87537600D02*
X91109800Y-87537600D01*
X70259600Y-96720000D02*
X79442000Y-87537600D01*
X66000000Y-96720000D02*
X70259600Y-96720000D01*
%TD*%
%TA.AperFunction,Conductor*%
%TO.N,Earth*%
G36*
X71070680Y-44323501D02*
G01*
X118949098Y-44474841D01*
X119017155Y-44495058D01*
X119063479Y-44548860D01*
X119074700Y-44600840D01*
X119074700Y-107874300D01*
X119054698Y-107942421D01*
X119001042Y-107988914D01*
X118948700Y-108000300D01*
X40565700Y-108000300D01*
X31087822Y-107975725D01*
X31019755Y-107955546D01*
X30973401Y-107901770D01*
X30962151Y-107850177D01*
X30961389Y-107637414D01*
X30944749Y-102994886D01*
X34983321Y-102994886D01*
X34983586Y-103000498D01*
X34987160Y-103076288D01*
X34987300Y-103082224D01*
X34987300Y-103104799D01*
X34987550Y-103107596D01*
X34989619Y-103130788D01*
X34989978Y-103136048D01*
X34993904Y-103219288D01*
X34995154Y-103224747D01*
X34995155Y-103224752D01*
X34997908Y-103236770D01*
X35000589Y-103253699D01*
X35002183Y-103271562D01*
X35003665Y-103276978D01*
X35003665Y-103276980D01*
X35024170Y-103351933D01*
X35025456Y-103357051D01*
X35044058Y-103438270D01*
X35048537Y-103448770D01*
X35051094Y-103454767D01*
X35056727Y-103470942D01*
X35058946Y-103479051D01*
X35061463Y-103488251D01*
X35063879Y-103493316D01*
X35097339Y-103563467D01*
X35099510Y-103568276D01*
X35112158Y-103597929D01*
X35132197Y-103644909D01*
X35142051Y-103659910D01*
X35150454Y-103674825D01*
X35158178Y-103691018D01*
X35161448Y-103695569D01*
X35161450Y-103695572D01*
X35173491Y-103712328D01*
X35205738Y-103757204D01*
X35206799Y-103758681D01*
X35209789Y-103763032D01*
X35252996Y-103828810D01*
X35253002Y-103828818D01*
X35255535Y-103832674D01*
X35274057Y-103853462D01*
X35282290Y-103863739D01*
X35289271Y-103873454D01*
X35338384Y-103921048D01*
X35366055Y-103947863D01*
X35367465Y-103949252D01*
X38618675Y-107200463D01*
X38629542Y-107212853D01*
X38643077Y-107230492D01*
X38669951Y-107254945D01*
X38703374Y-107285358D01*
X38707669Y-107289457D01*
X38723610Y-107305398D01*
X38743636Y-107322142D01*
X38747591Y-107325592D01*
X38809236Y-107381685D01*
X38813990Y-107384667D01*
X38824430Y-107391216D01*
X38838290Y-107401285D01*
X38852053Y-107412793D01*
X38856934Y-107415577D01*
X38924418Y-107454069D01*
X38928948Y-107456779D01*
X38999544Y-107501064D01*
X39004748Y-107503156D01*
X39016183Y-107507753D01*
X39031613Y-107515212D01*
X39042319Y-107521319D01*
X39042328Y-107521323D01*
X39047193Y-107524098D01*
X39125746Y-107551915D01*
X39130658Y-107553771D01*
X39207983Y-107584856D01*
X39213473Y-107585993D01*
X39225549Y-107588494D01*
X39242044Y-107593099D01*
X39258959Y-107599089D01*
X39341210Y-107612559D01*
X39346380Y-107613517D01*
X39374381Y-107619316D01*
X39411950Y-107627096D01*
X39427967Y-107630413D01*
X39432579Y-107630679D01*
X39432580Y-107630679D01*
X39455748Y-107632015D01*
X39468853Y-107633462D01*
X39475110Y-107634486D01*
X39475114Y-107634486D01*
X39480657Y-107635394D01*
X39486270Y-107635306D01*
X39486272Y-107635306D01*
X39587464Y-107633716D01*
X39589443Y-107633700D01*
X94269604Y-107633700D01*
X94286051Y-107634778D01*
X94302516Y-107636946D01*
X94302520Y-107636946D01*
X94308086Y-107637679D01*
X94389489Y-107633840D01*
X94395424Y-107633700D01*
X94417999Y-107633700D01*
X94443989Y-107631381D01*
X94449248Y-107631022D01*
X94532488Y-107627096D01*
X94537947Y-107625846D01*
X94537952Y-107625845D01*
X94549970Y-107623092D01*
X94566899Y-107620411D01*
X94584762Y-107618817D01*
X94590178Y-107617335D01*
X94590180Y-107617335D01*
X94665133Y-107596830D01*
X94670251Y-107595544D01*
X94746000Y-107578195D01*
X94746002Y-107578194D01*
X94751470Y-107576942D01*
X94761970Y-107572463D01*
X94767967Y-107569906D01*
X94784142Y-107564273D01*
X94796039Y-107561018D01*
X94796043Y-107561017D01*
X94801451Y-107559537D01*
X94871826Y-107525970D01*
X94876667Y-107523661D01*
X94881476Y-107521490D01*
X94952949Y-107491004D01*
X94952950Y-107491004D01*
X94958109Y-107488803D01*
X94973110Y-107478949D01*
X94988025Y-107470546D01*
X95004218Y-107462822D01*
X95008769Y-107459552D01*
X95008772Y-107459550D01*
X95041996Y-107435676D01*
X95071892Y-107414194D01*
X95076232Y-107411211D01*
X95142010Y-107368004D01*
X95142018Y-107367998D01*
X95145874Y-107365465D01*
X95166662Y-107346943D01*
X95176939Y-107338710D01*
X95186654Y-107331729D01*
X95261063Y-107254945D01*
X95262452Y-107253535D01*
X98208859Y-104307128D01*
X98221251Y-104296260D01*
X98234443Y-104286138D01*
X98234451Y-104286131D01*
X98238892Y-104282723D01*
X98293768Y-104222415D01*
X98297867Y-104218120D01*
X98313798Y-104202189D01*
X98330534Y-104182173D01*
X98333979Y-104178224D01*
X98386303Y-104120721D01*
X98386306Y-104120717D01*
X98390085Y-104116564D01*
X98399613Y-104101375D01*
X98409691Y-104087503D01*
X98417592Y-104078055D01*
X98417597Y-104078048D01*
X98421194Y-104073746D01*
X98462487Y-104001352D01*
X98465192Y-103996832D01*
X98506486Y-103931004D01*
X98506488Y-103931001D01*
X98509464Y-103926256D01*
X98516152Y-103909621D01*
X98523612Y-103894189D01*
X98529720Y-103883481D01*
X98529724Y-103883472D01*
X98532499Y-103878607D01*
X98534368Y-103873330D01*
X98534370Y-103873325D01*
X98560315Y-103800058D01*
X98562180Y-103795122D01*
X98591166Y-103723016D01*
X98593256Y-103717817D01*
X98596894Y-103700250D01*
X98601499Y-103683756D01*
X98607489Y-103666841D01*
X98620959Y-103584590D01*
X98621919Y-103579411D01*
X98623951Y-103569602D01*
X98638813Y-103497833D01*
X98639135Y-103492243D01*
X98640415Y-103470052D01*
X98641862Y-103456947D01*
X98642886Y-103450690D01*
X98642886Y-103450686D01*
X98643794Y-103445143D01*
X98642116Y-103338336D01*
X98642100Y-103336357D01*
X98642100Y-97664295D01*
X99747051Y-97664295D01*
X99747348Y-97669448D01*
X99747348Y-97669451D01*
X99752637Y-97761173D01*
X99759910Y-97887315D01*
X99761047Y-97892361D01*
X99761048Y-97892367D01*
X99777218Y-97964116D01*
X99809022Y-98105239D01*
X99893066Y-98312216D01*
X100009787Y-98502688D01*
X100156050Y-98671538D01*
X100327926Y-98814232D01*
X100520800Y-98926938D01*
X100525625Y-98928780D01*
X100525626Y-98928781D01*
X100598412Y-98956575D01*
X100729492Y-99006630D01*
X100734560Y-99007661D01*
X100734563Y-99007662D01*
X100841817Y-99029483D01*
X100948397Y-99051167D01*
X100953572Y-99051357D01*
X100953574Y-99051357D01*
X101166473Y-99059164D01*
X101166477Y-99059164D01*
X101171637Y-99059353D01*
X101176757Y-99058697D01*
X101176759Y-99058697D01*
X101388088Y-99031625D01*
X101388089Y-99031625D01*
X101393216Y-99030968D01*
X101398166Y-99029483D01*
X101602229Y-98968261D01*
X101602234Y-98968259D01*
X101607184Y-98966774D01*
X101807794Y-98868496D01*
X101989660Y-98738773D01*
X102147896Y-98581089D01*
X102207394Y-98498289D01*
X102275235Y-98403877D01*
X102278253Y-98399677D01*
X102377230Y-98199411D01*
X102428996Y-98029030D01*
X102440665Y-97990623D01*
X102440665Y-97990621D01*
X102442170Y-97985669D01*
X102471329Y-97764190D01*
X102471492Y-97757529D01*
X102472874Y-97700965D01*
X102472874Y-97700961D01*
X102472956Y-97697600D01*
X102454652Y-97474961D01*
X102400231Y-97258302D01*
X102311154Y-97053440D01*
X102271706Y-96992462D01*
X102192622Y-96870217D01*
X102192620Y-96870214D01*
X102189814Y-96865877D01*
X102039470Y-96700651D01*
X102035419Y-96697452D01*
X102035415Y-96697448D01*
X101868214Y-96565400D01*
X101868210Y-96565398D01*
X101864159Y-96562198D01*
X101822853Y-96539396D01*
X101772884Y-96488964D01*
X101758112Y-96419521D01*
X101783228Y-96353116D01*
X101810580Y-96326509D01*
X101874799Y-96280702D01*
X101989660Y-96198773D01*
X102147896Y-96041089D01*
X102207394Y-95958289D01*
X102275235Y-95863877D01*
X102278253Y-95859677D01*
X102345778Y-95723051D01*
X102374936Y-95664053D01*
X102374937Y-95664051D01*
X102377230Y-95659411D01*
X102442170Y-95445669D01*
X102471329Y-95224190D01*
X102472956Y-95157600D01*
X102454652Y-94934961D01*
X102400231Y-94718302D01*
X102311154Y-94513440D01*
X102271706Y-94452462D01*
X102192622Y-94330217D01*
X102192620Y-94330214D01*
X102189814Y-94325877D01*
X102039470Y-94160651D01*
X102035419Y-94157452D01*
X102035415Y-94157448D01*
X101868214Y-94025400D01*
X101868210Y-94025398D01*
X101864159Y-94022198D01*
X101822853Y-93999396D01*
X101772884Y-93948964D01*
X101758112Y-93879521D01*
X101783228Y-93813116D01*
X101810580Y-93786509D01*
X101874799Y-93740702D01*
X101989660Y-93658773D01*
X102147896Y-93501089D01*
X102207394Y-93418289D01*
X102275235Y-93323877D01*
X102278253Y-93319677D01*
X102345778Y-93183051D01*
X102374936Y-93124053D01*
X102374937Y-93124051D01*
X102377230Y-93119411D01*
X102442170Y-92905669D01*
X102471329Y-92684190D01*
X102471906Y-92660580D01*
X102472874Y-92620965D01*
X102472874Y-92620961D01*
X102472956Y-92617600D01*
X102454652Y-92394961D01*
X102400231Y-92178302D01*
X102311154Y-91973440D01*
X102271706Y-91912462D01*
X102192622Y-91790217D01*
X102192620Y-91790214D01*
X102189814Y-91785877D01*
X102039470Y-91620651D01*
X102035419Y-91617452D01*
X102035415Y-91617448D01*
X101868214Y-91485400D01*
X101868210Y-91485398D01*
X101864159Y-91482198D01*
X101822853Y-91459396D01*
X101772884Y-91408964D01*
X101758112Y-91339521D01*
X101783228Y-91273116D01*
X101810580Y-91246509D01*
X101874799Y-91200702D01*
X101989660Y-91118773D01*
X102147896Y-90961089D01*
X102207394Y-90878289D01*
X102275235Y-90783877D01*
X102278253Y-90779677D01*
X102345778Y-90643051D01*
X102374936Y-90584053D01*
X102374937Y-90584051D01*
X102377230Y-90579411D01*
X102442170Y-90365669D01*
X102471329Y-90144190D01*
X102472956Y-90077600D01*
X102454652Y-89854961D01*
X102400231Y-89638302D01*
X102311154Y-89433440D01*
X102230966Y-89309488D01*
X102192622Y-89250217D01*
X102192620Y-89250214D01*
X102189814Y-89245877D01*
X102039470Y-89080651D01*
X102035419Y-89077452D01*
X102035415Y-89077448D01*
X101868214Y-88945400D01*
X101868210Y-88945398D01*
X101864159Y-88942198D01*
X101822853Y-88919396D01*
X101772884Y-88868964D01*
X101758112Y-88799521D01*
X101783228Y-88733116D01*
X101810580Y-88706509D01*
X101874799Y-88660702D01*
X101989660Y-88578773D01*
X102147896Y-88421089D01*
X102207394Y-88338289D01*
X102275235Y-88243877D01*
X102278253Y-88239677D01*
X102345778Y-88103051D01*
X102374936Y-88044053D01*
X102374937Y-88044051D01*
X102377230Y-88039411D01*
X102442170Y-87825669D01*
X102471329Y-87604190D01*
X102472956Y-87537600D01*
X102454652Y-87314961D01*
X102400231Y-87098302D01*
X102311154Y-86893440D01*
X102222366Y-86756195D01*
X102192622Y-86710217D01*
X102192620Y-86710214D01*
X102189814Y-86705877D01*
X102039470Y-86540651D01*
X102035419Y-86537452D01*
X102035415Y-86537448D01*
X101868214Y-86405400D01*
X101868210Y-86405398D01*
X101864159Y-86402198D01*
X101822853Y-86379396D01*
X101772884Y-86328964D01*
X101758112Y-86259521D01*
X101783228Y-86193116D01*
X101810580Y-86166509D01*
X101874799Y-86120702D01*
X101989660Y-86038773D01*
X102001835Y-86026641D01*
X102117020Y-85911857D01*
X102147896Y-85881089D01*
X102168158Y-85852892D01*
X102275235Y-85703877D01*
X102278253Y-85699677D01*
X102345778Y-85563051D01*
X102374936Y-85504053D01*
X102374937Y-85504051D01*
X102377230Y-85499411D01*
X102432761Y-85316638D01*
X102440665Y-85290623D01*
X102440665Y-85290621D01*
X102442170Y-85285669D01*
X102471329Y-85064190D01*
X102472956Y-84997600D01*
X102454652Y-84774961D01*
X102400231Y-84558302D01*
X102311154Y-84353440D01*
X102271706Y-84292462D01*
X102192622Y-84170217D01*
X102192620Y-84170214D01*
X102189814Y-84165877D01*
X102039470Y-84000651D01*
X102035419Y-83997452D01*
X102035415Y-83997448D01*
X101868214Y-83865400D01*
X101868210Y-83865398D01*
X101864159Y-83862198D01*
X101822853Y-83839396D01*
X101772884Y-83788964D01*
X101758112Y-83719521D01*
X101783228Y-83653116D01*
X101810580Y-83626509D01*
X101874799Y-83580702D01*
X101989660Y-83498773D01*
X102147896Y-83341089D01*
X102182173Y-83293388D01*
X102275235Y-83163877D01*
X102278253Y-83159677D01*
X102303862Y-83107862D01*
X102374936Y-82964053D01*
X102374937Y-82964051D01*
X102377230Y-82959411D01*
X102422866Y-82809207D01*
X102440665Y-82750623D01*
X102440665Y-82750621D01*
X102442170Y-82745669D01*
X102471329Y-82524190D01*
X102472956Y-82457600D01*
X102454652Y-82234961D01*
X102400231Y-82018302D01*
X102311154Y-81813440D01*
X102259762Y-81734000D01*
X102192622Y-81630217D01*
X102192620Y-81630214D01*
X102189814Y-81625877D01*
X102186332Y-81622050D01*
X102042598Y-81464088D01*
X102011546Y-81400242D01*
X102019941Y-81329743D01*
X102065117Y-81274975D01*
X102091561Y-81261306D01*
X102194789Y-81222607D01*
X102206505Y-81218215D01*
X102323061Y-81130861D01*
X102410415Y-81014305D01*
X102461545Y-80877916D01*
X102468300Y-80815734D01*
X102468300Y-79019466D01*
X102461545Y-78957284D01*
X102410415Y-78820895D01*
X102323061Y-78704339D01*
X102206505Y-78616985D01*
X102070116Y-78565855D01*
X102007934Y-78559100D01*
X100211666Y-78559100D01*
X100149484Y-78565855D01*
X100013095Y-78616985D01*
X99896539Y-78704339D01*
X99809185Y-78820895D01*
X99758055Y-78957284D01*
X99751300Y-79019466D01*
X99751300Y-80815734D01*
X99758055Y-80877916D01*
X99809185Y-81014305D01*
X99896539Y-81130861D01*
X100013095Y-81218215D01*
X100021504Y-81221367D01*
X100021505Y-81221368D01*
X100130251Y-81262135D01*
X100187016Y-81304776D01*
X100211716Y-81371338D01*
X100196509Y-81440687D01*
X100177116Y-81467168D01*
X100050429Y-81599738D01*
X99924543Y-81784280D01*
X99908803Y-81818190D01*
X99832853Y-81981811D01*
X99830488Y-81986905D01*
X99770789Y-82202170D01*
X99747051Y-82424295D01*
X99747348Y-82429448D01*
X99747348Y-82429451D01*
X99752637Y-82521173D01*
X99759910Y-82647315D01*
X99761047Y-82652361D01*
X99761048Y-82652367D01*
X99780919Y-82740539D01*
X99809022Y-82865239D01*
X99893066Y-83072216D01*
X99909331Y-83098758D01*
X99984344Y-83221168D01*
X100009787Y-83262688D01*
X100156050Y-83431538D01*
X100327926Y-83574232D01*
X100398395Y-83615411D01*
X100401245Y-83617076D01*
X100449969Y-83668714D01*
X100463040Y-83738497D01*
X100436309Y-83804269D01*
X100395855Y-83837627D01*
X100383407Y-83844107D01*
X100379274Y-83847210D01*
X100379271Y-83847212D01*
X100208900Y-83975130D01*
X100204765Y-83978235D01*
X100050429Y-84139738D01*
X99924543Y-84324280D01*
X99908803Y-84358190D01*
X99832853Y-84521811D01*
X99830488Y-84526905D01*
X99770789Y-84742170D01*
X99747051Y-84964295D01*
X99747348Y-84969448D01*
X99747348Y-84969451D01*
X99752637Y-85061173D01*
X99759910Y-85187315D01*
X99761047Y-85192361D01*
X99761048Y-85192367D01*
X99780460Y-85278500D01*
X99809022Y-85405239D01*
X99893066Y-85612216D01*
X99895765Y-85616620D01*
X99966848Y-85732617D01*
X100009787Y-85802688D01*
X100156050Y-85971538D01*
X100327926Y-86114232D01*
X100383143Y-86146498D01*
X100401245Y-86157076D01*
X100449969Y-86208714D01*
X100463040Y-86278497D01*
X100436309Y-86344269D01*
X100395855Y-86377627D01*
X100383407Y-86384107D01*
X100379274Y-86387210D01*
X100379271Y-86387212D01*
X100226938Y-86501587D01*
X100204765Y-86518235D01*
X100191753Y-86531851D01*
X100070723Y-86658502D01*
X100050429Y-86679738D01*
X99924543Y-86864280D01*
X99908803Y-86898190D01*
X99832853Y-87061811D01*
X99830488Y-87066905D01*
X99770789Y-87282170D01*
X99747051Y-87504295D01*
X99747348Y-87509448D01*
X99747348Y-87509451D01*
X99752637Y-87601173D01*
X99759910Y-87727315D01*
X99761047Y-87732361D01*
X99761048Y-87732367D01*
X99780919Y-87820539D01*
X99809022Y-87945239D01*
X99893066Y-88152216D01*
X99895765Y-88156620D01*
X99966848Y-88272617D01*
X100009787Y-88342688D01*
X100156050Y-88511538D01*
X100327926Y-88654232D01*
X100398395Y-88695411D01*
X100401245Y-88697076D01*
X100449969Y-88748714D01*
X100463040Y-88818497D01*
X100436309Y-88884269D01*
X100395855Y-88917627D01*
X100383407Y-88924107D01*
X100379274Y-88927210D01*
X100379271Y-88927212D01*
X100355047Y-88945400D01*
X100204765Y-89058235D01*
X100191753Y-89071851D01*
X100063509Y-89206051D01*
X100050429Y-89219738D01*
X99924543Y-89404280D01*
X99908803Y-89438190D01*
X99832853Y-89601811D01*
X99830488Y-89606905D01*
X99770789Y-89822170D01*
X99747051Y-90044295D01*
X99747348Y-90049448D01*
X99747348Y-90049451D01*
X99752637Y-90141173D01*
X99759910Y-90267315D01*
X99761047Y-90272361D01*
X99761048Y-90272367D01*
X99777326Y-90344595D01*
X99809022Y-90485239D01*
X99893066Y-90692216D01*
X99895765Y-90696620D01*
X99966848Y-90812617D01*
X100009787Y-90882688D01*
X100156050Y-91051538D01*
X100327926Y-91194232D01*
X100398395Y-91235411D01*
X100401245Y-91237076D01*
X100449969Y-91288714D01*
X100463040Y-91358497D01*
X100436309Y-91424269D01*
X100395855Y-91457627D01*
X100383407Y-91464107D01*
X100379274Y-91467210D01*
X100379271Y-91467212D01*
X100355047Y-91485400D01*
X100204765Y-91598235D01*
X100050429Y-91759738D01*
X99924543Y-91944280D01*
X99908803Y-91978190D01*
X99832853Y-92141811D01*
X99830488Y-92146905D01*
X99770789Y-92362170D01*
X99747051Y-92584295D01*
X99747348Y-92589448D01*
X99747348Y-92589451D01*
X99752637Y-92681173D01*
X99759910Y-92807315D01*
X99761047Y-92812361D01*
X99761048Y-92812367D01*
X99775694Y-92877355D01*
X99809022Y-93025239D01*
X99893066Y-93232216D01*
X99895765Y-93236620D01*
X99966848Y-93352617D01*
X100009787Y-93422688D01*
X100156050Y-93591538D01*
X100327926Y-93734232D01*
X100398395Y-93775411D01*
X100401245Y-93777076D01*
X100449969Y-93828714D01*
X100463040Y-93898497D01*
X100436309Y-93964269D01*
X100395855Y-93997627D01*
X100383407Y-94004107D01*
X100379274Y-94007210D01*
X100379271Y-94007212D01*
X100355047Y-94025400D01*
X100204765Y-94138235D01*
X100050429Y-94299738D01*
X99924543Y-94484280D01*
X99908803Y-94518190D01*
X99832853Y-94681811D01*
X99830488Y-94686905D01*
X99770789Y-94902170D01*
X99747051Y-95124295D01*
X99747348Y-95129448D01*
X99747348Y-95129451D01*
X99752637Y-95221173D01*
X99759910Y-95347315D01*
X99761047Y-95352361D01*
X99761048Y-95352367D01*
X99777326Y-95424595D01*
X99809022Y-95565239D01*
X99893066Y-95772216D01*
X99895765Y-95776620D01*
X99966848Y-95892617D01*
X100009787Y-95962688D01*
X100156050Y-96131538D01*
X100327926Y-96274232D01*
X100398395Y-96315411D01*
X100401245Y-96317076D01*
X100449969Y-96368714D01*
X100463040Y-96438497D01*
X100436309Y-96504269D01*
X100395855Y-96537627D01*
X100383407Y-96544107D01*
X100379274Y-96547210D01*
X100379271Y-96547212D01*
X100355047Y-96565400D01*
X100204765Y-96678235D01*
X100050429Y-96839738D01*
X99924543Y-97024280D01*
X99908803Y-97058190D01*
X99832853Y-97221811D01*
X99830488Y-97226905D01*
X99770789Y-97442170D01*
X99747051Y-97664295D01*
X98642100Y-97664295D01*
X98642100Y-83708195D01*
X98643178Y-83691748D01*
X98645346Y-83675283D01*
X98645346Y-83675279D01*
X98646079Y-83669713D01*
X98642240Y-83588311D01*
X98642100Y-83582376D01*
X98642100Y-83559801D01*
X98639781Y-83533811D01*
X98639422Y-83528549D01*
X98635760Y-83450913D01*
X98635496Y-83445312D01*
X98634184Y-83439580D01*
X98631492Y-83427830D01*
X98628811Y-83410900D01*
X98627716Y-83398632D01*
X98627217Y-83393038D01*
X98625662Y-83387352D01*
X98605230Y-83312667D01*
X98603944Y-83307549D01*
X98586595Y-83231800D01*
X98586594Y-83231798D01*
X98585342Y-83226330D01*
X98578306Y-83209833D01*
X98572673Y-83193658D01*
X98569418Y-83181761D01*
X98569417Y-83181757D01*
X98567937Y-83176349D01*
X98536215Y-83109842D01*
X98532061Y-83101133D01*
X98529890Y-83096324D01*
X98499404Y-83024851D01*
X98499404Y-83024850D01*
X98497203Y-83019691D01*
X98487349Y-83004690D01*
X98478943Y-82989770D01*
X98473635Y-82978641D01*
X98471222Y-82973582D01*
X98467954Y-82969034D01*
X98467951Y-82969029D01*
X98422598Y-82905914D01*
X98419609Y-82901565D01*
X98373865Y-82831925D01*
X98355347Y-82811141D01*
X98347098Y-82800845D01*
X98343697Y-82796111D01*
X98340129Y-82791146D01*
X98263377Y-82716768D01*
X98261967Y-82715379D01*
X97178925Y-81632337D01*
X97168057Y-81619946D01*
X97157933Y-81606752D01*
X97154523Y-81602308D01*
X97094226Y-81547442D01*
X97089931Y-81543343D01*
X97073990Y-81527402D01*
X97071840Y-81525604D01*
X97053977Y-81510668D01*
X97050002Y-81507200D01*
X96992512Y-81454888D01*
X96992503Y-81454881D01*
X96988364Y-81451115D01*
X96973173Y-81441586D01*
X96959307Y-81431511D01*
X96949851Y-81423604D01*
X96949841Y-81423597D01*
X96945546Y-81420006D01*
X96873152Y-81378713D01*
X96868632Y-81376008D01*
X96861188Y-81371338D01*
X96842462Y-81359591D01*
X96802804Y-81334714D01*
X96802801Y-81334712D01*
X96798056Y-81331736D01*
X96792851Y-81329643D01*
X96792848Y-81329642D01*
X96781421Y-81325048D01*
X96765989Y-81317588D01*
X96755281Y-81311480D01*
X96755272Y-81311476D01*
X96750407Y-81308701D01*
X96745130Y-81306832D01*
X96745125Y-81306830D01*
X96671858Y-81280885D01*
X96666922Y-81279020D01*
X96594816Y-81250034D01*
X96589617Y-81247944D01*
X96584130Y-81246808D01*
X96584128Y-81246807D01*
X96572051Y-81244306D01*
X96555556Y-81239701D01*
X96538641Y-81233711D01*
X96456390Y-81220241D01*
X96451220Y-81219283D01*
X96369633Y-81202387D01*
X96365021Y-81202121D01*
X96365020Y-81202121D01*
X96341852Y-81200785D01*
X96328747Y-81199338D01*
X96322490Y-81198314D01*
X96322486Y-81198314D01*
X96316943Y-81197406D01*
X96311330Y-81197494D01*
X96311328Y-81197494D01*
X96210136Y-81199084D01*
X96208157Y-81199100D01*
X92519847Y-81199100D01*
X92451726Y-81179098D01*
X92405233Y-81125442D01*
X92395129Y-81055168D01*
X92409326Y-81012593D01*
X92413122Y-81005659D01*
X92458278Y-80885206D01*
X92461905Y-80869951D01*
X92467431Y-80819086D01*
X92467800Y-80812272D01*
X92467800Y-80189715D01*
X92463325Y-80174476D01*
X92461935Y-80173271D01*
X92454252Y-80171600D01*
X89769916Y-80171600D01*
X89754677Y-80176075D01*
X89753472Y-80177465D01*
X89751801Y-80185148D01*
X89751801Y-80812269D01*
X89752171Y-80819090D01*
X89757695Y-80869952D01*
X89761321Y-80885204D01*
X89806476Y-81005654D01*
X89815014Y-81021249D01*
X89891515Y-81123324D01*
X89904076Y-81135885D01*
X90006151Y-81212386D01*
X90021746Y-81220924D01*
X90130627Y-81261742D01*
X90187391Y-81304384D01*
X90212091Y-81370945D01*
X90196883Y-81440294D01*
X90177491Y-81466775D01*
X90054000Y-81596001D01*
X90050429Y-81599738D01*
X89924543Y-81784280D01*
X89908803Y-81818190D01*
X89832853Y-81981811D01*
X89830488Y-81986905D01*
X89770789Y-82202170D01*
X89747051Y-82424295D01*
X89747348Y-82429448D01*
X89747348Y-82429451D01*
X89752637Y-82521173D01*
X89759910Y-82647315D01*
X89761047Y-82652361D01*
X89761048Y-82652367D01*
X89780919Y-82740539D01*
X89809022Y-82865239D01*
X89893066Y-83072216D01*
X89909331Y-83098758D01*
X89998792Y-83244746D01*
X90017330Y-83313280D01*
X89995873Y-83380957D01*
X89941234Y-83426290D01*
X89870760Y-83434886D01*
X89802264Y-83399676D01*
X89128605Y-82726017D01*
X89094579Y-82663705D01*
X89091700Y-82636922D01*
X89091700Y-79645485D01*
X89751800Y-79645485D01*
X89756275Y-79660724D01*
X89757665Y-79661929D01*
X89765348Y-79663600D01*
X90837685Y-79663600D01*
X90852924Y-79659125D01*
X90854129Y-79657735D01*
X90855800Y-79650052D01*
X90855800Y-79645485D01*
X91363800Y-79645485D01*
X91368275Y-79660724D01*
X91369665Y-79661929D01*
X91377348Y-79663600D01*
X92449684Y-79663600D01*
X92464923Y-79659125D01*
X92466128Y-79657735D01*
X92467799Y-79650052D01*
X92467799Y-79022931D01*
X92467429Y-79016110D01*
X92461905Y-78965248D01*
X92458279Y-78949996D01*
X92413124Y-78829546D01*
X92404586Y-78813951D01*
X92328085Y-78711876D01*
X92315524Y-78699315D01*
X92213449Y-78622814D01*
X92197854Y-78614276D01*
X92077406Y-78569122D01*
X92062151Y-78565495D01*
X92011286Y-78559969D01*
X92004472Y-78559600D01*
X91381915Y-78559600D01*
X91366676Y-78564075D01*
X91365471Y-78565465D01*
X91363800Y-78573148D01*
X91363800Y-79645485D01*
X90855800Y-79645485D01*
X90855800Y-78577716D01*
X90851325Y-78562477D01*
X90849935Y-78561272D01*
X90842252Y-78559601D01*
X90215131Y-78559601D01*
X90208310Y-78559971D01*
X90157448Y-78565495D01*
X90142196Y-78569121D01*
X90021746Y-78614276D01*
X90006151Y-78622814D01*
X89904076Y-78699315D01*
X89891515Y-78711876D01*
X89815014Y-78813951D01*
X89806476Y-78829546D01*
X89761322Y-78949994D01*
X89757695Y-78965249D01*
X89752169Y-79016114D01*
X89751800Y-79022928D01*
X89751800Y-79645485D01*
X89091700Y-79645485D01*
X89091700Y-61076277D01*
X89111702Y-61008156D01*
X89128605Y-60987182D01*
X89282782Y-60833005D01*
X89345094Y-60798979D01*
X89371877Y-60796100D01*
X90176227Y-60796100D01*
X90244348Y-60816102D01*
X90290841Y-60869758D01*
X90300945Y-60940032D01*
X90271451Y-61004612D01*
X90251880Y-61022860D01*
X90204765Y-61058235D01*
X90050429Y-61219738D01*
X89924543Y-61404280D01*
X89877515Y-61505593D01*
X89848715Y-61567639D01*
X89830488Y-61606905D01*
X89770789Y-61822170D01*
X89747051Y-62044295D01*
X89747348Y-62049448D01*
X89747348Y-62049451D01*
X89752811Y-62144190D01*
X89759910Y-62267315D01*
X89761047Y-62272361D01*
X89761048Y-62272367D01*
X89771665Y-62319476D01*
X89809022Y-62485239D01*
X89847261Y-62579411D01*
X89890034Y-62684748D01*
X89893066Y-62692216D01*
X89895765Y-62696620D01*
X90003616Y-62872617D01*
X90009787Y-62882688D01*
X90156050Y-63051538D01*
X90327926Y-63194232D01*
X90396489Y-63234297D01*
X90401245Y-63237076D01*
X90449969Y-63288714D01*
X90463040Y-63358497D01*
X90436309Y-63424269D01*
X90395855Y-63457627D01*
X90383407Y-63464107D01*
X90379274Y-63467210D01*
X90379271Y-63467212D01*
X90358880Y-63482522D01*
X90204765Y-63598235D01*
X90050429Y-63759738D01*
X89924543Y-63944280D01*
X89877516Y-64045592D01*
X89846563Y-64112275D01*
X89830488Y-64146905D01*
X89770789Y-64362170D01*
X89747051Y-64584295D01*
X89747348Y-64589448D01*
X89747348Y-64589451D01*
X89752811Y-64684190D01*
X89759910Y-64807315D01*
X89761047Y-64812361D01*
X89761048Y-64812367D01*
X89776943Y-64882894D01*
X89809022Y-65025239D01*
X89893066Y-65232216D01*
X89895765Y-65236620D01*
X90003616Y-65412617D01*
X90009787Y-65422688D01*
X90156050Y-65591538D01*
X90327926Y-65734232D01*
X90396489Y-65774297D01*
X90401245Y-65777076D01*
X90449969Y-65828714D01*
X90463040Y-65898497D01*
X90436309Y-65964269D01*
X90395855Y-65997627D01*
X90383407Y-66004107D01*
X90379274Y-66007210D01*
X90379271Y-66007212D01*
X90358880Y-66022522D01*
X90204765Y-66138235D01*
X90050429Y-66299738D01*
X89924543Y-66484280D01*
X89877515Y-66585593D01*
X89848715Y-66647639D01*
X89830488Y-66686905D01*
X89770789Y-66902170D01*
X89747051Y-67124295D01*
X89747348Y-67129448D01*
X89747348Y-67129451D01*
X89752811Y-67224190D01*
X89759910Y-67347315D01*
X89761047Y-67352361D01*
X89761048Y-67352367D01*
X89771665Y-67399476D01*
X89809022Y-67565239D01*
X89893066Y-67772216D01*
X89895765Y-67776620D01*
X90003616Y-67952617D01*
X90009787Y-67962688D01*
X90156050Y-68131538D01*
X90327926Y-68274232D01*
X90396489Y-68314297D01*
X90401245Y-68317076D01*
X90449969Y-68368714D01*
X90463040Y-68438497D01*
X90436309Y-68504269D01*
X90395855Y-68537627D01*
X90383407Y-68544107D01*
X90379274Y-68547210D01*
X90379271Y-68547212D01*
X90358880Y-68562522D01*
X90204765Y-68678235D01*
X90050429Y-68839738D01*
X89924543Y-69024280D01*
X89877516Y-69125592D01*
X89848715Y-69187639D01*
X89830488Y-69226905D01*
X89770789Y-69442170D01*
X89747051Y-69664295D01*
X89747348Y-69669448D01*
X89747348Y-69669451D01*
X89752811Y-69764190D01*
X89759910Y-69887315D01*
X89761047Y-69892361D01*
X89761048Y-69892367D01*
X89771665Y-69939476D01*
X89809022Y-70105239D01*
X89893066Y-70312216D01*
X89895765Y-70316620D01*
X90003616Y-70492617D01*
X90009787Y-70502688D01*
X90156050Y-70671538D01*
X90327926Y-70814232D01*
X90520800Y-70926938D01*
X90729492Y-71006630D01*
X90734560Y-71007661D01*
X90734563Y-71007662D01*
X90841817Y-71029483D01*
X90948397Y-71051167D01*
X90953572Y-71051357D01*
X90953574Y-71051357D01*
X91166473Y-71059164D01*
X91166477Y-71059164D01*
X91171637Y-71059353D01*
X91176757Y-71058697D01*
X91176759Y-71058697D01*
X91388088Y-71031625D01*
X91388089Y-71031625D01*
X91393216Y-71030968D01*
X91398166Y-71029483D01*
X91602229Y-70968261D01*
X91602234Y-70968259D01*
X91607184Y-70966774D01*
X91807794Y-70868496D01*
X91989660Y-70738773D01*
X92147896Y-70581089D01*
X92207394Y-70498289D01*
X92275235Y-70403877D01*
X92278253Y-70399677D01*
X92327203Y-70300635D01*
X92374936Y-70204053D01*
X92374937Y-70204051D01*
X92377230Y-70199411D01*
X92442170Y-69985669D01*
X92471329Y-69764190D01*
X92471499Y-69757240D01*
X92472874Y-69700965D01*
X92472874Y-69700961D01*
X92472956Y-69697600D01*
X92454652Y-69474961D01*
X92400231Y-69258302D01*
X92311154Y-69053440D01*
X92189814Y-68865877D01*
X92039470Y-68700651D01*
X92035419Y-68697452D01*
X92035415Y-68697448D01*
X91868214Y-68565400D01*
X91868210Y-68565398D01*
X91864159Y-68562198D01*
X91822853Y-68539396D01*
X91772884Y-68488964D01*
X91758112Y-68419521D01*
X91783228Y-68353116D01*
X91810580Y-68326509D01*
X91854403Y-68295250D01*
X91989660Y-68198773D01*
X92147896Y-68041089D01*
X92207394Y-67958289D01*
X92275235Y-67863877D01*
X92278253Y-67859677D01*
X92327203Y-67760635D01*
X92374936Y-67664053D01*
X92374937Y-67664051D01*
X92377230Y-67659411D01*
X92442170Y-67445669D01*
X92471329Y-67224190D01*
X92471499Y-67217240D01*
X92472874Y-67160965D01*
X92472874Y-67160961D01*
X92472956Y-67157600D01*
X92454652Y-66934961D01*
X92400231Y-66718302D01*
X92311154Y-66513440D01*
X92189814Y-66325877D01*
X92039470Y-66160651D01*
X92035419Y-66157452D01*
X92035415Y-66157448D01*
X91868214Y-66025400D01*
X91868210Y-66025398D01*
X91864159Y-66022198D01*
X91822853Y-65999396D01*
X91772884Y-65948964D01*
X91758112Y-65879521D01*
X91783228Y-65813116D01*
X91810580Y-65786509D01*
X91854403Y-65755250D01*
X91989660Y-65658773D01*
X92147896Y-65501089D01*
X92207394Y-65418289D01*
X92275235Y-65323877D01*
X92278253Y-65319677D01*
X92327203Y-65220635D01*
X92374936Y-65124053D01*
X92374937Y-65124051D01*
X92377230Y-65119411D01*
X92442170Y-64905669D01*
X92471329Y-64684190D01*
X92471508Y-64676883D01*
X92472874Y-64620965D01*
X92472874Y-64620961D01*
X92472956Y-64617600D01*
X92454652Y-64394961D01*
X92400231Y-64178302D01*
X92311154Y-63973440D01*
X92189814Y-63785877D01*
X92039470Y-63620651D01*
X92035419Y-63617452D01*
X92035415Y-63617448D01*
X91868214Y-63485400D01*
X91868210Y-63485398D01*
X91864159Y-63482198D01*
X91822853Y-63459396D01*
X91772884Y-63408964D01*
X91758112Y-63339521D01*
X91783228Y-63273116D01*
X91810580Y-63246509D01*
X91854403Y-63215250D01*
X91989660Y-63118773D01*
X92147896Y-62961089D01*
X92207394Y-62878289D01*
X92275235Y-62783877D01*
X92278253Y-62779677D01*
X92314054Y-62707240D01*
X92374936Y-62584053D01*
X92374937Y-62584051D01*
X92377230Y-62579411D01*
X92442170Y-62365669D01*
X92471329Y-62144190D01*
X92471499Y-62137240D01*
X92472874Y-62080965D01*
X92472874Y-62080961D01*
X92472956Y-62077600D01*
X92454652Y-61854961D01*
X92400231Y-61638302D01*
X92311154Y-61433440D01*
X92189814Y-61245877D01*
X92039470Y-61080651D01*
X92035419Y-61077452D01*
X92035415Y-61077448D01*
X91868214Y-60945400D01*
X91868210Y-60945398D01*
X91864159Y-60942198D01*
X91822853Y-60919396D01*
X91772884Y-60868964D01*
X91758112Y-60799521D01*
X91783228Y-60733116D01*
X91810580Y-60706509D01*
X91854403Y-60675250D01*
X91989660Y-60578773D01*
X92050564Y-60518082D01*
X92144235Y-60424737D01*
X92147896Y-60421089D01*
X92159666Y-60404710D01*
X92275235Y-60243877D01*
X92278253Y-60239677D01*
X92300780Y-60194098D01*
X92374936Y-60044053D01*
X92374937Y-60044051D01*
X92377230Y-60039411D01*
X92425079Y-59881921D01*
X92440665Y-59830623D01*
X92440665Y-59830621D01*
X92442170Y-59825669D01*
X92471329Y-59604190D01*
X92471499Y-59597240D01*
X92472874Y-59540965D01*
X92472874Y-59540961D01*
X92472956Y-59537600D01*
X92454652Y-59314961D01*
X92400231Y-59098302D01*
X92311154Y-58893440D01*
X92189814Y-58705877D01*
X92039470Y-58540651D01*
X92035419Y-58537452D01*
X92035415Y-58537448D01*
X91963916Y-58480982D01*
X91922853Y-58423065D01*
X91919621Y-58352142D01*
X91955246Y-58290730D01*
X92018418Y-58258328D01*
X92042008Y-58256100D01*
X94218804Y-58256100D01*
X94235251Y-58257178D01*
X94251716Y-58259346D01*
X94251720Y-58259346D01*
X94257286Y-58260079D01*
X94338689Y-58256240D01*
X94344624Y-58256100D01*
X94367199Y-58256100D01*
X94393189Y-58253781D01*
X94398448Y-58253422D01*
X94481688Y-58249496D01*
X94487147Y-58248246D01*
X94487152Y-58248245D01*
X94499170Y-58245492D01*
X94516099Y-58242811D01*
X94533962Y-58241217D01*
X94539378Y-58239735D01*
X94539380Y-58239735D01*
X94614333Y-58219230D01*
X94619451Y-58217944D01*
X94695200Y-58200595D01*
X94695202Y-58200594D01*
X94700670Y-58199342D01*
X94711170Y-58194863D01*
X94717167Y-58192306D01*
X94733342Y-58186673D01*
X94745239Y-58183418D01*
X94745243Y-58183417D01*
X94750651Y-58181937D01*
X94783392Y-58166320D01*
X94825867Y-58146061D01*
X94830676Y-58143890D01*
X94902149Y-58113404D01*
X94902150Y-58113404D01*
X94907309Y-58111203D01*
X94922310Y-58101349D01*
X94937225Y-58092946D01*
X94953418Y-58085222D01*
X94957969Y-58081952D01*
X94957972Y-58081950D01*
X95021081Y-58036601D01*
X95025432Y-58033611D01*
X95091210Y-57990404D01*
X95091218Y-57990398D01*
X95095074Y-57987865D01*
X95115862Y-57969343D01*
X95126139Y-57961110D01*
X95135854Y-57954129D01*
X95210262Y-57877346D01*
X95211651Y-57875936D01*
X97726263Y-55361325D01*
X97738654Y-55350457D01*
X97751848Y-55340333D01*
X97756292Y-55336923D01*
X97811158Y-55276626D01*
X97815257Y-55272331D01*
X97831198Y-55256390D01*
X97847942Y-55236364D01*
X97851401Y-55232399D01*
X97864139Y-55218401D01*
X97907485Y-55170764D01*
X97917016Y-55155570D01*
X97927085Y-55141710D01*
X97938593Y-55127947D01*
X97979869Y-55055582D01*
X97982579Y-55051053D01*
X98023885Y-54985205D01*
X98026864Y-54980456D01*
X98033553Y-54963817D01*
X98041012Y-54948387D01*
X98047119Y-54937681D01*
X98047123Y-54937672D01*
X98049898Y-54932807D01*
X98077712Y-54854262D01*
X98079573Y-54849337D01*
X98098635Y-54801921D01*
X98110656Y-54772017D01*
X98114296Y-54754439D01*
X98118902Y-54737946D01*
X98124888Y-54721041D01*
X98126550Y-54710896D01*
X98138352Y-54638823D01*
X98139314Y-54633633D01*
X98149558Y-54584171D01*
X98156213Y-54552033D01*
X98157816Y-54524237D01*
X98159263Y-54511131D01*
X98160286Y-54504886D01*
X98160287Y-54504879D01*
X98161193Y-54499343D01*
X98160538Y-54457600D01*
X98159516Y-54392570D01*
X98159500Y-54390591D01*
X98159500Y-49164196D01*
X98160578Y-49147749D01*
X98162747Y-49131272D01*
X98163479Y-49125714D01*
X98159640Y-49044304D01*
X98159500Y-49038369D01*
X98159500Y-49015801D01*
X98159252Y-49013018D01*
X98159251Y-49013004D01*
X98157182Y-48989823D01*
X98156823Y-48984560D01*
X98153161Y-48906916D01*
X98152897Y-48901312D01*
X98148892Y-48883823D01*
X98146212Y-48866904D01*
X98145115Y-48854621D01*
X98144617Y-48849038D01*
X98143137Y-48843627D01*
X98122631Y-48768670D01*
X98121345Y-48763552D01*
X98103994Y-48687797D01*
X98102742Y-48682330D01*
X98095707Y-48665837D01*
X98090072Y-48649655D01*
X98086820Y-48637767D01*
X98086817Y-48637758D01*
X98085337Y-48632349D01*
X98082922Y-48627286D01*
X98082918Y-48627275D01*
X98049466Y-48557143D01*
X98047293Y-48552332D01*
X98027086Y-48504955D01*
X98014604Y-48475692D01*
X98004756Y-48460700D01*
X97996344Y-48445771D01*
X97988622Y-48429582D01*
X97939996Y-48361911D01*
X97937013Y-48357571D01*
X97893805Y-48291792D01*
X97893801Y-48291787D01*
X97891265Y-48287926D01*
X97872751Y-48267146D01*
X97864506Y-48256855D01*
X97860807Y-48251707D01*
X97860803Y-48251703D01*
X97857529Y-48247146D01*
X97780777Y-48172768D01*
X97779367Y-48171379D01*
X95112325Y-45504337D01*
X95101457Y-45491946D01*
X95091333Y-45478752D01*
X95087923Y-45474308D01*
X95027626Y-45419442D01*
X95023331Y-45415343D01*
X95007390Y-45399402D01*
X95005240Y-45397604D01*
X94987377Y-45382668D01*
X94983402Y-45379200D01*
X94925912Y-45326888D01*
X94925903Y-45326881D01*
X94921764Y-45323115D01*
X94906573Y-45313586D01*
X94892707Y-45303511D01*
X94883251Y-45295604D01*
X94883241Y-45295597D01*
X94878946Y-45292006D01*
X94806552Y-45250713D01*
X94802032Y-45248008D01*
X94792420Y-45241978D01*
X94751002Y-45215997D01*
X94736204Y-45206714D01*
X94736201Y-45206712D01*
X94731456Y-45203736D01*
X94726251Y-45201643D01*
X94726248Y-45201642D01*
X94714821Y-45197048D01*
X94699389Y-45189588D01*
X94688681Y-45183480D01*
X94688672Y-45183476D01*
X94683807Y-45180701D01*
X94678530Y-45178832D01*
X94678525Y-45178830D01*
X94605258Y-45152885D01*
X94600322Y-45151020D01*
X94528216Y-45122034D01*
X94523017Y-45119944D01*
X94517530Y-45118808D01*
X94517528Y-45118807D01*
X94505451Y-45116306D01*
X94488956Y-45111701D01*
X94472041Y-45105711D01*
X94389790Y-45092241D01*
X94384620Y-45091283D01*
X94325096Y-45078956D01*
X94307558Y-45075324D01*
X94307557Y-45075324D01*
X94303033Y-45074387D01*
X94298421Y-45074121D01*
X94298420Y-45074121D01*
X94275252Y-45072785D01*
X94262147Y-45071338D01*
X94255890Y-45070314D01*
X94255886Y-45070314D01*
X94250343Y-45069406D01*
X94244730Y-45069494D01*
X94244728Y-45069494D01*
X94143536Y-45071084D01*
X94141557Y-45071100D01*
X38851795Y-45071100D01*
X38835348Y-45070022D01*
X38818883Y-45067854D01*
X38818879Y-45067854D01*
X38813313Y-45067121D01*
X38731911Y-45070960D01*
X38725975Y-45071100D01*
X38703401Y-45071100D01*
X38679286Y-45073252D01*
X38677413Y-45073419D01*
X38672150Y-45073778D01*
X38659239Y-45074387D01*
X38588911Y-45077704D01*
X38583448Y-45078955D01*
X38583442Y-45078956D01*
X38571432Y-45081707D01*
X38554500Y-45084389D01*
X38536638Y-45085983D01*
X38531227Y-45087463D01*
X38531223Y-45087464D01*
X38484557Y-45100231D01*
X38456248Y-45107976D01*
X38451150Y-45109256D01*
X38369930Y-45127858D01*
X38364769Y-45130059D01*
X38364770Y-45130059D01*
X38353433Y-45134894D01*
X38337258Y-45140527D01*
X38325361Y-45143782D01*
X38325357Y-45143783D01*
X38319949Y-45145263D01*
X38314883Y-45147679D01*
X38314884Y-45147679D01*
X38244733Y-45181139D01*
X38239924Y-45183310D01*
X38168451Y-45213796D01*
X38163291Y-45215997D01*
X38148290Y-45225851D01*
X38133375Y-45234254D01*
X38117182Y-45241978D01*
X38112634Y-45245246D01*
X38112629Y-45245249D01*
X38049514Y-45290602D01*
X38045177Y-45293582D01*
X37975525Y-45339335D01*
X37954744Y-45357851D01*
X37944448Y-45366100D01*
X37934746Y-45373071D01*
X37907304Y-45401389D01*
X37860368Y-45449823D01*
X37858979Y-45451233D01*
X35420537Y-47889675D01*
X35408147Y-47900542D01*
X35390508Y-47914077D01*
X35335988Y-47973994D01*
X35335642Y-47974374D01*
X35331543Y-47978669D01*
X35315602Y-47994610D01*
X35313807Y-47996757D01*
X35313805Y-47996759D01*
X35298868Y-48014623D01*
X35295400Y-48018598D01*
X35243088Y-48076088D01*
X35243081Y-48076097D01*
X35239315Y-48080236D01*
X35236338Y-48084982D01*
X35236337Y-48084983D01*
X35229787Y-48095425D01*
X35219711Y-48109293D01*
X35211804Y-48118749D01*
X35211797Y-48118759D01*
X35208206Y-48123054D01*
X35180642Y-48171379D01*
X35166918Y-48195440D01*
X35164208Y-48199968D01*
X35125163Y-48262212D01*
X35119936Y-48270544D01*
X35117843Y-48275749D01*
X35117842Y-48275752D01*
X35113248Y-48287179D01*
X35105788Y-48302611D01*
X35099680Y-48313319D01*
X35099676Y-48313328D01*
X35096901Y-48318193D01*
X35095032Y-48323470D01*
X35095030Y-48323475D01*
X35069085Y-48396742D01*
X35067220Y-48401678D01*
X35036144Y-48478983D01*
X35035008Y-48484470D01*
X35035007Y-48484472D01*
X35032506Y-48496549D01*
X35027901Y-48513044D01*
X35021911Y-48529959D01*
X35021004Y-48535498D01*
X35008443Y-48612201D01*
X35007483Y-48617380D01*
X34990587Y-48698967D01*
X34990321Y-48703579D01*
X34990321Y-48703580D01*
X34988985Y-48726748D01*
X34987538Y-48739853D01*
X34986514Y-48746110D01*
X34985606Y-48751657D01*
X34985694Y-48757270D01*
X34985694Y-48757272D01*
X34987284Y-48858464D01*
X34987300Y-48860443D01*
X34987300Y-89189604D01*
X34986222Y-89206051D01*
X34983321Y-89228086D01*
X34986466Y-89294767D01*
X34987160Y-89309488D01*
X34987300Y-89315424D01*
X34987300Y-102956404D01*
X34986222Y-102972851D01*
X34983321Y-102994886D01*
X30944749Y-102994886D01*
X30912301Y-93941979D01*
X30912300Y-93941527D01*
X30912300Y-44449500D01*
X30932302Y-44381379D01*
X30985958Y-44334886D01*
X31038300Y-44323500D01*
X71070282Y-44323500D01*
X71070680Y-44323501D01*
G37*
%TD.AperFunction*%
%TA.AperFunction,Conductor*%
G36*
X93652444Y-47608102D02*
G01*
X93673418Y-47625005D01*
X95605595Y-49557183D01*
X95639621Y-49619495D01*
X95642500Y-49646278D01*
X95642500Y-53833322D01*
X95622498Y-53901443D01*
X95605595Y-53922417D01*
X93825817Y-55702195D01*
X93763505Y-55736221D01*
X93736722Y-55739100D01*
X92046358Y-55739100D01*
X91978237Y-55719098D01*
X91931744Y-55665442D01*
X91921640Y-55595168D01*
X91951134Y-55530588D01*
X91973189Y-55510522D01*
X91985454Y-55501774D01*
X91985461Y-55501768D01*
X91989660Y-55498773D01*
X92147896Y-55341089D01*
X92210310Y-55254231D01*
X92275235Y-55163877D01*
X92278253Y-55159677D01*
X92327203Y-55060635D01*
X92374936Y-54964053D01*
X92374937Y-54964051D01*
X92377230Y-54959411D01*
X92442170Y-54745669D01*
X92471329Y-54524190D01*
X92471499Y-54517240D01*
X92472874Y-54460965D01*
X92472874Y-54460961D01*
X92472956Y-54457600D01*
X92454652Y-54234961D01*
X92400231Y-54018302D01*
X92311154Y-53813440D01*
X92189814Y-53625877D01*
X92186340Y-53622059D01*
X92186333Y-53622050D01*
X92042235Y-53463688D01*
X92011183Y-53399842D01*
X92019579Y-53329344D01*
X92064756Y-53274576D01*
X92091200Y-53260907D01*
X92197852Y-53220925D01*
X92213449Y-53212386D01*
X92315524Y-53135885D01*
X92328085Y-53123324D01*
X92404586Y-53021249D01*
X92413124Y-53005654D01*
X92458278Y-52885206D01*
X92461905Y-52869951D01*
X92467431Y-52819086D01*
X92467800Y-52812272D01*
X92467800Y-52189715D01*
X92463325Y-52174476D01*
X92461935Y-52173271D01*
X92454252Y-52171600D01*
X89769916Y-52171600D01*
X89754677Y-52176075D01*
X89753472Y-52177465D01*
X89751801Y-52185148D01*
X89751801Y-52812269D01*
X89752171Y-52819090D01*
X89757695Y-52869952D01*
X89761321Y-52885204D01*
X89806478Y-53005659D01*
X89810274Y-53012593D01*
X89825442Y-53081950D01*
X89800704Y-53148498D01*
X89743916Y-53191107D01*
X89699753Y-53199100D01*
X88457995Y-53199100D01*
X88441548Y-53198022D01*
X88425083Y-53195854D01*
X88425079Y-53195854D01*
X88419513Y-53195121D01*
X88338112Y-53198960D01*
X88332176Y-53199100D01*
X88309601Y-53199100D01*
X88290581Y-53200797D01*
X88283611Y-53201419D01*
X88278349Y-53201778D01*
X88262168Y-53202541D01*
X88195112Y-53205704D01*
X88189653Y-53206954D01*
X88189648Y-53206955D01*
X88177630Y-53209708D01*
X88160701Y-53212389D01*
X88142838Y-53213983D01*
X88137422Y-53215465D01*
X88137420Y-53215465D01*
X88062467Y-53235970D01*
X88057349Y-53237256D01*
X87981600Y-53254605D01*
X87981598Y-53254606D01*
X87976130Y-53255858D01*
X87965630Y-53260337D01*
X87959633Y-53262894D01*
X87943458Y-53268527D01*
X87931561Y-53271782D01*
X87931557Y-53271783D01*
X87926149Y-53273263D01*
X87902443Y-53284570D01*
X87850933Y-53309139D01*
X87846124Y-53311310D01*
X87769491Y-53343997D01*
X87754490Y-53353851D01*
X87739575Y-53362254D01*
X87723382Y-53369978D01*
X87718834Y-53373246D01*
X87718829Y-53373249D01*
X87655714Y-53418602D01*
X87651377Y-53421582D01*
X87581725Y-53467335D01*
X87560944Y-53485851D01*
X87550648Y-53494100D01*
X87540946Y-53501071D01*
X87503221Y-53540000D01*
X87466568Y-53577823D01*
X87465179Y-53579233D01*
X83925337Y-57119075D01*
X83912947Y-57129942D01*
X83895308Y-57143477D01*
X83860121Y-57182147D01*
X83840442Y-57203774D01*
X83836343Y-57208069D01*
X83820402Y-57224010D01*
X83818607Y-57226157D01*
X83818605Y-57226159D01*
X83803668Y-57244023D01*
X83800200Y-57247998D01*
X83747888Y-57305488D01*
X83747881Y-57305497D01*
X83744115Y-57309636D01*
X83741138Y-57314382D01*
X83741137Y-57314383D01*
X83734587Y-57324825D01*
X83724511Y-57338693D01*
X83716604Y-57348149D01*
X83716597Y-57348159D01*
X83713006Y-57352454D01*
X83671718Y-57424840D01*
X83669013Y-57429359D01*
X83624736Y-57499944D01*
X83622643Y-57505149D01*
X83622642Y-57505152D01*
X83618048Y-57516579D01*
X83610588Y-57532011D01*
X83604480Y-57542719D01*
X83604476Y-57542728D01*
X83601701Y-57547593D01*
X83599832Y-57552870D01*
X83599830Y-57552875D01*
X83573885Y-57626142D01*
X83572020Y-57631078D01*
X83540944Y-57708383D01*
X83539808Y-57713870D01*
X83539807Y-57713872D01*
X83537306Y-57725949D01*
X83532701Y-57742444D01*
X83526711Y-57759359D01*
X83525804Y-57764898D01*
X83513243Y-57841601D01*
X83512283Y-57846780D01*
X83495387Y-57928367D01*
X83495121Y-57932979D01*
X83495121Y-57932980D01*
X83493785Y-57956148D01*
X83492338Y-57969253D01*
X83491424Y-57974840D01*
X83490406Y-57981057D01*
X83490494Y-57986670D01*
X83490494Y-57986672D01*
X83492084Y-58087864D01*
X83492100Y-58089843D01*
X83492100Y-86153100D01*
X83472098Y-86221221D01*
X83418442Y-86267714D01*
X83366100Y-86279100D01*
X79533396Y-86279100D01*
X79516949Y-86278022D01*
X79516270Y-86277933D01*
X79494914Y-86275121D01*
X79489314Y-86275385D01*
X79489313Y-86275385D01*
X79413504Y-86278960D01*
X79407569Y-86279100D01*
X79385001Y-86279100D01*
X79382218Y-86279348D01*
X79382204Y-86279349D01*
X79359023Y-86281418D01*
X79353760Y-86281777D01*
X79324342Y-86283164D01*
X79270512Y-86285703D01*
X79253023Y-86289708D01*
X79236104Y-86292388D01*
X79231618Y-86292789D01*
X79218238Y-86293983D01*
X79212830Y-86295462D01*
X79212827Y-86295463D01*
X79137870Y-86315969D01*
X79132752Y-86317255D01*
X79081630Y-86328964D01*
X79051530Y-86335858D01*
X79035037Y-86342893D01*
X79018855Y-86348528D01*
X79006967Y-86351780D01*
X79006958Y-86351783D01*
X79001549Y-86353263D01*
X78996486Y-86355678D01*
X78996475Y-86355682D01*
X78926343Y-86389134D01*
X78921542Y-86391302D01*
X78844892Y-86423996D01*
X78840204Y-86427075D01*
X78840203Y-86427076D01*
X78829900Y-86433844D01*
X78814971Y-86442256D01*
X78798782Y-86449978D01*
X78794226Y-86453252D01*
X78794224Y-86453253D01*
X78774453Y-86467460D01*
X78738477Y-86493312D01*
X78731122Y-86498597D01*
X78726771Y-86501587D01*
X78660992Y-86544795D01*
X78660987Y-86544799D01*
X78657126Y-86547335D01*
X78642911Y-86560000D01*
X78636346Y-86565849D01*
X78626055Y-86574094D01*
X78620907Y-86577793D01*
X78620903Y-86577797D01*
X78616346Y-86581071D01*
X78612439Y-86585103D01*
X78541968Y-86657823D01*
X78540579Y-86659233D01*
X69775217Y-95424595D01*
X69712905Y-95458621D01*
X69686122Y-95461500D01*
X66936558Y-95461500D01*
X66868437Y-95441498D01*
X66821944Y-95387842D01*
X66811840Y-95317568D01*
X66841334Y-95252988D01*
X66863389Y-95232922D01*
X66875654Y-95224174D01*
X66875661Y-95224168D01*
X66879860Y-95221173D01*
X67038096Y-95063489D01*
X67097594Y-94980689D01*
X67165435Y-94886277D01*
X67168453Y-94882077D01*
X67264913Y-94686905D01*
X67265136Y-94686453D01*
X67265137Y-94686451D01*
X67267430Y-94681811D01*
X67332370Y-94468069D01*
X67361529Y-94246590D01*
X67363156Y-94180000D01*
X67344852Y-93957361D01*
X67290431Y-93740702D01*
X67201354Y-93535840D01*
X67080014Y-93348277D01*
X66929670Y-93183051D01*
X66925619Y-93179852D01*
X66925615Y-93179848D01*
X66758414Y-93047800D01*
X66758410Y-93047798D01*
X66754359Y-93044598D01*
X66713053Y-93021796D01*
X66663084Y-92971364D01*
X66648312Y-92901921D01*
X66673428Y-92835516D01*
X66700780Y-92808909D01*
X66765302Y-92762886D01*
X66879860Y-92681173D01*
X66914670Y-92646485D01*
X67009337Y-92552148D01*
X67038096Y-92523489D01*
X67058358Y-92495292D01*
X67165435Y-92346277D01*
X67168453Y-92342077D01*
X67179717Y-92319287D01*
X67265136Y-92146453D01*
X67265137Y-92146451D01*
X67267430Y-92141811D01*
X67332370Y-91928069D01*
X67361529Y-91706590D01*
X67363156Y-91640000D01*
X67344852Y-91417361D01*
X67290431Y-91200702D01*
X67201354Y-90995840D01*
X67080014Y-90808277D01*
X66929670Y-90643051D01*
X66925619Y-90639852D01*
X66925615Y-90639848D01*
X66758414Y-90507800D01*
X66758410Y-90507798D01*
X66754359Y-90504598D01*
X66713053Y-90481796D01*
X66663084Y-90431364D01*
X66648312Y-90361921D01*
X66673428Y-90295516D01*
X66700780Y-90268909D01*
X66744603Y-90237650D01*
X66879860Y-90141173D01*
X67038096Y-89983489D01*
X67097594Y-89900689D01*
X67165435Y-89806277D01*
X67168453Y-89802077D01*
X67264913Y-89606905D01*
X67265136Y-89606453D01*
X67265137Y-89606451D01*
X67267430Y-89601811D01*
X67332370Y-89388069D01*
X67361529Y-89166590D01*
X67363156Y-89100000D01*
X67344852Y-88877361D01*
X67290431Y-88660702D01*
X67201354Y-88455840D01*
X67080014Y-88268277D01*
X66929670Y-88103051D01*
X66925619Y-88099852D01*
X66925615Y-88099848D01*
X66758414Y-87967800D01*
X66758410Y-87967798D01*
X66754359Y-87964598D01*
X66713053Y-87941796D01*
X66663084Y-87891364D01*
X66648312Y-87821921D01*
X66673428Y-87755516D01*
X66700780Y-87728909D01*
X66744603Y-87697650D01*
X66879860Y-87601173D01*
X67038096Y-87443489D01*
X67097594Y-87360689D01*
X67165435Y-87266277D01*
X67168453Y-87262077D01*
X67176351Y-87246098D01*
X67265136Y-87066453D01*
X67265137Y-87066451D01*
X67267430Y-87061811D01*
X67332370Y-86848069D01*
X67361529Y-86626590D01*
X67361988Y-86607801D01*
X67363074Y-86563365D01*
X67363074Y-86563361D01*
X67363156Y-86560000D01*
X67344852Y-86337361D01*
X67290431Y-86120702D01*
X67201354Y-85915840D01*
X67144986Y-85828708D01*
X67082822Y-85732617D01*
X67082820Y-85732614D01*
X67080014Y-85728277D01*
X66929670Y-85563051D01*
X66925619Y-85559852D01*
X66925615Y-85559848D01*
X66758414Y-85427800D01*
X66758410Y-85427798D01*
X66754359Y-85424598D01*
X66713053Y-85401796D01*
X66663084Y-85351364D01*
X66648312Y-85281921D01*
X66673428Y-85215516D01*
X66700780Y-85188909D01*
X66744603Y-85157650D01*
X66879860Y-85061173D01*
X67038096Y-84903489D01*
X67097594Y-84820689D01*
X67165435Y-84726277D01*
X67168453Y-84722077D01*
X67264913Y-84526905D01*
X67265136Y-84526453D01*
X67265137Y-84526451D01*
X67267430Y-84521811D01*
X67332370Y-84308069D01*
X67361529Y-84086590D01*
X67362448Y-84048972D01*
X67363074Y-84023365D01*
X67363074Y-84023361D01*
X67363156Y-84020000D01*
X67344852Y-83797361D01*
X67290431Y-83580702D01*
X67201354Y-83375840D01*
X67116596Y-83244824D01*
X67082822Y-83192617D01*
X67082820Y-83192614D01*
X67080014Y-83188277D01*
X66929670Y-83023051D01*
X66925619Y-83019852D01*
X66925615Y-83019848D01*
X66758414Y-82887800D01*
X66758410Y-82887798D01*
X66754359Y-82884598D01*
X66713053Y-82861796D01*
X66663084Y-82811364D01*
X66648312Y-82741921D01*
X66673428Y-82675516D01*
X66700780Y-82648909D01*
X66744718Y-82617568D01*
X66879860Y-82521173D01*
X67038096Y-82363489D01*
X67097594Y-82280689D01*
X67165435Y-82186277D01*
X67168453Y-82182077D01*
X67264913Y-81986905D01*
X67265136Y-81986453D01*
X67265137Y-81986451D01*
X67267430Y-81981811D01*
X67332370Y-81768069D01*
X67361529Y-81546590D01*
X67362448Y-81508972D01*
X67363074Y-81483365D01*
X67363074Y-81483361D01*
X67363156Y-81480000D01*
X67344852Y-81257361D01*
X67290431Y-81040702D01*
X67201354Y-80835840D01*
X67080014Y-80648277D01*
X66929670Y-80483051D01*
X66925619Y-80479852D01*
X66925615Y-80479848D01*
X66758414Y-80347800D01*
X66758410Y-80347798D01*
X66754359Y-80344598D01*
X66713053Y-80321796D01*
X66663084Y-80271364D01*
X66648312Y-80201921D01*
X66673428Y-80135516D01*
X66700780Y-80108909D01*
X66744603Y-80077650D01*
X66879860Y-79981173D01*
X67038096Y-79823489D01*
X67097594Y-79740689D01*
X67165435Y-79646277D01*
X67168453Y-79642077D01*
X67267430Y-79441811D01*
X67332370Y-79228069D01*
X67361529Y-79006590D01*
X67362912Y-78949994D01*
X67363074Y-78943365D01*
X67363074Y-78943361D01*
X67363156Y-78940000D01*
X67344852Y-78717361D01*
X67290431Y-78500702D01*
X67201354Y-78295840D01*
X67080014Y-78108277D01*
X66929670Y-77943051D01*
X66925619Y-77939852D01*
X66925615Y-77939848D01*
X66758414Y-77807800D01*
X66758410Y-77807798D01*
X66754359Y-77804598D01*
X66713053Y-77781796D01*
X66663084Y-77731364D01*
X66648312Y-77661921D01*
X66673428Y-77595516D01*
X66700780Y-77568909D01*
X66744603Y-77537650D01*
X66879860Y-77441173D01*
X67038096Y-77283489D01*
X67097594Y-77200689D01*
X67165435Y-77106277D01*
X67168453Y-77102077D01*
X67267430Y-76901811D01*
X67332370Y-76688069D01*
X67361529Y-76466590D01*
X67363156Y-76400000D01*
X67344852Y-76177361D01*
X67290431Y-75960702D01*
X67201354Y-75755840D01*
X67080014Y-75568277D01*
X66929670Y-75403051D01*
X66925619Y-75399852D01*
X66925615Y-75399848D01*
X66854116Y-75343382D01*
X66813053Y-75285465D01*
X66809821Y-75214542D01*
X66845446Y-75153130D01*
X66908618Y-75120728D01*
X66932208Y-75118500D01*
X70750992Y-75118500D01*
X70819113Y-75138502D01*
X70865606Y-75192158D01*
X70868966Y-75200252D01*
X70873185Y-75211505D01*
X70878565Y-75218684D01*
X70878567Y-75218687D01*
X70911107Y-75262104D01*
X70960539Y-75328061D01*
X71077095Y-75415415D01*
X71213484Y-75466545D01*
X71275666Y-75473300D01*
X73371934Y-75473300D01*
X73434116Y-75466545D01*
X73570505Y-75415415D01*
X73687061Y-75328061D01*
X73774415Y-75211505D01*
X73779676Y-75197470D01*
X79055960Y-75197470D01*
X79061687Y-75205120D01*
X79232842Y-75310005D01*
X79241637Y-75314487D01*
X79451788Y-75401534D01*
X79461173Y-75404583D01*
X79682354Y-75457685D01*
X79692101Y-75459228D01*
X79918870Y-75477075D01*
X79928730Y-75477075D01*
X80155499Y-75459228D01*
X80165246Y-75457685D01*
X80386427Y-75404583D01*
X80395812Y-75401534D01*
X80605963Y-75314487D01*
X80614758Y-75310005D01*
X80782245Y-75207368D01*
X80791707Y-75196910D01*
X80787924Y-75188134D01*
X79936612Y-74336822D01*
X79922668Y-74329208D01*
X79920835Y-74329339D01*
X79914220Y-74333590D01*
X79062720Y-75185090D01*
X79055960Y-75197470D01*
X73779676Y-75197470D01*
X73825545Y-75075116D01*
X73832300Y-75012934D01*
X73832300Y-73969730D01*
X78411525Y-73969730D01*
X78429372Y-74196499D01*
X78430915Y-74206246D01*
X78484017Y-74427427D01*
X78487066Y-74436812D01*
X78574113Y-74646963D01*
X78578595Y-74655758D01*
X78681232Y-74823245D01*
X78691690Y-74832707D01*
X78700466Y-74828924D01*
X79551778Y-73977612D01*
X79558156Y-73965932D01*
X80288208Y-73965932D01*
X80288339Y-73967765D01*
X80292590Y-73974380D01*
X81144090Y-74825880D01*
X81156470Y-74832640D01*
X81164120Y-74826913D01*
X81269005Y-74655758D01*
X81273487Y-74646963D01*
X81360534Y-74436812D01*
X81363583Y-74427427D01*
X81416685Y-74206246D01*
X81418228Y-74196499D01*
X81436075Y-73969730D01*
X81436075Y-73959870D01*
X81418228Y-73733101D01*
X81416685Y-73723354D01*
X81363583Y-73502173D01*
X81360534Y-73492788D01*
X81273487Y-73282637D01*
X81269005Y-73273842D01*
X81166368Y-73106355D01*
X81155910Y-73096893D01*
X81147134Y-73100676D01*
X80295822Y-73951988D01*
X80288208Y-73965932D01*
X79558156Y-73965932D01*
X79559392Y-73963668D01*
X79559261Y-73961835D01*
X79555010Y-73955220D01*
X78703510Y-73103720D01*
X78691130Y-73096960D01*
X78683480Y-73102687D01*
X78578595Y-73273842D01*
X78574113Y-73282637D01*
X78487066Y-73492788D01*
X78484017Y-73502173D01*
X78430915Y-73723354D01*
X78429372Y-73733101D01*
X78411525Y-73959870D01*
X78411525Y-73969730D01*
X73832300Y-73969730D01*
X73832300Y-72916666D01*
X73825545Y-72854484D01*
X73779886Y-72732690D01*
X79055893Y-72732690D01*
X79059676Y-72741466D01*
X79910988Y-73592778D01*
X79924932Y-73600392D01*
X79926765Y-73600261D01*
X79933380Y-73596010D01*
X80784880Y-72744510D01*
X80791640Y-72732130D01*
X80785913Y-72724480D01*
X80614758Y-72619595D01*
X80605963Y-72615113D01*
X80395812Y-72528066D01*
X80386427Y-72525017D01*
X80165246Y-72471915D01*
X80155499Y-72470372D01*
X79928730Y-72452525D01*
X79918870Y-72452525D01*
X79692101Y-72470372D01*
X79682354Y-72471915D01*
X79461173Y-72525017D01*
X79451788Y-72528066D01*
X79241637Y-72615113D01*
X79232842Y-72619595D01*
X79065355Y-72722232D01*
X79055893Y-72732690D01*
X73779886Y-72732690D01*
X73774415Y-72718095D01*
X73687061Y-72601539D01*
X73570505Y-72514185D01*
X73434116Y-72463055D01*
X73371934Y-72456300D01*
X71275666Y-72456300D01*
X71213484Y-72463055D01*
X71077095Y-72514185D01*
X71062642Y-72525017D01*
X70994181Y-72576326D01*
X70927675Y-72601174D01*
X70918616Y-72601500D01*
X66936558Y-72601500D01*
X66868437Y-72581498D01*
X66821944Y-72527842D01*
X66811840Y-72457568D01*
X66841334Y-72392988D01*
X66863389Y-72372922D01*
X66875654Y-72364174D01*
X66875661Y-72364168D01*
X66879860Y-72361173D01*
X67038096Y-72203489D01*
X67097594Y-72120689D01*
X67165435Y-72026277D01*
X67168453Y-72022077D01*
X67267430Y-71821811D01*
X67332370Y-71608069D01*
X67361529Y-71386590D01*
X67363156Y-71320000D01*
X67344852Y-71097361D01*
X67290431Y-70880702D01*
X67201354Y-70675840D01*
X67137342Y-70576892D01*
X67082822Y-70492617D01*
X67082820Y-70492614D01*
X67080014Y-70488277D01*
X66929670Y-70323051D01*
X66925619Y-70319852D01*
X66925615Y-70319848D01*
X66758414Y-70187800D01*
X66758410Y-70187798D01*
X66754359Y-70184598D01*
X66713053Y-70161796D01*
X66663084Y-70111364D01*
X66648312Y-70041921D01*
X66673428Y-69975516D01*
X66700780Y-69948909D01*
X66744603Y-69917650D01*
X66879860Y-69821173D01*
X66937043Y-69764190D01*
X67000489Y-69700965D01*
X67038096Y-69663489D01*
X67097594Y-69580689D01*
X67165435Y-69486277D01*
X67168453Y-69482077D01*
X67174451Y-69469942D01*
X67265136Y-69286453D01*
X67265137Y-69286451D01*
X67267430Y-69281811D01*
X67332370Y-69068069D01*
X67361529Y-68846590D01*
X67361611Y-68843240D01*
X67363074Y-68783365D01*
X67363074Y-68783361D01*
X67363156Y-68780000D01*
X67344852Y-68557361D01*
X67290431Y-68340702D01*
X67201354Y-68135840D01*
X67137342Y-68036892D01*
X67082822Y-67952617D01*
X67082820Y-67952614D01*
X67080014Y-67948277D01*
X66929670Y-67783051D01*
X66925619Y-67779852D01*
X66925615Y-67779848D01*
X66758414Y-67647800D01*
X66758410Y-67647798D01*
X66754359Y-67644598D01*
X66713053Y-67621796D01*
X66663084Y-67571364D01*
X66648312Y-67501921D01*
X66673428Y-67435516D01*
X66700780Y-67408909D01*
X66744603Y-67377650D01*
X66879860Y-67281173D01*
X66937043Y-67224190D01*
X67000489Y-67160965D01*
X67038096Y-67123489D01*
X67097594Y-67040689D01*
X67165435Y-66946277D01*
X67168453Y-66942077D01*
X67174451Y-66929942D01*
X67265136Y-66746453D01*
X67265137Y-66746451D01*
X67267430Y-66741811D01*
X67332370Y-66528069D01*
X67361529Y-66306590D01*
X67361611Y-66303240D01*
X67363074Y-66243365D01*
X67363074Y-66243361D01*
X67363156Y-66240000D01*
X67344852Y-66017361D01*
X67290431Y-65800702D01*
X67201354Y-65595840D01*
X67137342Y-65496892D01*
X67082822Y-65412617D01*
X67082820Y-65412614D01*
X67080014Y-65408277D01*
X66929670Y-65243051D01*
X66925619Y-65239852D01*
X66925615Y-65239848D01*
X66758414Y-65107800D01*
X66758410Y-65107798D01*
X66754359Y-65104598D01*
X66712569Y-65081529D01*
X66662598Y-65031097D01*
X66647826Y-64961654D01*
X66672942Y-64895248D01*
X66700294Y-64868641D01*
X66875328Y-64743792D01*
X66883200Y-64737139D01*
X67034052Y-64586812D01*
X67040730Y-64578965D01*
X67165003Y-64406020D01*
X67170313Y-64397183D01*
X67264670Y-64206267D01*
X67268469Y-64196672D01*
X67330377Y-63992910D01*
X67332555Y-63982837D01*
X67333986Y-63971962D01*
X67331775Y-63957778D01*
X67318617Y-63954000D01*
X64683225Y-63954000D01*
X64669694Y-63957973D01*
X64668257Y-63967966D01*
X64698565Y-64102446D01*
X64701645Y-64112275D01*
X64781770Y-64309603D01*
X64786413Y-64318794D01*
X64897694Y-64500388D01*
X64903777Y-64508699D01*
X65043213Y-64669667D01*
X65050580Y-64676883D01*
X65214434Y-64812916D01*
X65222881Y-64818831D01*
X65291969Y-64859203D01*
X65340693Y-64910842D01*
X65353764Y-64980625D01*
X65327033Y-65046396D01*
X65286584Y-65079752D01*
X65273607Y-65086507D01*
X65269474Y-65089610D01*
X65269471Y-65089612D01*
X65223600Y-65124053D01*
X65094965Y-65220635D01*
X65083898Y-65232216D01*
X64996305Y-65323877D01*
X64940629Y-65382138D01*
X64814743Y-65566680D01*
X64720688Y-65769305D01*
X64660989Y-65984570D01*
X64637251Y-66206695D01*
X64637548Y-66211848D01*
X64637548Y-66211851D01*
X64644123Y-66325877D01*
X64650110Y-66429715D01*
X64651247Y-66434761D01*
X64651248Y-66434767D01*
X64670049Y-66518190D01*
X64699222Y-66647639D01*
X64783266Y-66854616D01*
X64899987Y-67045088D01*
X65046250Y-67213938D01*
X65218126Y-67356632D01*
X65288595Y-67397811D01*
X65291445Y-67399476D01*
X65340169Y-67451114D01*
X65353240Y-67520897D01*
X65326509Y-67586669D01*
X65286055Y-67620027D01*
X65273607Y-67626507D01*
X65269474Y-67629610D01*
X65269471Y-67629612D01*
X65223600Y-67664053D01*
X65094965Y-67760635D01*
X65083898Y-67772216D01*
X64996305Y-67863877D01*
X64940629Y-67922138D01*
X64814743Y-68106680D01*
X64720688Y-68309305D01*
X64660989Y-68524570D01*
X64637251Y-68746695D01*
X64637548Y-68751848D01*
X64637548Y-68751851D01*
X64644123Y-68865877D01*
X64650110Y-68969715D01*
X64651247Y-68974761D01*
X64651248Y-68974767D01*
X64670049Y-69058190D01*
X64699222Y-69187639D01*
X64783266Y-69394616D01*
X64899987Y-69585088D01*
X65046250Y-69753938D01*
X65218126Y-69896632D01*
X65288595Y-69937811D01*
X65291445Y-69939476D01*
X65340169Y-69991114D01*
X65353240Y-70060897D01*
X65326509Y-70126669D01*
X65286055Y-70160027D01*
X65273607Y-70166507D01*
X65269474Y-70169610D01*
X65269471Y-70169612D01*
X65223600Y-70204053D01*
X65094965Y-70300635D01*
X65083898Y-70312216D01*
X64996305Y-70403877D01*
X64940629Y-70462138D01*
X64814743Y-70646680D01*
X64720688Y-70849305D01*
X64660989Y-71064570D01*
X64637251Y-71286695D01*
X64637548Y-71291848D01*
X64637548Y-71291851D01*
X64643011Y-71386590D01*
X64650110Y-71509715D01*
X64651247Y-71514761D01*
X64651248Y-71514767D01*
X64671119Y-71602939D01*
X64699222Y-71727639D01*
X64783266Y-71934616D01*
X64899987Y-72125088D01*
X65046250Y-72293938D01*
X65218126Y-72436632D01*
X65253954Y-72457568D01*
X65291445Y-72479476D01*
X65340169Y-72531114D01*
X65353240Y-72600897D01*
X65326509Y-72666669D01*
X65286055Y-72700027D01*
X65273607Y-72706507D01*
X65269474Y-72709610D01*
X65269471Y-72709612D01*
X65099100Y-72837530D01*
X65094965Y-72840635D01*
X64940629Y-73002138D01*
X64937715Y-73006410D01*
X64937714Y-73006411D01*
X64875946Y-73096960D01*
X64814743Y-73186680D01*
X64720688Y-73389305D01*
X64660989Y-73604570D01*
X64637251Y-73826695D01*
X64637548Y-73831848D01*
X64637548Y-73831851D01*
X64644930Y-73959870D01*
X64650110Y-74049715D01*
X64651247Y-74054761D01*
X64651248Y-74054767D01*
X64671119Y-74142939D01*
X64699222Y-74267639D01*
X64737461Y-74361811D01*
X64767916Y-74436812D01*
X64783266Y-74474616D01*
X64785965Y-74479020D01*
X64894270Y-74655758D01*
X64899987Y-74665088D01*
X65046250Y-74833938D01*
X65218126Y-74976632D01*
X65274402Y-75009517D01*
X65291445Y-75019476D01*
X65340169Y-75071114D01*
X65353240Y-75140897D01*
X65326509Y-75206669D01*
X65286055Y-75240027D01*
X65273607Y-75246507D01*
X65269474Y-75249610D01*
X65269471Y-75249612D01*
X65164987Y-75328061D01*
X65094965Y-75380635D01*
X64940629Y-75542138D01*
X64814743Y-75726680D01*
X64720688Y-75929305D01*
X64660989Y-76144570D01*
X64637251Y-76366695D01*
X64637548Y-76371848D01*
X64637548Y-76371851D01*
X64643011Y-76466590D01*
X64650110Y-76589715D01*
X64651247Y-76594761D01*
X64651248Y-76594767D01*
X64671119Y-76682939D01*
X64699222Y-76807639D01*
X64783266Y-77014616D01*
X64899987Y-77205088D01*
X65046250Y-77373938D01*
X65218126Y-77516632D01*
X65288595Y-77557811D01*
X65291445Y-77559476D01*
X65340169Y-77611114D01*
X65353240Y-77680897D01*
X65326509Y-77746669D01*
X65286055Y-77780027D01*
X65273607Y-77786507D01*
X65269474Y-77789610D01*
X65269471Y-77789612D01*
X65245247Y-77807800D01*
X65094965Y-77920635D01*
X64940629Y-78082138D01*
X64814743Y-78266680D01*
X64720688Y-78469305D01*
X64660989Y-78684570D01*
X64637251Y-78906695D01*
X64637548Y-78911848D01*
X64637548Y-78911851D01*
X64643011Y-79006590D01*
X64650110Y-79129715D01*
X64651247Y-79134761D01*
X64651248Y-79134767D01*
X64671119Y-79222939D01*
X64699222Y-79347639D01*
X64783266Y-79554616D01*
X64899987Y-79745088D01*
X65046250Y-79913938D01*
X65218126Y-80056632D01*
X65288595Y-80097811D01*
X65291445Y-80099476D01*
X65340169Y-80151114D01*
X65353240Y-80220897D01*
X65326509Y-80286669D01*
X65286055Y-80320027D01*
X65273607Y-80326507D01*
X65269474Y-80329610D01*
X65269471Y-80329612D01*
X65245247Y-80347800D01*
X65094965Y-80460635D01*
X64940629Y-80622138D01*
X64937715Y-80626410D01*
X64937714Y-80626411D01*
X64925404Y-80644457D01*
X64814743Y-80806680D01*
X64720688Y-81009305D01*
X64660989Y-81224570D01*
X64637251Y-81446695D01*
X64637548Y-81451848D01*
X64637548Y-81451851D01*
X64642946Y-81545462D01*
X64650110Y-81669715D01*
X64651247Y-81674761D01*
X64651248Y-81674767D01*
X64664597Y-81734000D01*
X64699222Y-81887639D01*
X64783266Y-82094616D01*
X64785965Y-82099020D01*
X64866194Y-82229942D01*
X64899987Y-82285088D01*
X65046250Y-82453938D01*
X65218126Y-82596632D01*
X65253954Y-82617568D01*
X65291445Y-82639476D01*
X65340169Y-82691114D01*
X65353240Y-82760897D01*
X65326509Y-82826669D01*
X65286055Y-82860027D01*
X65273607Y-82866507D01*
X65269474Y-82869610D01*
X65269471Y-82869612D01*
X65099111Y-82997522D01*
X65094965Y-83000635D01*
X65082657Y-83013515D01*
X64945075Y-83157486D01*
X64940629Y-83162138D01*
X64937715Y-83166410D01*
X64937714Y-83166411D01*
X64918391Y-83194737D01*
X64814743Y-83346680D01*
X64790628Y-83398632D01*
X64729102Y-83531179D01*
X64720688Y-83549305D01*
X64660989Y-83764570D01*
X64637251Y-83986695D01*
X64637548Y-83991848D01*
X64637548Y-83991851D01*
X64642946Y-84085462D01*
X64650110Y-84209715D01*
X64651247Y-84214761D01*
X64651248Y-84214767D01*
X64671119Y-84302939D01*
X64699222Y-84427639D01*
X64783266Y-84634616D01*
X64785965Y-84639020D01*
X64866194Y-84769942D01*
X64899987Y-84825088D01*
X65046250Y-84993938D01*
X65218126Y-85136632D01*
X65288595Y-85177811D01*
X65291445Y-85179476D01*
X65340169Y-85231114D01*
X65353240Y-85300897D01*
X65326509Y-85366669D01*
X65286055Y-85400027D01*
X65273607Y-85406507D01*
X65269474Y-85409610D01*
X65269471Y-85409612D01*
X65099100Y-85537530D01*
X65094965Y-85540635D01*
X64940629Y-85702138D01*
X64814743Y-85886680D01*
X64783532Y-85953919D01*
X64726037Y-86077782D01*
X64720688Y-86089305D01*
X64660989Y-86304570D01*
X64637251Y-86526695D01*
X64637548Y-86531848D01*
X64637548Y-86531851D01*
X64643011Y-86626590D01*
X64650110Y-86749715D01*
X64651247Y-86754761D01*
X64651248Y-86754767D01*
X64651570Y-86756195D01*
X64699222Y-86967639D01*
X64783266Y-87174616D01*
X64807285Y-87213812D01*
X64866194Y-87309942D01*
X64899987Y-87365088D01*
X65046250Y-87533938D01*
X65218126Y-87676632D01*
X65288595Y-87717811D01*
X65291445Y-87719476D01*
X65340169Y-87771114D01*
X65353240Y-87840897D01*
X65326509Y-87906669D01*
X65286055Y-87940027D01*
X65273607Y-87946507D01*
X65269474Y-87949610D01*
X65269471Y-87949612D01*
X65099100Y-88077530D01*
X65094965Y-88080635D01*
X64940629Y-88242138D01*
X64814743Y-88426680D01*
X64799003Y-88460590D01*
X64729706Y-88609878D01*
X64720688Y-88629305D01*
X64660989Y-88844570D01*
X64637251Y-89066695D01*
X64637548Y-89071848D01*
X64637548Y-89071851D01*
X64646880Y-89233698D01*
X64650110Y-89289715D01*
X64651247Y-89294761D01*
X64651248Y-89294767D01*
X64671119Y-89382939D01*
X64699222Y-89507639D01*
X64783266Y-89714616D01*
X64785965Y-89719020D01*
X64866194Y-89849942D01*
X64899987Y-89905088D01*
X65046250Y-90073938D01*
X65218126Y-90216632D01*
X65288595Y-90257811D01*
X65291445Y-90259476D01*
X65340169Y-90311114D01*
X65353240Y-90380897D01*
X65326509Y-90446669D01*
X65286055Y-90480027D01*
X65273607Y-90486507D01*
X65269474Y-90489610D01*
X65269471Y-90489612D01*
X65099100Y-90617530D01*
X65094965Y-90620635D01*
X64940629Y-90782138D01*
X64814743Y-90966680D01*
X64799003Y-91000590D01*
X64745836Y-91115129D01*
X64720688Y-91169305D01*
X64660989Y-91384570D01*
X64637251Y-91606695D01*
X64637548Y-91611848D01*
X64637548Y-91611851D01*
X64643011Y-91706590D01*
X64650110Y-91829715D01*
X64651247Y-91834761D01*
X64651248Y-91834767D01*
X64671119Y-91922939D01*
X64699222Y-92047639D01*
X64783266Y-92254616D01*
X64785965Y-92259020D01*
X64866194Y-92389942D01*
X64899987Y-92445088D01*
X65046250Y-92613938D01*
X65218126Y-92756632D01*
X65288595Y-92797811D01*
X65291445Y-92799476D01*
X65340169Y-92851114D01*
X65353240Y-92920897D01*
X65326509Y-92986669D01*
X65286055Y-93020027D01*
X65273607Y-93026507D01*
X65269474Y-93029610D01*
X65269471Y-93029612D01*
X65142080Y-93125260D01*
X65094965Y-93160635D01*
X64940629Y-93322138D01*
X64814743Y-93506680D01*
X64799003Y-93540590D01*
X64745836Y-93655129D01*
X64720688Y-93709305D01*
X64660989Y-93924570D01*
X64637251Y-94146695D01*
X64637548Y-94151848D01*
X64637548Y-94151851D01*
X64643011Y-94246590D01*
X64650110Y-94369715D01*
X64651247Y-94374761D01*
X64651248Y-94374767D01*
X64671119Y-94462939D01*
X64699222Y-94587639D01*
X64783266Y-94794616D01*
X64785965Y-94799020D01*
X64866194Y-94929942D01*
X64899987Y-94985088D01*
X65046250Y-95153938D01*
X65218126Y-95296632D01*
X65253954Y-95317568D01*
X65291445Y-95339476D01*
X65340169Y-95391114D01*
X65353240Y-95460897D01*
X65326509Y-95526669D01*
X65286055Y-95560027D01*
X65273607Y-95566507D01*
X65269474Y-95569610D01*
X65269471Y-95569612D01*
X65099100Y-95697530D01*
X65094965Y-95700635D01*
X64940629Y-95862138D01*
X64814743Y-96046680D01*
X64799003Y-96080590D01*
X64745836Y-96195129D01*
X64720688Y-96249305D01*
X64660989Y-96464570D01*
X64637251Y-96686695D01*
X64637548Y-96691848D01*
X64637548Y-96691851D01*
X64643011Y-96786590D01*
X64650110Y-96909715D01*
X64651247Y-96914761D01*
X64651248Y-96914767D01*
X64671119Y-97002939D01*
X64699222Y-97127639D01*
X64783266Y-97334616D01*
X64785965Y-97339020D01*
X64866194Y-97469942D01*
X64899987Y-97525088D01*
X65046250Y-97693938D01*
X65122763Y-97757460D01*
X65196938Y-97819041D01*
X65218126Y-97836632D01*
X65411000Y-97949338D01*
X65415825Y-97951180D01*
X65415826Y-97951181D01*
X65480679Y-97975946D01*
X65619692Y-98029030D01*
X65624760Y-98030061D01*
X65624763Y-98030062D01*
X65732017Y-98051883D01*
X65838597Y-98073567D01*
X65843772Y-98073757D01*
X65843774Y-98073757D01*
X66056673Y-98081564D01*
X66056677Y-98081564D01*
X66061837Y-98081753D01*
X66066957Y-98081097D01*
X66066959Y-98081097D01*
X66278288Y-98054025D01*
X66278289Y-98054025D01*
X66283416Y-98053368D01*
X66288366Y-98051883D01*
X66492432Y-97990660D01*
X66492435Y-97990659D01*
X66497384Y-97989174D01*
X66501531Y-97987143D01*
X66547268Y-97978500D01*
X70168204Y-97978500D01*
X70184651Y-97979578D01*
X70201116Y-97981746D01*
X70201120Y-97981746D01*
X70206686Y-97982479D01*
X70288089Y-97978640D01*
X70294024Y-97978500D01*
X70316599Y-97978500D01*
X70342589Y-97976181D01*
X70347848Y-97975822D01*
X70431088Y-97971896D01*
X70436547Y-97970646D01*
X70436552Y-97970645D01*
X70448570Y-97967892D01*
X70465499Y-97965211D01*
X70483362Y-97963617D01*
X70488778Y-97962135D01*
X70488780Y-97962135D01*
X70563733Y-97941630D01*
X70568851Y-97940344D01*
X70644600Y-97922995D01*
X70644602Y-97922994D01*
X70650070Y-97921742D01*
X70660570Y-97917263D01*
X70666567Y-97914706D01*
X70682742Y-97909073D01*
X70694639Y-97905818D01*
X70694643Y-97905817D01*
X70700051Y-97904337D01*
X70775267Y-97868461D01*
X70780076Y-97866290D01*
X70851549Y-97835804D01*
X70851550Y-97835804D01*
X70856709Y-97833603D01*
X70871710Y-97823749D01*
X70886625Y-97815346D01*
X70902818Y-97807622D01*
X70907369Y-97804352D01*
X70907372Y-97804350D01*
X70940596Y-97780476D01*
X70970492Y-97758994D01*
X70974832Y-97756011D01*
X71040610Y-97712804D01*
X71040618Y-97712798D01*
X71044474Y-97710265D01*
X71065262Y-97691743D01*
X71075539Y-97683510D01*
X71085254Y-97676529D01*
X71159663Y-97599745D01*
X71161052Y-97598335D01*
X79926383Y-88833005D01*
X79988695Y-88798979D01*
X80015478Y-88796100D01*
X84709254Y-88796100D01*
X84716507Y-88796309D01*
X84790290Y-88800563D01*
X84795857Y-88799889D01*
X84795868Y-88799889D01*
X84819635Y-88797013D01*
X84834772Y-88796100D01*
X90176227Y-88796100D01*
X90244348Y-88816102D01*
X90290841Y-88869758D01*
X90300945Y-88940032D01*
X90271451Y-89004612D01*
X90251880Y-89022860D01*
X90204765Y-89058235D01*
X90191753Y-89071851D01*
X90063509Y-89206051D01*
X90050429Y-89219738D01*
X89924543Y-89404280D01*
X89908803Y-89438190D01*
X89832853Y-89601811D01*
X89830488Y-89606905D01*
X89770789Y-89822170D01*
X89747051Y-90044295D01*
X89747348Y-90049448D01*
X89747348Y-90049451D01*
X89752637Y-90141173D01*
X89759910Y-90267315D01*
X89761047Y-90272361D01*
X89761048Y-90272367D01*
X89777326Y-90344595D01*
X89809022Y-90485239D01*
X89893066Y-90692216D01*
X89895765Y-90696620D01*
X89966848Y-90812617D01*
X90009787Y-90882688D01*
X90156050Y-91051538D01*
X90327926Y-91194232D01*
X90398395Y-91235411D01*
X90401245Y-91237076D01*
X90449969Y-91288714D01*
X90463040Y-91358497D01*
X90436309Y-91424269D01*
X90395855Y-91457627D01*
X90383407Y-91464107D01*
X90379274Y-91467210D01*
X90379271Y-91467212D01*
X90355047Y-91485400D01*
X90204765Y-91598235D01*
X90050429Y-91759738D01*
X89924543Y-91944280D01*
X89908803Y-91978190D01*
X89832853Y-92141811D01*
X89830488Y-92146905D01*
X89770789Y-92362170D01*
X89747051Y-92584295D01*
X89747348Y-92589448D01*
X89747348Y-92589451D01*
X89752637Y-92681173D01*
X89759910Y-92807315D01*
X89761047Y-92812361D01*
X89761048Y-92812367D01*
X89775694Y-92877355D01*
X89809022Y-93025239D01*
X89893066Y-93232216D01*
X89895765Y-93236620D01*
X89966848Y-93352617D01*
X90009787Y-93422688D01*
X90156050Y-93591538D01*
X90327926Y-93734232D01*
X90398395Y-93775411D01*
X90401245Y-93777076D01*
X90449969Y-93828714D01*
X90463040Y-93898497D01*
X90436309Y-93964269D01*
X90395855Y-93997627D01*
X90383407Y-94004107D01*
X90379274Y-94007210D01*
X90379271Y-94007212D01*
X90355047Y-94025400D01*
X90204765Y-94138235D01*
X90050429Y-94299738D01*
X89924543Y-94484280D01*
X89908803Y-94518190D01*
X89832853Y-94681811D01*
X89830488Y-94686905D01*
X89770789Y-94902170D01*
X89747051Y-95124295D01*
X89747348Y-95129448D01*
X89747348Y-95129451D01*
X89752637Y-95221173D01*
X89759910Y-95347315D01*
X89761047Y-95352361D01*
X89761048Y-95352367D01*
X89777326Y-95424595D01*
X89809022Y-95565239D01*
X89893066Y-95772216D01*
X89895765Y-95776620D01*
X89966848Y-95892617D01*
X90009787Y-95962688D01*
X90156050Y-96131538D01*
X90327926Y-96274232D01*
X90398395Y-96315411D01*
X90401245Y-96317076D01*
X90449969Y-96368714D01*
X90463040Y-96438497D01*
X90436309Y-96504269D01*
X90395855Y-96537627D01*
X90383407Y-96544107D01*
X90379274Y-96547210D01*
X90379271Y-96547212D01*
X90355047Y-96565400D01*
X90204765Y-96678235D01*
X90050429Y-96839738D01*
X89924543Y-97024280D01*
X89908803Y-97058190D01*
X89832853Y-97221811D01*
X89830488Y-97226905D01*
X89770789Y-97442170D01*
X89747051Y-97664295D01*
X89747348Y-97669448D01*
X89747348Y-97669451D01*
X89752637Y-97761173D01*
X89759910Y-97887315D01*
X89761047Y-97892361D01*
X89761048Y-97892367D01*
X89777218Y-97964116D01*
X89809022Y-98105239D01*
X89893066Y-98312216D01*
X90009787Y-98502688D01*
X90156050Y-98671538D01*
X90327926Y-98814232D01*
X90520800Y-98926938D01*
X90525625Y-98928780D01*
X90525626Y-98928781D01*
X90598412Y-98956575D01*
X90729492Y-99006630D01*
X90734560Y-99007661D01*
X90734563Y-99007662D01*
X90841817Y-99029483D01*
X90948397Y-99051167D01*
X90953572Y-99051357D01*
X90953574Y-99051357D01*
X91166473Y-99059164D01*
X91166477Y-99059164D01*
X91171637Y-99059353D01*
X91176757Y-99058697D01*
X91176759Y-99058697D01*
X91388088Y-99031625D01*
X91388089Y-99031625D01*
X91393216Y-99030968D01*
X91398166Y-99029483D01*
X91602229Y-98968261D01*
X91602234Y-98968259D01*
X91607184Y-98966774D01*
X91807794Y-98868496D01*
X91989660Y-98738773D01*
X92147896Y-98581089D01*
X92207394Y-98498289D01*
X92275235Y-98403877D01*
X92278253Y-98399677D01*
X92377230Y-98199411D01*
X92428996Y-98029030D01*
X92440665Y-97990623D01*
X92440665Y-97990621D01*
X92442170Y-97985669D01*
X92471329Y-97764190D01*
X92471492Y-97757529D01*
X92472874Y-97700965D01*
X92472874Y-97700961D01*
X92472956Y-97697600D01*
X92454652Y-97474961D01*
X92400231Y-97258302D01*
X92311154Y-97053440D01*
X92271706Y-96992462D01*
X92192622Y-96870217D01*
X92192620Y-96870214D01*
X92189814Y-96865877D01*
X92039470Y-96700651D01*
X92035419Y-96697452D01*
X92035415Y-96697448D01*
X91868214Y-96565400D01*
X91868210Y-96565398D01*
X91864159Y-96562198D01*
X91822853Y-96539396D01*
X91772884Y-96488964D01*
X91758112Y-96419521D01*
X91783228Y-96353116D01*
X91810580Y-96326509D01*
X91874799Y-96280702D01*
X91989660Y-96198773D01*
X92147896Y-96041089D01*
X92207394Y-95958289D01*
X92275235Y-95863877D01*
X92278253Y-95859677D01*
X92345778Y-95723051D01*
X92374936Y-95664053D01*
X92374937Y-95664051D01*
X92377230Y-95659411D01*
X92442170Y-95445669D01*
X92471329Y-95224190D01*
X92472956Y-95157600D01*
X92454652Y-94934961D01*
X92400231Y-94718302D01*
X92311154Y-94513440D01*
X92271706Y-94452462D01*
X92192622Y-94330217D01*
X92192620Y-94330214D01*
X92189814Y-94325877D01*
X92039470Y-94160651D01*
X92035419Y-94157452D01*
X92035415Y-94157448D01*
X91868214Y-94025400D01*
X91868210Y-94025398D01*
X91864159Y-94022198D01*
X91822853Y-93999396D01*
X91772884Y-93948964D01*
X91758112Y-93879521D01*
X91783228Y-93813116D01*
X91810580Y-93786509D01*
X91874799Y-93740702D01*
X91989660Y-93658773D01*
X92147896Y-93501089D01*
X92207394Y-93418289D01*
X92275235Y-93323877D01*
X92278253Y-93319677D01*
X92345778Y-93183051D01*
X92374936Y-93124053D01*
X92374937Y-93124051D01*
X92377230Y-93119411D01*
X92442170Y-92905669D01*
X92471329Y-92684190D01*
X92471906Y-92660580D01*
X92472874Y-92620965D01*
X92472874Y-92620961D01*
X92472956Y-92617600D01*
X92454652Y-92394961D01*
X92400231Y-92178302D01*
X92311154Y-91973440D01*
X92271706Y-91912462D01*
X92192622Y-91790217D01*
X92192620Y-91790214D01*
X92189814Y-91785877D01*
X92039470Y-91620651D01*
X92035419Y-91617452D01*
X92035415Y-91617448D01*
X91868214Y-91485400D01*
X91868210Y-91485398D01*
X91864159Y-91482198D01*
X91822853Y-91459396D01*
X91772884Y-91408964D01*
X91758112Y-91339521D01*
X91783228Y-91273116D01*
X91810580Y-91246509D01*
X91874799Y-91200702D01*
X91989660Y-91118773D01*
X92147896Y-90961089D01*
X92207394Y-90878289D01*
X92275235Y-90783877D01*
X92278253Y-90779677D01*
X92345778Y-90643051D01*
X92374936Y-90584053D01*
X92374937Y-90584051D01*
X92377230Y-90579411D01*
X92442170Y-90365669D01*
X92471329Y-90144190D01*
X92472956Y-90077600D01*
X92454652Y-89854961D01*
X92400231Y-89638302D01*
X92311154Y-89433440D01*
X92230966Y-89309488D01*
X92192622Y-89250217D01*
X92192620Y-89250214D01*
X92189814Y-89245877D01*
X92039470Y-89080651D01*
X92035419Y-89077452D01*
X92035415Y-89077448D01*
X91868214Y-88945400D01*
X91868210Y-88945398D01*
X91864159Y-88942198D01*
X91822853Y-88919396D01*
X91772884Y-88868964D01*
X91758112Y-88799521D01*
X91783228Y-88733116D01*
X91810580Y-88706509D01*
X91874799Y-88660702D01*
X91989660Y-88578773D01*
X92147896Y-88421089D01*
X92207394Y-88338289D01*
X92275235Y-88243877D01*
X92278253Y-88239677D01*
X92345778Y-88103051D01*
X92374936Y-88044053D01*
X92374937Y-88044051D01*
X92377230Y-88039411D01*
X92442170Y-87825669D01*
X92468445Y-87626097D01*
X92497168Y-87561170D01*
X92556433Y-87522079D01*
X92627425Y-87521234D01*
X92682460Y-87553447D01*
X93649797Y-88520785D01*
X93683821Y-88583095D01*
X93686700Y-88609878D01*
X93686700Y-99070723D01*
X93666698Y-99138844D01*
X93649795Y-99159818D01*
X91463617Y-101345995D01*
X91401305Y-101380021D01*
X91374522Y-101382900D01*
X51525878Y-101382900D01*
X51457757Y-101362898D01*
X51436783Y-101345995D01*
X48310805Y-98220017D01*
X48276779Y-98157705D01*
X48273900Y-98130922D01*
X48273900Y-86756195D01*
X48274978Y-86739748D01*
X48277146Y-86723283D01*
X48277146Y-86723279D01*
X48277879Y-86717713D01*
X48274040Y-86636311D01*
X48273900Y-86630376D01*
X48273900Y-86607801D01*
X48271581Y-86581811D01*
X48271222Y-86576549D01*
X48269114Y-86531851D01*
X48267296Y-86493312D01*
X48263292Y-86475830D01*
X48260611Y-86458900D01*
X48259516Y-86446632D01*
X48259017Y-86441038D01*
X48255198Y-86427076D01*
X48237030Y-86360667D01*
X48235744Y-86355549D01*
X48218395Y-86279800D01*
X48218394Y-86279798D01*
X48217142Y-86274330D01*
X48210106Y-86257833D01*
X48204473Y-86241658D01*
X48201218Y-86229761D01*
X48201217Y-86229757D01*
X48199737Y-86224349D01*
X48176288Y-86175188D01*
X48163861Y-86149133D01*
X48161690Y-86144324D01*
X48131204Y-86072851D01*
X48131204Y-86072850D01*
X48129003Y-86067691D01*
X48119149Y-86052690D01*
X48110743Y-86037770D01*
X48109484Y-86035129D01*
X48103022Y-86021582D01*
X48054394Y-85953908D01*
X48051411Y-85949568D01*
X48008204Y-85883790D01*
X48008198Y-85883782D01*
X48005665Y-85879926D01*
X47987143Y-85859138D01*
X47978906Y-85848856D01*
X47975199Y-85843697D01*
X47971929Y-85839146D01*
X47895146Y-85764738D01*
X47893736Y-85763349D01*
X45325125Y-83194737D01*
X45314257Y-83182346D01*
X45304133Y-83169152D01*
X45300723Y-83164708D01*
X45240426Y-83109842D01*
X45236131Y-83105743D01*
X45220190Y-83089802D01*
X45204425Y-83076620D01*
X45200177Y-83073068D01*
X45196202Y-83069600D01*
X45138712Y-83017288D01*
X45138703Y-83017281D01*
X45134564Y-83013515D01*
X45119373Y-83003986D01*
X45105507Y-82993911D01*
X45096051Y-82986004D01*
X45096041Y-82985997D01*
X45091746Y-82982406D01*
X45019352Y-82941113D01*
X45014832Y-82938408D01*
X44949004Y-82897114D01*
X44949001Y-82897112D01*
X44944256Y-82894136D01*
X44939051Y-82892043D01*
X44939048Y-82892042D01*
X44927621Y-82887448D01*
X44912189Y-82879988D01*
X44901481Y-82873880D01*
X44901472Y-82873876D01*
X44896607Y-82871101D01*
X44891330Y-82869232D01*
X44891325Y-82869230D01*
X44818058Y-82843285D01*
X44813122Y-82841420D01*
X44741016Y-82812434D01*
X44735817Y-82810344D01*
X44730330Y-82809208D01*
X44730328Y-82809207D01*
X44718251Y-82806706D01*
X44701756Y-82802101D01*
X44684841Y-82796111D01*
X44602590Y-82782641D01*
X44597420Y-82781683D01*
X44515833Y-82764787D01*
X44511221Y-82764521D01*
X44511220Y-82764521D01*
X44488052Y-82763185D01*
X44474947Y-82761738D01*
X44468690Y-82760714D01*
X44468686Y-82760714D01*
X44463143Y-82759806D01*
X44457530Y-82759894D01*
X44457528Y-82759894D01*
X44356336Y-82761484D01*
X44354357Y-82761500D01*
X41935697Y-82761500D01*
X41867576Y-82741498D01*
X41821083Y-82687842D01*
X41810979Y-82617568D01*
X41840473Y-82552988D01*
X41862528Y-82532922D01*
X41875325Y-82523794D01*
X41883200Y-82517139D01*
X42034052Y-82366812D01*
X42040730Y-82358965D01*
X42165003Y-82186020D01*
X42170313Y-82177183D01*
X42264670Y-81986267D01*
X42268469Y-81976672D01*
X42330377Y-81772910D01*
X42332555Y-81762837D01*
X42333986Y-81751962D01*
X42331775Y-81737778D01*
X42318617Y-81734000D01*
X39683225Y-81734000D01*
X39669694Y-81737973D01*
X39668257Y-81747966D01*
X39698565Y-81882446D01*
X39701645Y-81892275D01*
X39781770Y-82089603D01*
X39786413Y-82098794D01*
X39897694Y-82280388D01*
X39903777Y-82288699D01*
X40043213Y-82449667D01*
X40050580Y-82456883D01*
X40214434Y-82592916D01*
X40222881Y-82598831D01*
X40291969Y-82639203D01*
X40340693Y-82690842D01*
X40353764Y-82760625D01*
X40327033Y-82826396D01*
X40286584Y-82859752D01*
X40273607Y-82866507D01*
X40269474Y-82869610D01*
X40269471Y-82869612D01*
X40099111Y-82997522D01*
X40094965Y-83000635D01*
X40082657Y-83013515D01*
X39945075Y-83157486D01*
X39940629Y-83162138D01*
X39937715Y-83166410D01*
X39937714Y-83166411D01*
X39918391Y-83194737D01*
X39814743Y-83346680D01*
X39790628Y-83398632D01*
X39729102Y-83531179D01*
X39720688Y-83549305D01*
X39660989Y-83764570D01*
X39637251Y-83986695D01*
X39637548Y-83991848D01*
X39637548Y-83991851D01*
X39642946Y-84085462D01*
X39650110Y-84209715D01*
X39651247Y-84214761D01*
X39651248Y-84214767D01*
X39671119Y-84302939D01*
X39699222Y-84427639D01*
X39783266Y-84634616D01*
X39785965Y-84639020D01*
X39866194Y-84769942D01*
X39899987Y-84825088D01*
X40046250Y-84993938D01*
X40218126Y-85136632D01*
X40288595Y-85177811D01*
X40291445Y-85179476D01*
X40340169Y-85231114D01*
X40353240Y-85300897D01*
X40326509Y-85366669D01*
X40286055Y-85400027D01*
X40273607Y-85406507D01*
X40269474Y-85409610D01*
X40269471Y-85409612D01*
X40099100Y-85537530D01*
X40094965Y-85540635D01*
X39940629Y-85702138D01*
X39814743Y-85886680D01*
X39783532Y-85953919D01*
X39726037Y-86077782D01*
X39720688Y-86089305D01*
X39660989Y-86304570D01*
X39637251Y-86526695D01*
X39637548Y-86531848D01*
X39637548Y-86531851D01*
X39643011Y-86626590D01*
X39650110Y-86749715D01*
X39651247Y-86754761D01*
X39651248Y-86754767D01*
X39651570Y-86756195D01*
X39699222Y-86967639D01*
X39783266Y-87174616D01*
X39807285Y-87213812D01*
X39866194Y-87309942D01*
X39899987Y-87365088D01*
X40046250Y-87533938D01*
X40218126Y-87676632D01*
X40288595Y-87717811D01*
X40291445Y-87719476D01*
X40340169Y-87771114D01*
X40353240Y-87840897D01*
X40326509Y-87906669D01*
X40286055Y-87940027D01*
X40273607Y-87946507D01*
X40269474Y-87949610D01*
X40269471Y-87949612D01*
X40099100Y-88077530D01*
X40094965Y-88080635D01*
X39940629Y-88242138D01*
X39814743Y-88426680D01*
X39799003Y-88460590D01*
X39729706Y-88609878D01*
X39720688Y-88629305D01*
X39660989Y-88844570D01*
X39637251Y-89066695D01*
X39637548Y-89071848D01*
X39637548Y-89071851D01*
X39646880Y-89233698D01*
X39650110Y-89289715D01*
X39651247Y-89294761D01*
X39651248Y-89294767D01*
X39671119Y-89382939D01*
X39699222Y-89507639D01*
X39783266Y-89714616D01*
X39785965Y-89719020D01*
X39866194Y-89849942D01*
X39899987Y-89905088D01*
X40046250Y-90073938D01*
X40122846Y-90137529D01*
X40148173Y-90158556D01*
X40187808Y-90217458D01*
X40189306Y-90288439D01*
X40152191Y-90348962D01*
X40088247Y-90379811D01*
X40067688Y-90381500D01*
X39178278Y-90381500D01*
X39110157Y-90361498D01*
X39089183Y-90344595D01*
X37541205Y-88796617D01*
X37507179Y-88734305D01*
X37504300Y-88707522D01*
X37504300Y-78906695D01*
X39637251Y-78906695D01*
X39637548Y-78911848D01*
X39637548Y-78911851D01*
X39643011Y-79006590D01*
X39650110Y-79129715D01*
X39651247Y-79134761D01*
X39651248Y-79134767D01*
X39671119Y-79222939D01*
X39699222Y-79347639D01*
X39783266Y-79554616D01*
X39899987Y-79745088D01*
X40046250Y-79913938D01*
X40218126Y-80056632D01*
X40291445Y-80099476D01*
X40291955Y-80099774D01*
X40340679Y-80151412D01*
X40353750Y-80221195D01*
X40327019Y-80286967D01*
X40286562Y-80320327D01*
X40278457Y-80324546D01*
X40269738Y-80330036D01*
X40099433Y-80457905D01*
X40091726Y-80464748D01*
X39944590Y-80618717D01*
X39938104Y-80626727D01*
X39818098Y-80802649D01*
X39813000Y-80811623D01*
X39723338Y-81004783D01*
X39719775Y-81014470D01*
X39664389Y-81214183D01*
X39665912Y-81222607D01*
X39678292Y-81226000D01*
X42318344Y-81226000D01*
X42331875Y-81222027D01*
X42333180Y-81212947D01*
X42291214Y-81045875D01*
X42287894Y-81036124D01*
X42202972Y-80840814D01*
X42198105Y-80831739D01*
X42082426Y-80652926D01*
X42076136Y-80644757D01*
X41932806Y-80487240D01*
X41925273Y-80480215D01*
X41758139Y-80348222D01*
X41749556Y-80342520D01*
X41712602Y-80322120D01*
X41662631Y-80271687D01*
X41647859Y-80202245D01*
X41672975Y-80135839D01*
X41700327Y-80109232D01*
X41723797Y-80092491D01*
X41879860Y-79981173D01*
X42038096Y-79823489D01*
X42097594Y-79740689D01*
X42165435Y-79646277D01*
X42168453Y-79642077D01*
X42267430Y-79441811D01*
X42332370Y-79228069D01*
X42361529Y-79006590D01*
X42362912Y-78949994D01*
X42363074Y-78943365D01*
X42363074Y-78943361D01*
X42363156Y-78940000D01*
X42344852Y-78717361D01*
X42290431Y-78500702D01*
X42201354Y-78295840D01*
X42080014Y-78108277D01*
X41929670Y-77943051D01*
X41925619Y-77939852D01*
X41925615Y-77939848D01*
X41758414Y-77807800D01*
X41758410Y-77807798D01*
X41754359Y-77804598D01*
X41713053Y-77781796D01*
X41663084Y-77731364D01*
X41648312Y-77661921D01*
X41673428Y-77595516D01*
X41700780Y-77568909D01*
X41744603Y-77537650D01*
X41879860Y-77441173D01*
X42038096Y-77283489D01*
X42097594Y-77200689D01*
X42165435Y-77106277D01*
X42168453Y-77102077D01*
X42267430Y-76901811D01*
X42332370Y-76688069D01*
X42361529Y-76466590D01*
X42363156Y-76400000D01*
X42344852Y-76177361D01*
X42290431Y-75960702D01*
X42201354Y-75755840D01*
X42080014Y-75568277D01*
X41929670Y-75403051D01*
X41925619Y-75399852D01*
X41925615Y-75399848D01*
X41758414Y-75267800D01*
X41758410Y-75267798D01*
X41754359Y-75264598D01*
X41713053Y-75241796D01*
X41663084Y-75191364D01*
X41648312Y-75121921D01*
X41673428Y-75055516D01*
X41700780Y-75028909D01*
X41744603Y-74997650D01*
X41879860Y-74901173D01*
X42038096Y-74743489D01*
X42097594Y-74660689D01*
X42165435Y-74566277D01*
X42168453Y-74562077D01*
X42230363Y-74436812D01*
X42265136Y-74366453D01*
X42265137Y-74366451D01*
X42267430Y-74361811D01*
X42332370Y-74148069D01*
X42361529Y-73926590D01*
X42363156Y-73860000D01*
X42344852Y-73637361D01*
X42290431Y-73420702D01*
X42201354Y-73215840D01*
X42080014Y-73028277D01*
X41929670Y-72863051D01*
X41925619Y-72859852D01*
X41925615Y-72859848D01*
X41758414Y-72727800D01*
X41758410Y-72727798D01*
X41754359Y-72724598D01*
X41713053Y-72701796D01*
X41663084Y-72651364D01*
X41648312Y-72581921D01*
X41673428Y-72515516D01*
X41700780Y-72488909D01*
X41751788Y-72452525D01*
X41879860Y-72361173D01*
X42038096Y-72203489D01*
X42097594Y-72120689D01*
X42165435Y-72026277D01*
X42168453Y-72022077D01*
X42267430Y-71821811D01*
X42332370Y-71608069D01*
X42361529Y-71386590D01*
X42363156Y-71320000D01*
X42344852Y-71097361D01*
X42290431Y-70880702D01*
X42201354Y-70675840D01*
X42137342Y-70576892D01*
X42082822Y-70492617D01*
X42082820Y-70492614D01*
X42080014Y-70488277D01*
X41929670Y-70323051D01*
X41925619Y-70319852D01*
X41925615Y-70319848D01*
X41758414Y-70187800D01*
X41758410Y-70187798D01*
X41754359Y-70184598D01*
X41713053Y-70161796D01*
X41663084Y-70111364D01*
X41648312Y-70041921D01*
X41673428Y-69975516D01*
X41700780Y-69948909D01*
X41744603Y-69917650D01*
X41879860Y-69821173D01*
X41937043Y-69764190D01*
X42000489Y-69700965D01*
X42038096Y-69663489D01*
X42097594Y-69580689D01*
X42165435Y-69486277D01*
X42168453Y-69482077D01*
X42174451Y-69469942D01*
X42265136Y-69286453D01*
X42265137Y-69286451D01*
X42267430Y-69281811D01*
X42332370Y-69068069D01*
X42361529Y-68846590D01*
X42361611Y-68843240D01*
X42363074Y-68783365D01*
X42363074Y-68783361D01*
X42363156Y-68780000D01*
X42344852Y-68557361D01*
X42290431Y-68340702D01*
X42201354Y-68135840D01*
X42137342Y-68036892D01*
X42082822Y-67952617D01*
X42082820Y-67952614D01*
X42080014Y-67948277D01*
X41929670Y-67783051D01*
X41925619Y-67779852D01*
X41925615Y-67779848D01*
X41758414Y-67647800D01*
X41758410Y-67647798D01*
X41754359Y-67644598D01*
X41713053Y-67621796D01*
X41663084Y-67571364D01*
X41648312Y-67501921D01*
X41673428Y-67435516D01*
X41700780Y-67408909D01*
X41744603Y-67377650D01*
X41879860Y-67281173D01*
X41937043Y-67224190D01*
X42000489Y-67160965D01*
X42038096Y-67123489D01*
X42097594Y-67040689D01*
X42165435Y-66946277D01*
X42168453Y-66942077D01*
X42174451Y-66929942D01*
X42265136Y-66746453D01*
X42265137Y-66746451D01*
X42267430Y-66741811D01*
X42332370Y-66528069D01*
X42361529Y-66306590D01*
X42361611Y-66303240D01*
X42363074Y-66243365D01*
X42363074Y-66243361D01*
X42363156Y-66240000D01*
X42344852Y-66017361D01*
X42290431Y-65800702D01*
X42201354Y-65595840D01*
X42137342Y-65496892D01*
X42082822Y-65412617D01*
X42082820Y-65412614D01*
X42080014Y-65408277D01*
X41929670Y-65243051D01*
X41925619Y-65239852D01*
X41925615Y-65239848D01*
X41758414Y-65107800D01*
X41758410Y-65107798D01*
X41754359Y-65104598D01*
X41713053Y-65081796D01*
X41663084Y-65031364D01*
X41648312Y-64961921D01*
X41673428Y-64895516D01*
X41700780Y-64868909D01*
X41744603Y-64837650D01*
X41879860Y-64741173D01*
X41937043Y-64684190D01*
X42000489Y-64620965D01*
X42038096Y-64583489D01*
X42097594Y-64500689D01*
X42165435Y-64406277D01*
X42168453Y-64402077D01*
X42174451Y-64389942D01*
X42265136Y-64206453D01*
X42265137Y-64206451D01*
X42267430Y-64201811D01*
X42332370Y-63988069D01*
X42361529Y-63766590D01*
X42361611Y-63763240D01*
X42363074Y-63703365D01*
X42363074Y-63703361D01*
X42363156Y-63700000D01*
X42344852Y-63477361D01*
X42290431Y-63260702D01*
X42201354Y-63055840D01*
X42137342Y-62956892D01*
X42082822Y-62872617D01*
X42082820Y-62872614D01*
X42080014Y-62868277D01*
X41929670Y-62703051D01*
X41925619Y-62699852D01*
X41925615Y-62699848D01*
X41758414Y-62567800D01*
X41758410Y-62567798D01*
X41754359Y-62564598D01*
X41713053Y-62541796D01*
X41663084Y-62491364D01*
X41648312Y-62421921D01*
X41673428Y-62355516D01*
X41700780Y-62328909D01*
X41744603Y-62297650D01*
X41879860Y-62201173D01*
X41937043Y-62144190D01*
X42000489Y-62080965D01*
X42038096Y-62043489D01*
X42097594Y-61960689D01*
X42165435Y-61866277D01*
X42168453Y-61862077D01*
X42174451Y-61849942D01*
X42265136Y-61666453D01*
X42265137Y-61666451D01*
X42267430Y-61661811D01*
X42332370Y-61448069D01*
X42361529Y-61226590D01*
X42361611Y-61223240D01*
X42363074Y-61163365D01*
X42363074Y-61163361D01*
X42363156Y-61160000D01*
X42360418Y-61126695D01*
X64637251Y-61126695D01*
X64637548Y-61131848D01*
X64637548Y-61131851D01*
X64644123Y-61245877D01*
X64650110Y-61349715D01*
X64651247Y-61354761D01*
X64651248Y-61354767D01*
X64670049Y-61438190D01*
X64699222Y-61567639D01*
X64783266Y-61774616D01*
X64899987Y-61965088D01*
X65046250Y-62133938D01*
X65218126Y-62276632D01*
X65291445Y-62319476D01*
X65291955Y-62319774D01*
X65340679Y-62371412D01*
X65353750Y-62441195D01*
X65327019Y-62506967D01*
X65286562Y-62540327D01*
X65278457Y-62544546D01*
X65269738Y-62550036D01*
X65099433Y-62677905D01*
X65091726Y-62684748D01*
X64944590Y-62838717D01*
X64938104Y-62846727D01*
X64818098Y-63022649D01*
X64813000Y-63031623D01*
X64723338Y-63224783D01*
X64719775Y-63234470D01*
X64664389Y-63434183D01*
X64665912Y-63442607D01*
X64678292Y-63446000D01*
X67318344Y-63446000D01*
X67331875Y-63442027D01*
X67333180Y-63432947D01*
X67291214Y-63265875D01*
X67287894Y-63256124D01*
X67202972Y-63060814D01*
X67198105Y-63051739D01*
X67082426Y-62872926D01*
X67076136Y-62864757D01*
X66932806Y-62707240D01*
X66925273Y-62700215D01*
X66758139Y-62568222D01*
X66749556Y-62562520D01*
X66712602Y-62542120D01*
X66662631Y-62491687D01*
X66647859Y-62422245D01*
X66672975Y-62355839D01*
X66700327Y-62329232D01*
X66723797Y-62312491D01*
X66879860Y-62201173D01*
X66937043Y-62144190D01*
X67000489Y-62080965D01*
X67038096Y-62043489D01*
X67097594Y-61960689D01*
X67165435Y-61866277D01*
X67168453Y-61862077D01*
X67174451Y-61849942D01*
X67265136Y-61666453D01*
X67265137Y-61666451D01*
X67267430Y-61661811D01*
X67332370Y-61448069D01*
X67361529Y-61226590D01*
X67361611Y-61223240D01*
X67363074Y-61163365D01*
X67363074Y-61163361D01*
X67363156Y-61160000D01*
X67344852Y-60937361D01*
X67290431Y-60720702D01*
X67201354Y-60515840D01*
X67080014Y-60328277D01*
X66929670Y-60163051D01*
X66925619Y-60159852D01*
X66925615Y-60159848D01*
X66758414Y-60027800D01*
X66758410Y-60027798D01*
X66754359Y-60024598D01*
X66713053Y-60001796D01*
X66663084Y-59951364D01*
X66648312Y-59881921D01*
X66673428Y-59815516D01*
X66700780Y-59788909D01*
X66764325Y-59743583D01*
X66879860Y-59661173D01*
X66885695Y-59655359D01*
X67000489Y-59540965D01*
X67038096Y-59503489D01*
X67097594Y-59420689D01*
X67165435Y-59326277D01*
X67168453Y-59322077D01*
X67174451Y-59309942D01*
X67265136Y-59126453D01*
X67265137Y-59126451D01*
X67267430Y-59121811D01*
X67332370Y-58908069D01*
X67361529Y-58686590D01*
X67361611Y-58683240D01*
X67363074Y-58623365D01*
X67363074Y-58623361D01*
X67363156Y-58620000D01*
X67344852Y-58397361D01*
X67290431Y-58180702D01*
X67201354Y-57975840D01*
X67114511Y-57841601D01*
X67082822Y-57792617D01*
X67082820Y-57792614D01*
X67080014Y-57788277D01*
X66929670Y-57623051D01*
X66925619Y-57619852D01*
X66925615Y-57619848D01*
X66758414Y-57487800D01*
X66758410Y-57487798D01*
X66754359Y-57484598D01*
X66713053Y-57461796D01*
X66663084Y-57411364D01*
X66648312Y-57341921D01*
X66673428Y-57275516D01*
X66700780Y-57248909D01*
X66744603Y-57217650D01*
X66879860Y-57121173D01*
X67038096Y-56963489D01*
X67097594Y-56880689D01*
X67165435Y-56786277D01*
X67168453Y-56782077D01*
X67185638Y-56747307D01*
X67265136Y-56586453D01*
X67265137Y-56586451D01*
X67267430Y-56581811D01*
X67332370Y-56368069D01*
X67361529Y-56146590D01*
X67361611Y-56143240D01*
X67363074Y-56083365D01*
X67363074Y-56083361D01*
X67363156Y-56080000D01*
X67344852Y-55857361D01*
X67290431Y-55640702D01*
X67201354Y-55435840D01*
X67137342Y-55336892D01*
X67082822Y-55252617D01*
X67082820Y-55252614D01*
X67080014Y-55248277D01*
X66929670Y-55083051D01*
X66925619Y-55079852D01*
X66925615Y-55079848D01*
X66758414Y-54947800D01*
X66758410Y-54947798D01*
X66754359Y-54944598D01*
X66713053Y-54921796D01*
X66663084Y-54871364D01*
X66648312Y-54801921D01*
X66673428Y-54735516D01*
X66700780Y-54708909D01*
X66744603Y-54677650D01*
X66879860Y-54581173D01*
X66937043Y-54524190D01*
X67000489Y-54460965D01*
X67038096Y-54423489D01*
X67060314Y-54392570D01*
X67165435Y-54246277D01*
X67168453Y-54242077D01*
X67174451Y-54229942D01*
X67265136Y-54046453D01*
X67265137Y-54046451D01*
X67267430Y-54041811D01*
X67332370Y-53828069D01*
X67361529Y-53606590D01*
X67361611Y-53603240D01*
X67363074Y-53543365D01*
X67363074Y-53543361D01*
X67363156Y-53540000D01*
X67344852Y-53317361D01*
X67290431Y-53100702D01*
X67201354Y-52895840D01*
X67147291Y-52812272D01*
X67082822Y-52712617D01*
X67082820Y-52712614D01*
X67080014Y-52708277D01*
X67076532Y-52704450D01*
X66932798Y-52546488D01*
X66901746Y-52482642D01*
X66910141Y-52412143D01*
X66955317Y-52357375D01*
X66981761Y-52343706D01*
X67088297Y-52303767D01*
X67096705Y-52300615D01*
X67213261Y-52213261D01*
X67300615Y-52096705D01*
X67351745Y-51960316D01*
X67358500Y-51898134D01*
X67358500Y-51645485D01*
X89751800Y-51645485D01*
X89756275Y-51660724D01*
X89757665Y-51661929D01*
X89765348Y-51663600D01*
X90837685Y-51663600D01*
X90852924Y-51659125D01*
X90854129Y-51657735D01*
X90855800Y-51650052D01*
X90855800Y-51645485D01*
X91363800Y-51645485D01*
X91368275Y-51660724D01*
X91369665Y-51661929D01*
X91377348Y-51663600D01*
X92449684Y-51663600D01*
X92464923Y-51659125D01*
X92466128Y-51657735D01*
X92467799Y-51650052D01*
X92467799Y-51022931D01*
X92467429Y-51016110D01*
X92461905Y-50965248D01*
X92458279Y-50949996D01*
X92413124Y-50829546D01*
X92404586Y-50813951D01*
X92328085Y-50711876D01*
X92315524Y-50699315D01*
X92213449Y-50622814D01*
X92197854Y-50614276D01*
X92077406Y-50569122D01*
X92062151Y-50565495D01*
X92011286Y-50559969D01*
X92004472Y-50559600D01*
X91381915Y-50559600D01*
X91366676Y-50564075D01*
X91365471Y-50565465D01*
X91363800Y-50573148D01*
X91363800Y-51645485D01*
X90855800Y-51645485D01*
X90855800Y-50577716D01*
X90851325Y-50562477D01*
X90849935Y-50561272D01*
X90842252Y-50559601D01*
X90215131Y-50559601D01*
X90208310Y-50559971D01*
X90157448Y-50565495D01*
X90142196Y-50569121D01*
X90021746Y-50614276D01*
X90006151Y-50622814D01*
X89904076Y-50699315D01*
X89891515Y-50711876D01*
X89815014Y-50813951D01*
X89806476Y-50829546D01*
X89761322Y-50949994D01*
X89757695Y-50965249D01*
X89752169Y-51016114D01*
X89751800Y-51022928D01*
X89751800Y-51645485D01*
X67358500Y-51645485D01*
X67358500Y-50101866D01*
X67351745Y-50039684D01*
X67300615Y-49903295D01*
X67213261Y-49786739D01*
X67096705Y-49699385D01*
X66960316Y-49648255D01*
X66898134Y-49641500D01*
X65101866Y-49641500D01*
X65039684Y-49648255D01*
X64903295Y-49699385D01*
X64786739Y-49786739D01*
X64699385Y-49903295D01*
X64648255Y-50039684D01*
X64641500Y-50101866D01*
X64641500Y-51898134D01*
X64648255Y-51960316D01*
X64699385Y-52096705D01*
X64786739Y-52213261D01*
X64903295Y-52300615D01*
X64911704Y-52303767D01*
X64911705Y-52303768D01*
X65020451Y-52344535D01*
X65077216Y-52387176D01*
X65101916Y-52453738D01*
X65086709Y-52523087D01*
X65067316Y-52549568D01*
X64940629Y-52682138D01*
X64814743Y-52866680D01*
X64720688Y-53069305D01*
X64660989Y-53284570D01*
X64637251Y-53506695D01*
X64637548Y-53511848D01*
X64637548Y-53511851D01*
X64643011Y-53606590D01*
X64650110Y-53729715D01*
X64651247Y-53734761D01*
X64651248Y-53734767D01*
X64670049Y-53818190D01*
X64699222Y-53947639D01*
X64783266Y-54154616D01*
X64899987Y-54345088D01*
X65046250Y-54513938D01*
X65218126Y-54656632D01*
X65288595Y-54697811D01*
X65291445Y-54699476D01*
X65340169Y-54751114D01*
X65353240Y-54820897D01*
X65326509Y-54886669D01*
X65286055Y-54920027D01*
X65273607Y-54926507D01*
X65269474Y-54929610D01*
X65269471Y-54929612D01*
X65099100Y-55057530D01*
X65094965Y-55060635D01*
X65030640Y-55127947D01*
X64996305Y-55163877D01*
X64940629Y-55222138D01*
X64814743Y-55406680D01*
X64720688Y-55609305D01*
X64660989Y-55824570D01*
X64637251Y-56046695D01*
X64637548Y-56051848D01*
X64637548Y-56051851D01*
X64642862Y-56144011D01*
X64650110Y-56269715D01*
X64651247Y-56274761D01*
X64651248Y-56274767D01*
X64662407Y-56324280D01*
X64699222Y-56487639D01*
X64783266Y-56694616D01*
X64899987Y-56885088D01*
X65046250Y-57053938D01*
X65218126Y-57196632D01*
X65261578Y-57222023D01*
X65291445Y-57239476D01*
X65340169Y-57291114D01*
X65353240Y-57360897D01*
X65326509Y-57426669D01*
X65286055Y-57460027D01*
X65273607Y-57466507D01*
X65269474Y-57469610D01*
X65269471Y-57469612D01*
X65165610Y-57547593D01*
X65094965Y-57600635D01*
X65065873Y-57631078D01*
X64959437Y-57742457D01*
X64940629Y-57762138D01*
X64937715Y-57766410D01*
X64937714Y-57766411D01*
X64882884Y-57846789D01*
X64814743Y-57946680D01*
X64795626Y-57987865D01*
X64723202Y-58143890D01*
X64720688Y-58149305D01*
X64660989Y-58364570D01*
X64637251Y-58586695D01*
X64637548Y-58591848D01*
X64637548Y-58591851D01*
X64644123Y-58705877D01*
X64650110Y-58809715D01*
X64651247Y-58814761D01*
X64651248Y-58814767D01*
X64670049Y-58898190D01*
X64699222Y-59027639D01*
X64783266Y-59234616D01*
X64899987Y-59425088D01*
X65046250Y-59593938D01*
X65218126Y-59736632D01*
X65247891Y-59754025D01*
X65291445Y-59779476D01*
X65340169Y-59831114D01*
X65353240Y-59900897D01*
X65326509Y-59966669D01*
X65286055Y-60000027D01*
X65273607Y-60006507D01*
X65269474Y-60009610D01*
X65269471Y-60009612D01*
X65105954Y-60132384D01*
X65094965Y-60140635D01*
X65091393Y-60144373D01*
X64965618Y-60275989D01*
X64940629Y-60302138D01*
X64937715Y-60306410D01*
X64937714Y-60306411D01*
X64874927Y-60398453D01*
X64814743Y-60486680D01*
X64720688Y-60689305D01*
X64660989Y-60904570D01*
X64637251Y-61126695D01*
X42360418Y-61126695D01*
X42344852Y-60937361D01*
X42290431Y-60720702D01*
X42201354Y-60515840D01*
X42080014Y-60328277D01*
X41929670Y-60163051D01*
X41925619Y-60159852D01*
X41925615Y-60159848D01*
X41758414Y-60027800D01*
X41758410Y-60027798D01*
X41754359Y-60024598D01*
X41713053Y-60001796D01*
X41663084Y-59951364D01*
X41648312Y-59881921D01*
X41673428Y-59815516D01*
X41700780Y-59788909D01*
X41764325Y-59743583D01*
X41879860Y-59661173D01*
X41885695Y-59655359D01*
X42000489Y-59540965D01*
X42038096Y-59503489D01*
X42097594Y-59420689D01*
X42165435Y-59326277D01*
X42168453Y-59322077D01*
X42174451Y-59309942D01*
X42265136Y-59126453D01*
X42265137Y-59126451D01*
X42267430Y-59121811D01*
X42332370Y-58908069D01*
X42361529Y-58686590D01*
X42361611Y-58683240D01*
X42363074Y-58623365D01*
X42363074Y-58623361D01*
X42363156Y-58620000D01*
X42344852Y-58397361D01*
X42290431Y-58180702D01*
X42201354Y-57975840D01*
X42114511Y-57841601D01*
X42082822Y-57792617D01*
X42082820Y-57792614D01*
X42080014Y-57788277D01*
X41929670Y-57623051D01*
X41925619Y-57619852D01*
X41925615Y-57619848D01*
X41758414Y-57487800D01*
X41758410Y-57487798D01*
X41754359Y-57484598D01*
X41713053Y-57461796D01*
X41663084Y-57411364D01*
X41648312Y-57341921D01*
X41673428Y-57275516D01*
X41700780Y-57248909D01*
X41744603Y-57217650D01*
X41879860Y-57121173D01*
X42038096Y-56963489D01*
X42097594Y-56880689D01*
X42165435Y-56786277D01*
X42168453Y-56782077D01*
X42185638Y-56747307D01*
X42265136Y-56586453D01*
X42265137Y-56586451D01*
X42267430Y-56581811D01*
X42332370Y-56368069D01*
X42361529Y-56146590D01*
X42361611Y-56143240D01*
X42363074Y-56083365D01*
X42363074Y-56083361D01*
X42363156Y-56080000D01*
X42344852Y-55857361D01*
X42290431Y-55640702D01*
X42201354Y-55435840D01*
X42137342Y-55336892D01*
X42082822Y-55252617D01*
X42082820Y-55252614D01*
X42080014Y-55248277D01*
X41929670Y-55083051D01*
X41925619Y-55079852D01*
X41925615Y-55079848D01*
X41758414Y-54947800D01*
X41758410Y-54947798D01*
X41754359Y-54944598D01*
X41713053Y-54921796D01*
X41663084Y-54871364D01*
X41648312Y-54801921D01*
X41673428Y-54735516D01*
X41700780Y-54708909D01*
X41744603Y-54677650D01*
X41879860Y-54581173D01*
X41937043Y-54524190D01*
X42000489Y-54460965D01*
X42038096Y-54423489D01*
X42060314Y-54392570D01*
X42165435Y-54246277D01*
X42168453Y-54242077D01*
X42174451Y-54229942D01*
X42265136Y-54046453D01*
X42265137Y-54046451D01*
X42267430Y-54041811D01*
X42332370Y-53828069D01*
X42361529Y-53606590D01*
X42361611Y-53603240D01*
X42363074Y-53543365D01*
X42363074Y-53543361D01*
X42363156Y-53540000D01*
X42344852Y-53317361D01*
X42290431Y-53100702D01*
X42201354Y-52895840D01*
X42147291Y-52812272D01*
X42082822Y-52712617D01*
X42082820Y-52712614D01*
X42080014Y-52708277D01*
X42076532Y-52704450D01*
X41932798Y-52546488D01*
X41901746Y-52482642D01*
X41910141Y-52412143D01*
X41955317Y-52357375D01*
X41981761Y-52343706D01*
X42088297Y-52303767D01*
X42096705Y-52300615D01*
X42213261Y-52213261D01*
X42300615Y-52096705D01*
X42351745Y-51960316D01*
X42358500Y-51898134D01*
X42358500Y-50101866D01*
X42351745Y-50039684D01*
X42300615Y-49903295D01*
X42213261Y-49786739D01*
X42096705Y-49699385D01*
X41960316Y-49648255D01*
X41898134Y-49641500D01*
X40101866Y-49641500D01*
X40039684Y-49648255D01*
X39903295Y-49699385D01*
X39786739Y-49786739D01*
X39699385Y-49903295D01*
X39648255Y-50039684D01*
X39641500Y-50101866D01*
X39641500Y-51898134D01*
X39648255Y-51960316D01*
X39699385Y-52096705D01*
X39786739Y-52213261D01*
X39903295Y-52300615D01*
X39911704Y-52303767D01*
X39911705Y-52303768D01*
X40020451Y-52344535D01*
X40077216Y-52387176D01*
X40101916Y-52453738D01*
X40086709Y-52523087D01*
X40067316Y-52549568D01*
X39940629Y-52682138D01*
X39814743Y-52866680D01*
X39720688Y-53069305D01*
X39660989Y-53284570D01*
X39637251Y-53506695D01*
X39637548Y-53511848D01*
X39637548Y-53511851D01*
X39643011Y-53606590D01*
X39650110Y-53729715D01*
X39651247Y-53734761D01*
X39651248Y-53734767D01*
X39670049Y-53818190D01*
X39699222Y-53947639D01*
X39783266Y-54154616D01*
X39899987Y-54345088D01*
X40046250Y-54513938D01*
X40218126Y-54656632D01*
X40288595Y-54697811D01*
X40291445Y-54699476D01*
X40340169Y-54751114D01*
X40353240Y-54820897D01*
X40326509Y-54886669D01*
X40286055Y-54920027D01*
X40273607Y-54926507D01*
X40269474Y-54929610D01*
X40269471Y-54929612D01*
X40099100Y-55057530D01*
X40094965Y-55060635D01*
X40030640Y-55127947D01*
X39996305Y-55163877D01*
X39940629Y-55222138D01*
X39814743Y-55406680D01*
X39720688Y-55609305D01*
X39660989Y-55824570D01*
X39637251Y-56046695D01*
X39637548Y-56051848D01*
X39637548Y-56051851D01*
X39642862Y-56144011D01*
X39650110Y-56269715D01*
X39651247Y-56274761D01*
X39651248Y-56274767D01*
X39662407Y-56324280D01*
X39699222Y-56487639D01*
X39783266Y-56694616D01*
X39899987Y-56885088D01*
X40046250Y-57053938D01*
X40218126Y-57196632D01*
X40261578Y-57222023D01*
X40291445Y-57239476D01*
X40340169Y-57291114D01*
X40353240Y-57360897D01*
X40326509Y-57426669D01*
X40286055Y-57460027D01*
X40273607Y-57466507D01*
X40269474Y-57469610D01*
X40269471Y-57469612D01*
X40165610Y-57547593D01*
X40094965Y-57600635D01*
X40065873Y-57631078D01*
X39959437Y-57742457D01*
X39940629Y-57762138D01*
X39937715Y-57766410D01*
X39937714Y-57766411D01*
X39882884Y-57846789D01*
X39814743Y-57946680D01*
X39795626Y-57987865D01*
X39723202Y-58143890D01*
X39720688Y-58149305D01*
X39660989Y-58364570D01*
X39637251Y-58586695D01*
X39637548Y-58591848D01*
X39637548Y-58591851D01*
X39644123Y-58705877D01*
X39650110Y-58809715D01*
X39651247Y-58814761D01*
X39651248Y-58814767D01*
X39670049Y-58898190D01*
X39699222Y-59027639D01*
X39783266Y-59234616D01*
X39899987Y-59425088D01*
X40046250Y-59593938D01*
X40218126Y-59736632D01*
X40247891Y-59754025D01*
X40291445Y-59779476D01*
X40340169Y-59831114D01*
X40353240Y-59900897D01*
X40326509Y-59966669D01*
X40286055Y-60000027D01*
X40273607Y-60006507D01*
X40269474Y-60009610D01*
X40269471Y-60009612D01*
X40105954Y-60132384D01*
X40094965Y-60140635D01*
X40091393Y-60144373D01*
X39965618Y-60275989D01*
X39940629Y-60302138D01*
X39937715Y-60306410D01*
X39937714Y-60306411D01*
X39874927Y-60398453D01*
X39814743Y-60486680D01*
X39720688Y-60689305D01*
X39660989Y-60904570D01*
X39637251Y-61126695D01*
X39637548Y-61131848D01*
X39637548Y-61131851D01*
X39644123Y-61245877D01*
X39650110Y-61349715D01*
X39651247Y-61354761D01*
X39651248Y-61354767D01*
X39670049Y-61438190D01*
X39699222Y-61567639D01*
X39783266Y-61774616D01*
X39899987Y-61965088D01*
X40046250Y-62133938D01*
X40218126Y-62276632D01*
X40288595Y-62317811D01*
X40291445Y-62319476D01*
X40340169Y-62371114D01*
X40353240Y-62440897D01*
X40326509Y-62506669D01*
X40286055Y-62540027D01*
X40273607Y-62546507D01*
X40269474Y-62549610D01*
X40269471Y-62549612D01*
X40223600Y-62584053D01*
X40094965Y-62680635D01*
X40083898Y-62692216D01*
X39996305Y-62783877D01*
X39940629Y-62842138D01*
X39937715Y-62846410D01*
X39937714Y-62846411D01*
X39925404Y-62864457D01*
X39814743Y-63026680D01*
X39720688Y-63229305D01*
X39660989Y-63444570D01*
X39637251Y-63666695D01*
X39637548Y-63671848D01*
X39637548Y-63671851D01*
X39644123Y-63785877D01*
X39650110Y-63889715D01*
X39651247Y-63894761D01*
X39651248Y-63894767D01*
X39670049Y-63978190D01*
X39699222Y-64107639D01*
X39783266Y-64314616D01*
X39899987Y-64505088D01*
X40046250Y-64673938D01*
X40218126Y-64816632D01*
X40288595Y-64857811D01*
X40291445Y-64859476D01*
X40340169Y-64911114D01*
X40353240Y-64980897D01*
X40326509Y-65046669D01*
X40286055Y-65080027D01*
X40273607Y-65086507D01*
X40269474Y-65089610D01*
X40269471Y-65089612D01*
X40223600Y-65124053D01*
X40094965Y-65220635D01*
X40083898Y-65232216D01*
X39996305Y-65323877D01*
X39940629Y-65382138D01*
X39814743Y-65566680D01*
X39720688Y-65769305D01*
X39660989Y-65984570D01*
X39637251Y-66206695D01*
X39637548Y-66211848D01*
X39637548Y-66211851D01*
X39644123Y-66325877D01*
X39650110Y-66429715D01*
X39651247Y-66434761D01*
X39651248Y-66434767D01*
X39670049Y-66518190D01*
X39699222Y-66647639D01*
X39783266Y-66854616D01*
X39899987Y-67045088D01*
X40046250Y-67213938D01*
X40218126Y-67356632D01*
X40288595Y-67397811D01*
X40291445Y-67399476D01*
X40340169Y-67451114D01*
X40353240Y-67520897D01*
X40326509Y-67586669D01*
X40286055Y-67620027D01*
X40273607Y-67626507D01*
X40269474Y-67629610D01*
X40269471Y-67629612D01*
X40223600Y-67664053D01*
X40094965Y-67760635D01*
X40083898Y-67772216D01*
X39996305Y-67863877D01*
X39940629Y-67922138D01*
X39814743Y-68106680D01*
X39720688Y-68309305D01*
X39660989Y-68524570D01*
X39637251Y-68746695D01*
X39637548Y-68751848D01*
X39637548Y-68751851D01*
X39644123Y-68865877D01*
X39650110Y-68969715D01*
X39651247Y-68974761D01*
X39651248Y-68974767D01*
X39670049Y-69058190D01*
X39699222Y-69187639D01*
X39783266Y-69394616D01*
X39899987Y-69585088D01*
X40046250Y-69753938D01*
X40218126Y-69896632D01*
X40288595Y-69937811D01*
X40291445Y-69939476D01*
X40340169Y-69991114D01*
X40353240Y-70060897D01*
X40326509Y-70126669D01*
X40286055Y-70160027D01*
X40273607Y-70166507D01*
X40269474Y-70169610D01*
X40269471Y-70169612D01*
X40223600Y-70204053D01*
X40094965Y-70300635D01*
X40083898Y-70312216D01*
X39996305Y-70403877D01*
X39940629Y-70462138D01*
X39814743Y-70646680D01*
X39720688Y-70849305D01*
X39660989Y-71064570D01*
X39637251Y-71286695D01*
X39637548Y-71291848D01*
X39637548Y-71291851D01*
X39643011Y-71386590D01*
X39650110Y-71509715D01*
X39651247Y-71514761D01*
X39651248Y-71514767D01*
X39671119Y-71602939D01*
X39699222Y-71727639D01*
X39783266Y-71934616D01*
X39899987Y-72125088D01*
X40046250Y-72293938D01*
X40218126Y-72436632D01*
X40253954Y-72457568D01*
X40291445Y-72479476D01*
X40340169Y-72531114D01*
X40353240Y-72600897D01*
X40326509Y-72666669D01*
X40286055Y-72700027D01*
X40273607Y-72706507D01*
X40269474Y-72709610D01*
X40269471Y-72709612D01*
X40099100Y-72837530D01*
X40094965Y-72840635D01*
X39940629Y-73002138D01*
X39937715Y-73006410D01*
X39937714Y-73006411D01*
X39875946Y-73096960D01*
X39814743Y-73186680D01*
X39720688Y-73389305D01*
X39660989Y-73604570D01*
X39637251Y-73826695D01*
X39637548Y-73831848D01*
X39637548Y-73831851D01*
X39644930Y-73959870D01*
X39650110Y-74049715D01*
X39651247Y-74054761D01*
X39651248Y-74054767D01*
X39671119Y-74142939D01*
X39699222Y-74267639D01*
X39737461Y-74361811D01*
X39767916Y-74436812D01*
X39783266Y-74474616D01*
X39785965Y-74479020D01*
X39894270Y-74655758D01*
X39899987Y-74665088D01*
X40046250Y-74833938D01*
X40218126Y-74976632D01*
X40274402Y-75009517D01*
X40291445Y-75019476D01*
X40340169Y-75071114D01*
X40353240Y-75140897D01*
X40326509Y-75206669D01*
X40286055Y-75240027D01*
X40273607Y-75246507D01*
X40269474Y-75249610D01*
X40269471Y-75249612D01*
X40164987Y-75328061D01*
X40094965Y-75380635D01*
X39940629Y-75542138D01*
X39814743Y-75726680D01*
X39720688Y-75929305D01*
X39660989Y-76144570D01*
X39637251Y-76366695D01*
X39637548Y-76371848D01*
X39637548Y-76371851D01*
X39643011Y-76466590D01*
X39650110Y-76589715D01*
X39651247Y-76594761D01*
X39651248Y-76594767D01*
X39671119Y-76682939D01*
X39699222Y-76807639D01*
X39783266Y-77014616D01*
X39899987Y-77205088D01*
X40046250Y-77373938D01*
X40218126Y-77516632D01*
X40288595Y-77557811D01*
X40291445Y-77559476D01*
X40340169Y-77611114D01*
X40353240Y-77680897D01*
X40326509Y-77746669D01*
X40286055Y-77780027D01*
X40273607Y-77786507D01*
X40269474Y-77789610D01*
X40269471Y-77789612D01*
X40245247Y-77807800D01*
X40094965Y-77920635D01*
X39940629Y-78082138D01*
X39814743Y-78266680D01*
X39720688Y-78469305D01*
X39660989Y-78684570D01*
X39637251Y-78906695D01*
X37504300Y-78906695D01*
X37504300Y-49417677D01*
X37524302Y-49349556D01*
X37541205Y-49328582D01*
X39244783Y-47625005D01*
X39307095Y-47590979D01*
X39333878Y-47588100D01*
X93584323Y-47588100D01*
X93652444Y-47608102D01*
G37*
%TD.AperFunction*%
%TD*%
M02*
