%TF.GenerationSoftware,KiCad,Pcbnew,(6.0.7)*%
%TF.CreationDate,2022-12-05T15:03:58-06:00*%
%TF.ProjectId,oxPSB,6f785053-422e-46b6-9963-61645f706362,rev?*%
%TF.SameCoordinates,Original*%
%TF.FileFunction,Soldermask,Bot*%
%TF.FilePolarity,Negative*%
%FSLAX46Y46*%
G04 Gerber Fmt 4.6, Leading zero omitted, Abs format (unit mm)*
G04 Created by KiCad (PCBNEW (6.0.7)) date 2022-12-05 15:03:58*
%MOMM*%
%LPD*%
G01*
G04 APERTURE LIST*
%ADD10R,1.700000X1.700000*%
%ADD11O,1.700000X1.700000*%
%ADD12R,2.000000X2.000000*%
%ADD13C,2.000000*%
G04 APERTURE END LIST*
D10*
%TO.C,J5*%
X91109800Y-51917600D03*
D11*
X91109800Y-54457600D03*
X91109800Y-56997600D03*
X91109800Y-59537600D03*
X91109800Y-62077600D03*
X91109800Y-64617600D03*
X91109800Y-67157600D03*
X91109800Y-69697600D03*
%TD*%
D10*
%TO.C,J4*%
X101109800Y-79917600D03*
D11*
X101109800Y-82457600D03*
X101109800Y-84997600D03*
X101109800Y-87537600D03*
X101109800Y-90077600D03*
X101109800Y-92617600D03*
X101109800Y-95157600D03*
X101109800Y-97697600D03*
%TD*%
%TO.C,J3*%
X91109800Y-97697600D03*
X91109800Y-95157600D03*
X91109800Y-92617600D03*
X91109800Y-90077600D03*
X91109800Y-87537600D03*
X91109800Y-84997600D03*
X91109800Y-82457600D03*
D10*
X91109800Y-79917600D03*
%TD*%
%TO.C,J2*%
X66000000Y-51000000D03*
D11*
X66000000Y-53540000D03*
X66000000Y-56080000D03*
X66000000Y-58620000D03*
X66000000Y-61160000D03*
X66000000Y-63700000D03*
X66000000Y-66240000D03*
X66000000Y-68780000D03*
X66000000Y-71320000D03*
X66000000Y-73860000D03*
X66000000Y-76400000D03*
X66000000Y-78940000D03*
X66000000Y-81480000D03*
X66000000Y-84020000D03*
X66000000Y-86560000D03*
X66000000Y-89100000D03*
X66000000Y-91640000D03*
X66000000Y-94180000D03*
X66000000Y-96720000D03*
%TD*%
D10*
%TO.C,J1*%
X41000000Y-51000000D03*
D11*
X41000000Y-53540000D03*
X41000000Y-56080000D03*
X41000000Y-58620000D03*
X41000000Y-61160000D03*
X41000000Y-63700000D03*
X41000000Y-66240000D03*
X41000000Y-68780000D03*
X41000000Y-71320000D03*
X41000000Y-73860000D03*
X41000000Y-76400000D03*
X41000000Y-78940000D03*
X41000000Y-81480000D03*
X41000000Y-84020000D03*
X41000000Y-86560000D03*
X41000000Y-89100000D03*
X41000000Y-91640000D03*
X41000000Y-94180000D03*
X41000000Y-96720000D03*
%TD*%
D12*
%TO.C,BZ1*%
X72323800Y-73964800D03*
D13*
X79923800Y-73964800D03*
%TD*%
M02*
