M48
; DRILL file {KiCad (6.0.7)} date Mon Dec  5 15:03:55 2022
; FORMAT={-:-/ absolute / inch / decimal}
; #@! TF.CreationDate,2022-12-05T15:03:55-06:00
; #@! TF.GenerationSoftware,Kicad,Pcbnew,(6.0.7)
; #@! TF.FileFunction,Plated,1,2,PTH
FMAT,2
INCH
; #@! TA.AperFunction,Plated,PTH,ComponentDrill
T1C0.0394
%
G90
G05
T1
X1.6142Y-2.0079
X1.6142Y-2.1079
X1.6142Y-2.2079
X1.6142Y-2.3079
X1.6142Y-2.4079
X1.6142Y-2.5079
X1.6142Y-2.6079
X1.6142Y-2.7079
X1.6142Y-2.8079
X1.6142Y-2.9079
X1.6142Y-3.0079
X1.6142Y-3.1079
X1.6142Y-3.2079
X1.6142Y-3.3079
X1.6142Y-3.4079
X1.6142Y-3.5079
X1.6142Y-3.6079
X1.6142Y-3.7079
X1.6142Y-3.8079
X2.5984Y-2.0079
X2.5984Y-2.1079
X2.5984Y-2.2079
X2.5984Y-2.3079
X2.5984Y-2.4079
X2.5984Y-2.5079
X2.5984Y-2.6079
X2.5984Y-2.7079
X2.5984Y-2.8079
X2.5984Y-2.9079
X2.5984Y-3.0079
X2.5984Y-3.1079
X2.5984Y-3.2079
X2.5984Y-3.3079
X2.5984Y-3.4079
X2.5984Y-3.5079
X2.5984Y-3.6079
X2.5984Y-3.7079
X2.5984Y-3.8079
X2.8474Y-2.912
X3.1466Y-2.912
X3.587Y-2.044
X3.587Y-2.144
X3.587Y-2.244
X3.587Y-2.344
X3.587Y-2.444
X3.587Y-2.544
X3.587Y-2.644
X3.587Y-2.744
X3.587Y-3.1464
X3.587Y-3.2464
X3.587Y-3.3464
X3.587Y-3.4464
X3.587Y-3.5464
X3.587Y-3.6464
X3.587Y-3.7464
X3.587Y-3.8464
X3.9807Y-3.1464
X3.9807Y-3.2464
X3.9807Y-3.3464
X3.9807Y-3.4464
X3.9807Y-3.5464
X3.9807Y-3.6464
X3.9807Y-3.7464
X3.9807Y-3.8464
T0
M30
