%TF.GenerationSoftware,KiCad,Pcbnew,(6.0.7)*%
%TF.CreationDate,2022-12-05T15:03:54-06:00*%
%TF.ProjectId,oxPSB,6f785053-422e-46b6-9963-61645f706362,rev?*%
%TF.SameCoordinates,Original*%
%TF.FileFunction,Drillmap*%
%TF.FilePolarity,Positive*%
%FSLAX45Y45*%
G04 Gerber Fmt 4.5, Leading zero omitted, Abs format (unit mm)*
G04 Created by KiCad (PCBNEW (6.0.7)) date 2022-12-05 15:03:54*
%MOMM*%
%LPD*%
G01*
G04 APERTURE LIST*
%ADD10C,0.100000*%
%ADD11C,0.200000*%
G04 APERTURE END LIST*
D10*
X3040380Y-4381500D02*
X11958320Y-4381500D01*
X11958320Y-4381500D02*
X11958320Y-10850880D01*
X11958320Y-10850880D02*
X3040380Y-10850880D01*
X3040380Y-10850880D02*
X3040380Y-4381500D01*
D11*
X3292999Y-11166356D02*
X3292999Y-10966356D01*
X3340618Y-10966356D01*
X3369189Y-10975880D01*
X3388237Y-10994928D01*
X3397761Y-11013975D01*
X3407285Y-11052070D01*
X3407285Y-11080642D01*
X3397761Y-11118737D01*
X3388237Y-11137785D01*
X3369189Y-11156832D01*
X3340618Y-11166356D01*
X3292999Y-11166356D01*
X3492999Y-11166356D02*
X3492999Y-11033023D01*
X3492999Y-11071118D02*
X3502523Y-11052070D01*
X3512047Y-11042547D01*
X3531094Y-11033023D01*
X3550142Y-11033023D01*
X3616808Y-11166356D02*
X3616808Y-11033023D01*
X3616808Y-10966356D02*
X3607285Y-10975880D01*
X3616808Y-10985404D01*
X3626332Y-10975880D01*
X3616808Y-10966356D01*
X3616808Y-10985404D01*
X3740618Y-11166356D02*
X3721570Y-11156832D01*
X3712047Y-11137785D01*
X3712047Y-10966356D01*
X3845380Y-11166356D02*
X3826332Y-11156832D01*
X3816808Y-11137785D01*
X3816808Y-10966356D01*
X4073951Y-11166356D02*
X4073951Y-10966356D01*
X4140618Y-11109213D01*
X4207285Y-10966356D01*
X4207285Y-11166356D01*
X4388237Y-11166356D02*
X4388237Y-11061594D01*
X4378713Y-11042547D01*
X4359666Y-11033023D01*
X4321570Y-11033023D01*
X4302523Y-11042547D01*
X4388237Y-11156832D02*
X4369190Y-11166356D01*
X4321570Y-11166356D01*
X4302523Y-11156832D01*
X4292999Y-11137785D01*
X4292999Y-11118737D01*
X4302523Y-11099690D01*
X4321570Y-11090166D01*
X4369190Y-11090166D01*
X4388237Y-11080642D01*
X4483475Y-11033023D02*
X4483475Y-11233023D01*
X4483475Y-11042547D02*
X4502523Y-11033023D01*
X4540618Y-11033023D01*
X4559666Y-11042547D01*
X4569190Y-11052070D01*
X4578713Y-11071118D01*
X4578713Y-11128261D01*
X4569190Y-11147309D01*
X4559666Y-11156832D01*
X4540618Y-11166356D01*
X4502523Y-11166356D01*
X4483475Y-11156832D01*
X4664428Y-11147309D02*
X4673951Y-11156832D01*
X4664428Y-11166356D01*
X4654904Y-11156832D01*
X4664428Y-11147309D01*
X4664428Y-11166356D01*
X4664428Y-11042547D02*
X4673951Y-11052070D01*
X4664428Y-11061594D01*
X4654904Y-11052070D01*
X4664428Y-11042547D01*
X4664428Y-11061594D01*
M02*
